<mxfile host="Electron" agent="Mozilla/5.0 (Windows NT 10.0; Win64; x64) AppleWebKit/537.36 (KHTML, like Gecko) draw.io/24.7.17 Chrome/128.0.6613.36 Electron/32.0.1 Safari/537.36" version="24.7.17" pages="4">
  <diagram name="AS IS" id="L6tF1kYmA9s8ccRbhzHo">
    <mxGraphModel dx="2156" dy="2340" grid="1" gridSize="10" guides="1" tooltips="1" connect="1" arrows="1" fold="1" page="1" pageScale="1" pageWidth="827" pageHeight="1169" math="0" shadow="0">
      <root>
        <mxCell id="0" />
        <mxCell id="1" parent="0" />
        <mxCell id="m7kHk6N_hKYVxXcOdfyV-15" value="Управляющий" style="swimlane;html=1;startSize=20;fontStyle=0;collapsible=0;horizontal=0;swimlaneLine=1;swimlaneFillColor=#ffffff;strokeWidth=2;whiteSpace=wrap;" parent="1" vertex="1">
          <mxGeometry x="190" y="1070" width="5550" height="510" as="geometry" />
        </mxCell>
        <mxCell id="m7kHk6N_hKYVxXcOdfyV-38" style="edgeStyle=orthogonalEdgeStyle;rounded=0;orthogonalLoop=1;jettySize=auto;html=1;entryX=0.5;entryY=1;entryDx=0;entryDy=0;entryPerimeter=0;exitX=0.5;exitY=1;exitDx=0;exitDy=0;exitPerimeter=0;" parent="m7kHk6N_hKYVxXcOdfyV-15" source="m7kHk6N_hKYVxXcOdfyV-36" target="m7kHk6N_hKYVxXcOdfyV-27" edge="1">
          <mxGeometry relative="1" as="geometry">
            <mxPoint x="4510" y="406" as="sourcePoint" />
            <mxPoint x="4190" y="406" as="targetPoint" />
            <Array as="points">
              <mxPoint x="5070" y="491" />
              <mxPoint x="4750" y="491" />
            </Array>
          </mxGeometry>
        </mxCell>
        <mxCell id="m7kHk6N_hKYVxXcOdfyV-39" value="Нет" style="edgeLabel;html=1;align=center;verticalAlign=middle;resizable=0;points=[];" parent="m7kHk6N_hKYVxXcOdfyV-38" vertex="1" connectable="0">
          <mxGeometry x="0.1856" y="-1" relative="1" as="geometry">
            <mxPoint x="61" y="11" as="offset" />
          </mxGeometry>
        </mxCell>
        <mxCell id="m7kHk6N_hKYVxXcOdfyV-21" value="На следующий день" style="points=[[0.145,0.145,0],[0.5,0,0],[0.855,0.145,0],[1,0.5,0],[0.855,0.855,0],[0.5,1,0],[0.145,0.855,0],[0,0.5,0]];shape=mxgraph.bpmn.event;html=1;verticalLabelPosition=bottom;labelBackgroundColor=#ffffff;verticalAlign=top;align=center;perimeter=ellipsePerimeter;outlineConnect=0;aspect=fixed;outline=catching;symbol=timer;" parent="m7kHk6N_hKYVxXcOdfyV-15" vertex="1">
          <mxGeometry x="4465" y="365" width="50" height="50" as="geometry" />
        </mxCell>
        <mxCell id="m7kHk6N_hKYVxXcOdfyV-23" value="Проверить папку &quot;Досогласовать&quot;" style="points=[[0.25,0,0],[0.5,0,0],[0.75,0,0],[1,0.25,0],[1,0.5,0],[1,0.75,0],[0.75,1,0],[0.5,1,0],[0.25,1,0],[0,0.75,0],[0,0.5,0],[0,0.25,0]];shape=mxgraph.bpmn.task;whiteSpace=wrap;rectStyle=rounded;size=10;html=1;container=1;expand=0;collapsible=0;taskMarker=abstract;" parent="m7kHk6N_hKYVxXcOdfyV-15" vertex="1">
          <mxGeometry x="4585" y="350" width="120" height="80" as="geometry" />
        </mxCell>
        <mxCell id="m7kHk6N_hKYVxXcOdfyV-27" value="Принять решение&amp;nbsp;&lt;div&gt;по заказу&lt;/div&gt;" style="points=[[0.25,0.25,0],[0.5,0,0],[0.75,0.25,0],[1,0.5,0],[0.75,0.75,0],[0.5,1,0],[0.25,0.75,0],[0,0.5,0]];shape=mxgraph.bpmn.gateway2;html=1;verticalLabelPosition=bottom;labelBackgroundColor=#ffffff;verticalAlign=top;align=center;perimeter=rhombusPerimeter;outlineConnect=0;outline=none;symbol=none;gwType=exclusive;" parent="m7kHk6N_hKYVxXcOdfyV-15" vertex="1">
          <mxGeometry x="4740" y="365" width="50" height="50" as="geometry" />
        </mxCell>
        <mxCell id="m7kHk6N_hKYVxXcOdfyV-33" value="Связаться с клиентом" style="points=[[0.25,0,0],[0.5,0,0],[0.75,0,0],[1,0.25,0],[1,0.5,0],[1,0.75,0],[0.75,1,0],[0.5,1,0],[0.25,1,0],[0,0.75,0],[0,0.5,0],[0,0.25,0]];shape=mxgraph.bpmn.task;whiteSpace=wrap;rectStyle=rounded;size=10;html=1;container=1;expand=0;collapsible=0;taskMarker=abstract;" parent="m7kHk6N_hKYVxXcOdfyV-15" vertex="1">
          <mxGeometry x="4895" y="350" width="120" height="80" as="geometry" />
        </mxCell>
        <mxCell id="m7kHk6N_hKYVxXcOdfyV-36" value="Удалось связаться&lt;div&gt;с клиентом?&lt;/div&gt;" style="points=[[0.25,0.25,0],[0.5,0,0],[0.75,0.25,0],[1,0.5,0],[0.75,0.75,0],[0.5,1,0],[0.25,0.75,0],[0,0.5,0]];shape=mxgraph.bpmn.gateway2;html=1;verticalLabelPosition=bottom;labelBackgroundColor=#ffffff;verticalAlign=top;align=center;perimeter=rhombusPerimeter;outlineConnect=0;outline=none;symbol=none;gwType=exclusive;" parent="m7kHk6N_hKYVxXcOdfyV-15" vertex="1">
          <mxGeometry x="5060" y="365" width="50" height="50" as="geometry" />
        </mxCell>
        <mxCell id="m7kHk6N_hKYVxXcOdfyV-55" value="" style="points=[[0.25,0.25,0],[0.5,0,0],[0.75,0.25,0],[1,0.5,0],[0.75,0.75,0],[0.5,1,0],[0.25,0.75,0],[0,0.5,0]];shape=mxgraph.bpmn.gateway2;html=1;verticalLabelPosition=bottom;labelBackgroundColor=#ffffff;verticalAlign=top;align=center;perimeter=rhombusPerimeter;outlineConnect=0;outline=none;symbol=none;gwType=parallel;" parent="m7kHk6N_hKYVxXcOdfyV-15" vertex="1">
          <mxGeometry x="5110" y="260" width="50" height="50" as="geometry" />
        </mxCell>
        <mxCell id="m7kHk6N_hKYVxXcOdfyV-53" value="Подтвердить заказ" style="points=[[0.25,0,0],[0.5,0,0],[0.75,0,0],[1,0.25,0],[1,0.5,0],[1,0.75,0],[0.75,1,0],[0.5,1,0],[0.25,1,0],[0,0.75,0],[0,0.5,0],[0,0.25,0]];shape=mxgraph.bpmn.task;whiteSpace=wrap;rectStyle=rounded;size=10;html=1;container=1;expand=0;collapsible=0;taskMarker=abstract;" parent="m7kHk6N_hKYVxXcOdfyV-15" vertex="1">
          <mxGeometry x="5200" y="290" width="120" height="80" as="geometry" />
        </mxCell>
        <mxCell id="m7kHk6N_hKYVxXcOdfyV-54" value="Переместить заказ в папку &quot;На отгруз&quot;" style="points=[[0.25,0,0],[0.5,0,0],[0.75,0,0],[1,0.25,0],[1,0.5,0],[1,0.75,0],[0.75,1,0],[0.5,1,0],[0.25,1,0],[0,0.75,0],[0,0.5,0],[0,0.25,0]];shape=mxgraph.bpmn.task;whiteSpace=wrap;rectStyle=rounded;size=10;html=1;container=1;expand=0;collapsible=0;taskMarker=abstract;" parent="m7kHk6N_hKYVxXcOdfyV-15" vertex="1">
          <mxGeometry x="5200" y="200" width="120" height="80" as="geometry" />
        </mxCell>
        <mxCell id="m7kHk6N_hKYVxXcOdfyV-56" value="" style="points=[[0.25,0.25,0],[0.5,0,0],[0.75,0.25,0],[1,0.5,0],[0.75,0.75,0],[0.5,1,0],[0.25,0.75,0],[0,0.5,0]];shape=mxgraph.bpmn.gateway2;html=1;verticalLabelPosition=bottom;labelBackgroundColor=#ffffff;verticalAlign=top;align=center;perimeter=rhombusPerimeter;outlineConnect=0;outline=none;symbol=none;gwType=parallel;" parent="m7kHk6N_hKYVxXcOdfyV-15" vertex="1">
          <mxGeometry x="5355" y="260" width="50" height="50" as="geometry" />
        </mxCell>
        <mxCell id="m7kHk6N_hKYVxXcOdfyV-24" style="edgeStyle=orthogonalEdgeStyle;rounded=0;orthogonalLoop=1;jettySize=auto;html=1;" parent="m7kHk6N_hKYVxXcOdfyV-15" source="m7kHk6N_hKYVxXcOdfyV-21" target="m7kHk6N_hKYVxXcOdfyV-23" edge="1">
          <mxGeometry relative="1" as="geometry" />
        </mxCell>
        <mxCell id="m7kHk6N_hKYVxXcOdfyV-26" style="edgeStyle=orthogonalEdgeStyle;rounded=0;orthogonalLoop=1;jettySize=auto;html=1;entryX=0;entryY=0.5;entryDx=0;entryDy=0;entryPerimeter=0;" parent="m7kHk6N_hKYVxXcOdfyV-15" source="m7kHk6N_hKYVxXcOdfyV-23" target="m7kHk6N_hKYVxXcOdfyV-27" edge="1">
          <mxGeometry relative="1" as="geometry">
            <mxPoint x="4190" y="75" as="targetPoint" />
          </mxGeometry>
        </mxCell>
        <mxCell id="m7kHk6N_hKYVxXcOdfyV-34" style="edgeStyle=orthogonalEdgeStyle;rounded=0;orthogonalLoop=1;jettySize=auto;html=1;" parent="m7kHk6N_hKYVxXcOdfyV-15" source="m7kHk6N_hKYVxXcOdfyV-27" target="m7kHk6N_hKYVxXcOdfyV-33" edge="1">
          <mxGeometry relative="1" as="geometry" />
        </mxCell>
        <mxCell id="m7kHk6N_hKYVxXcOdfyV-35" value="Позвонить&lt;br&gt;клиенту" style="edgeLabel;html=1;align=center;verticalAlign=middle;resizable=0;points=[];" parent="m7kHk6N_hKYVxXcOdfyV-34" vertex="1" connectable="0">
          <mxGeometry x="-0.2019" y="-1" relative="1" as="geometry">
            <mxPoint as="offset" />
          </mxGeometry>
        </mxCell>
        <mxCell id="m7kHk6N_hKYVxXcOdfyV-37" style="edgeStyle=orthogonalEdgeStyle;rounded=0;orthogonalLoop=1;jettySize=auto;html=1;entryX=0;entryY=0.5;entryDx=0;entryDy=0;entryPerimeter=0;" parent="m7kHk6N_hKYVxXcOdfyV-15" source="m7kHk6N_hKYVxXcOdfyV-33" target="m7kHk6N_hKYVxXcOdfyV-36" edge="1">
          <mxGeometry relative="1" as="geometry" />
        </mxCell>
        <mxCell id="m7kHk6N_hKYVxXcOdfyV-41" style="edgeStyle=orthogonalEdgeStyle;rounded=0;orthogonalLoop=1;jettySize=auto;html=1;entryX=0;entryY=0.5;entryDx=0;entryDy=0;entryPerimeter=0;" parent="m7kHk6N_hKYVxXcOdfyV-15" source="m7kHk6N_hKYVxXcOdfyV-36" target="m7kHk6N_hKYVxXcOdfyV-55" edge="1">
          <mxGeometry relative="1" as="geometry">
            <mxPoint x="4550" y="180" as="targetPoint" />
          </mxGeometry>
        </mxCell>
        <mxCell id="m7kHk6N_hKYVxXcOdfyV-42" value="Да" style="edgeLabel;html=1;align=center;verticalAlign=middle;resizable=0;points=[];" parent="m7kHk6N_hKYVxXcOdfyV-41" vertex="1" connectable="0">
          <mxGeometry x="-0.181" y="-1" relative="1" as="geometry">
            <mxPoint as="offset" />
          </mxGeometry>
        </mxCell>
        <mxCell id="m7kHk6N_hKYVxXcOdfyV-57" style="edgeStyle=orthogonalEdgeStyle;rounded=0;orthogonalLoop=1;jettySize=auto;html=1;entryX=0;entryY=0.5;entryDx=0;entryDy=0;entryPerimeter=0;exitX=0.5;exitY=1;exitDx=0;exitDy=0;exitPerimeter=0;" parent="m7kHk6N_hKYVxXcOdfyV-15" source="m7kHk6N_hKYVxXcOdfyV-55" target="m7kHk6N_hKYVxXcOdfyV-53" edge="1">
          <mxGeometry relative="1" as="geometry" />
        </mxCell>
        <mxCell id="m7kHk6N_hKYVxXcOdfyV-58" style="edgeStyle=orthogonalEdgeStyle;rounded=0;orthogonalLoop=1;jettySize=auto;html=1;entryX=0;entryY=0.5;entryDx=0;entryDy=0;entryPerimeter=0;exitX=0.5;exitY=0;exitDx=0;exitDy=0;exitPerimeter=0;" parent="m7kHk6N_hKYVxXcOdfyV-15" source="m7kHk6N_hKYVxXcOdfyV-55" target="m7kHk6N_hKYVxXcOdfyV-54" edge="1">
          <mxGeometry relative="1" as="geometry" />
        </mxCell>
        <mxCell id="m7kHk6N_hKYVxXcOdfyV-59" style="edgeStyle=orthogonalEdgeStyle;rounded=0;orthogonalLoop=1;jettySize=auto;html=1;entryX=0.5;entryY=1;entryDx=0;entryDy=0;entryPerimeter=0;" parent="m7kHk6N_hKYVxXcOdfyV-15" source="m7kHk6N_hKYVxXcOdfyV-53" target="m7kHk6N_hKYVxXcOdfyV-56" edge="1">
          <mxGeometry relative="1" as="geometry" />
        </mxCell>
        <mxCell id="m7kHk6N_hKYVxXcOdfyV-60" style="edgeStyle=orthogonalEdgeStyle;rounded=0;orthogonalLoop=1;jettySize=auto;html=1;entryX=0.5;entryY=0;entryDx=0;entryDy=0;entryPerimeter=0;" parent="m7kHk6N_hKYVxXcOdfyV-15" source="m7kHk6N_hKYVxXcOdfyV-54" target="m7kHk6N_hKYVxXcOdfyV-56" edge="1">
          <mxGeometry relative="1" as="geometry" />
        </mxCell>
        <mxCell id="m7kHk6N_hKYVxXcOdfyV-28" value="Отменить заказ" style="points=[[0.25,0,0],[0.5,0,0],[0.75,0,0],[1,0.25,0],[1,0.5,0],[1,0.75,0],[0.75,1,0],[0.5,1,0],[0.25,1,0],[0,0.75,0],[0,0.5,0],[0,0.25,0]];shape=mxgraph.bpmn.task;whiteSpace=wrap;rectStyle=rounded;size=10;html=1;container=1;expand=0;collapsible=0;taskMarker=abstract;" parent="m7kHk6N_hKYVxXcOdfyV-15" vertex="1">
          <mxGeometry x="4800" y="60" width="120" height="80" as="geometry" />
        </mxCell>
        <mxCell id="tWP1AcY2Td7ZkM0q6sf4-31" value="Оформить возврат средств" style="points=[[0.25,0,0],[0.5,0,0],[0.75,0,0],[1,0.25,0],[1,0.5,0],[1,0.75,0],[0.75,1,0],[0.5,1,0],[0.25,1,0],[0,0.75,0],[0,0.5,0],[0,0.25,0]];shape=mxgraph.bpmn.task;whiteSpace=wrap;rectStyle=rounded;size=10;html=1;container=1;expand=0;collapsible=0;taskMarker=abstract;" parent="m7kHk6N_hKYVxXcOdfyV-15" vertex="1">
          <mxGeometry x="4620" y="60" width="120" height="80" as="geometry" />
        </mxCell>
        <mxCell id="tWP1AcY2Td7ZkM0q6sf4-32" value="" style="points=[[0.25,0.25,0],[0.5,0,0],[0.75,0.25,0],[1,0.5,0],[0.75,0.75,0],[0.5,1,0],[0.25,0.75,0],[0,0.5,0]];shape=mxgraph.bpmn.gateway2;html=1;verticalLabelPosition=bottom;labelBackgroundColor=#ffffff;verticalAlign=top;align=center;perimeter=rhombusPerimeter;outlineConnect=0;outline=none;symbol=none;gwType=parallel;" parent="m7kHk6N_hKYVxXcOdfyV-15" vertex="1">
          <mxGeometry x="4740" y="150" width="50" height="50" as="geometry" />
        </mxCell>
        <mxCell id="tWP1AcY2Td7ZkM0q6sf4-33" style="edgeStyle=orthogonalEdgeStyle;rounded=0;orthogonalLoop=1;jettySize=auto;html=1;entryX=0.5;entryY=1;entryDx=0;entryDy=0;entryPerimeter=0;" parent="m7kHk6N_hKYVxXcOdfyV-15" source="tWP1AcY2Td7ZkM0q6sf4-32" target="m7kHk6N_hKYVxXcOdfyV-28" edge="1">
          <mxGeometry relative="1" as="geometry" />
        </mxCell>
        <mxCell id="tWP1AcY2Td7ZkM0q6sf4-34" style="edgeStyle=orthogonalEdgeStyle;rounded=0;orthogonalLoop=1;jettySize=auto;html=1;entryX=0.5;entryY=1;entryDx=0;entryDy=0;entryPerimeter=0;exitX=0;exitY=0.5;exitDx=0;exitDy=0;exitPerimeter=0;" parent="m7kHk6N_hKYVxXcOdfyV-15" source="tWP1AcY2Td7ZkM0q6sf4-32" target="tWP1AcY2Td7ZkM0q6sf4-31" edge="1">
          <mxGeometry relative="1" as="geometry" />
        </mxCell>
        <mxCell id="tWP1AcY2Td7ZkM0q6sf4-35" value="" style="points=[[0.25,0.25,0],[0.5,0,0],[0.75,0.25,0],[1,0.5,0],[0.75,0.75,0],[0.5,1,0],[0.25,0.75,0],[0,0.5,0]];shape=mxgraph.bpmn.gateway2;html=1;verticalLabelPosition=bottom;labelBackgroundColor=#ffffff;verticalAlign=top;align=center;perimeter=rhombusPerimeter;outlineConnect=0;outline=none;symbol=none;gwType=parallel;" parent="m7kHk6N_hKYVxXcOdfyV-15" vertex="1">
          <mxGeometry x="4740" y="10" width="50" height="50" as="geometry" />
        </mxCell>
        <mxCell id="tWP1AcY2Td7ZkM0q6sf4-36" style="edgeStyle=orthogonalEdgeStyle;rounded=0;orthogonalLoop=1;jettySize=auto;html=1;entryX=0;entryY=0.5;entryDx=0;entryDy=0;entryPerimeter=0;" parent="m7kHk6N_hKYVxXcOdfyV-15" source="tWP1AcY2Td7ZkM0q6sf4-31" target="tWP1AcY2Td7ZkM0q6sf4-35" edge="1">
          <mxGeometry relative="1" as="geometry" />
        </mxCell>
        <mxCell id="tWP1AcY2Td7ZkM0q6sf4-37" style="edgeStyle=orthogonalEdgeStyle;rounded=0;orthogonalLoop=1;jettySize=auto;html=1;entryX=1;entryY=0.5;entryDx=0;entryDy=0;entryPerimeter=0;exitX=0.5;exitY=0;exitDx=0;exitDy=0;exitPerimeter=0;" parent="m7kHk6N_hKYVxXcOdfyV-15" source="m7kHk6N_hKYVxXcOdfyV-28" target="tWP1AcY2Td7ZkM0q6sf4-35" edge="1">
          <mxGeometry relative="1" as="geometry" />
        </mxCell>
        <mxCell id="tWP1AcY2Td7ZkM0q6sf4-39" value="Узнать статус оплаты заказа" style="points=[[0.25,0,0],[0.5,0,0],[0.75,0,0],[1,0.25,0],[1,0.5,0],[1,0.75,0],[0.75,1,0],[0.5,1,0],[0.25,1,0],[0,0.75,0],[0,0.5,0],[0,0.25,0]];shape=mxgraph.bpmn.task;whiteSpace=wrap;rectStyle=rounded;size=10;html=1;container=1;expand=0;collapsible=0;taskMarker=abstract;" parent="m7kHk6N_hKYVxXcOdfyV-15" vertex="1">
          <mxGeometry x="4705" y="240" width="120" height="80" as="geometry" />
        </mxCell>
        <mxCell id="tWP1AcY2Td7ZkM0q6sf4-40" style="edgeStyle=orthogonalEdgeStyle;rounded=0;orthogonalLoop=1;jettySize=auto;html=1;entryX=0.5;entryY=1;entryDx=0;entryDy=0;entryPerimeter=0;" parent="m7kHk6N_hKYVxXcOdfyV-15" source="m7kHk6N_hKYVxXcOdfyV-27" target="tWP1AcY2Td7ZkM0q6sf4-39" edge="1">
          <mxGeometry relative="1" as="geometry" />
        </mxCell>
        <mxCell id="tWP1AcY2Td7ZkM0q6sf4-41" value="Отменить заказ" style="edgeLabel;html=1;align=center;verticalAlign=middle;resizable=0;points=[];" parent="tWP1AcY2Td7ZkM0q6sf4-40" vertex="1" connectable="0">
          <mxGeometry x="-0.3598" y="-2" relative="1" as="geometry">
            <mxPoint as="offset" />
          </mxGeometry>
        </mxCell>
        <mxCell id="tWP1AcY2Td7ZkM0q6sf4-42" style="edgeStyle=orthogonalEdgeStyle;rounded=0;orthogonalLoop=1;jettySize=auto;html=1;entryX=0.5;entryY=1;entryDx=0;entryDy=0;entryPerimeter=0;" parent="m7kHk6N_hKYVxXcOdfyV-15" source="tWP1AcY2Td7ZkM0q6sf4-39" target="tWP1AcY2Td7ZkM0q6sf4-32" edge="1">
          <mxGeometry relative="1" as="geometry" />
        </mxCell>
        <mxCell id="ea3MuzoVVC9AlBV81ezA-3" value="Администратор" style="swimlane;html=1;startSize=20;fontStyle=0;collapsible=0;horizontal=0;swimlaneLine=1;swimlaneFillColor=#ffffff;strokeWidth=2;whiteSpace=wrap;" parent="1" vertex="1">
          <mxGeometry x="190" y="570" width="5550" height="500" as="geometry" />
        </mxCell>
        <mxCell id="rDVSAl7n5NQXXzqdpmjg-18" style="edgeStyle=orthogonalEdgeStyle;rounded=0;orthogonalLoop=1;jettySize=auto;html=1;entryX=0;entryY=0.5;entryDx=0;entryDy=0;entryPerimeter=0;exitX=0.5;exitY=1;exitDx=0;exitDy=0;exitPerimeter=0;" parent="ea3MuzoVVC9AlBV81ezA-3" source="rDVSAl7n5NQXXzqdpmjg-10" target="rDVSAl7n5NQXXzqdpmjg-17" edge="1">
          <mxGeometry relative="1" as="geometry" />
        </mxCell>
        <mxCell id="rDVSAl7n5NQXXzqdpmjg-19" value="Да" style="edgeLabel;html=1;align=center;verticalAlign=middle;resizable=0;points=[];" parent="rDVSAl7n5NQXXzqdpmjg-18" vertex="1" connectable="0">
          <mxGeometry x="-0.1296" y="-2" relative="1" as="geometry">
            <mxPoint x="32" y="-2" as="offset" />
          </mxGeometry>
        </mxCell>
        <mxCell id="tWP1AcY2Td7ZkM0q6sf4-24" style="edgeStyle=orthogonalEdgeStyle;rounded=0;orthogonalLoop=1;jettySize=auto;html=1;entryX=0.5;entryY=1;entryDx=0;entryDy=0;entryPerimeter=0;" parent="ea3MuzoVVC9AlBV81ezA-3" source="rDVSAl7n5NQXXzqdpmjg-11" target="tWP1AcY2Td7ZkM0q6sf4-23" edge="1">
          <mxGeometry relative="1" as="geometry" />
        </mxCell>
        <mxCell id="rDVSAl7n5NQXXzqdpmjg-4" style="edgeStyle=orthogonalEdgeStyle;rounded=0;orthogonalLoop=1;jettySize=auto;html=1;" parent="ea3MuzoVVC9AlBV81ezA-3" source="rDVSAl7n5NQXXzqdpmjg-1" target="rDVSAl7n5NQXXzqdpmjg-3" edge="1">
          <mxGeometry relative="1" as="geometry" />
        </mxCell>
        <mxCell id="rDVSAl7n5NQXXzqdpmjg-6" style="edgeStyle=orthogonalEdgeStyle;rounded=0;orthogonalLoop=1;jettySize=auto;html=1;" parent="ea3MuzoVVC9AlBV81ezA-3" source="rDVSAl7n5NQXXzqdpmjg-3" target="rDVSAl7n5NQXXzqdpmjg-5" edge="1">
          <mxGeometry relative="1" as="geometry" />
        </mxCell>
        <mxCell id="rDVSAl7n5NQXXzqdpmjg-8" style="edgeStyle=orthogonalEdgeStyle;rounded=0;orthogonalLoop=1;jettySize=auto;html=1;" parent="ea3MuzoVVC9AlBV81ezA-3" source="rDVSAl7n5NQXXzqdpmjg-5" target="rDVSAl7n5NQXXzqdpmjg-7" edge="1">
          <mxGeometry relative="1" as="geometry" />
        </mxCell>
        <mxCell id="m7kHk6N_hKYVxXcOdfyV-6" style="edgeStyle=orthogonalEdgeStyle;rounded=0;orthogonalLoop=1;jettySize=auto;html=1;entryX=0;entryY=0.5;entryDx=0;entryDy=0;entryPerimeter=0;" parent="ea3MuzoVVC9AlBV81ezA-3" source="m7kHk6N_hKYVxXcOdfyV-4" target="rDVSAl7n5NQXXzqdpmjg-10" edge="1">
          <mxGeometry relative="1" as="geometry" />
        </mxCell>
        <mxCell id="rDVSAl7n5NQXXzqdpmjg-12" style="edgeStyle=orthogonalEdgeStyle;rounded=0;orthogonalLoop=1;jettySize=auto;html=1;entryX=0;entryY=0.5;entryDx=0;entryDy=0;entryPerimeter=0;exitX=0.5;exitY=0;exitDx=0;exitDy=0;exitPerimeter=0;" parent="ea3MuzoVVC9AlBV81ezA-3" source="rDVSAl7n5NQXXzqdpmjg-10" target="rDVSAl7n5NQXXzqdpmjg-11" edge="1">
          <mxGeometry relative="1" as="geometry" />
        </mxCell>
        <mxCell id="rDVSAl7n5NQXXzqdpmjg-13" value="Нет" style="edgeLabel;html=1;align=center;verticalAlign=middle;resizable=0;points=[];" parent="rDVSAl7n5NQXXzqdpmjg-12" vertex="1" connectable="0">
          <mxGeometry x="-0.2041" y="-1" relative="1" as="geometry">
            <mxPoint x="55" y="-1" as="offset" />
          </mxGeometry>
        </mxCell>
        <mxCell id="tWP1AcY2Td7ZkM0q6sf4-26" style="edgeStyle=orthogonalEdgeStyle;rounded=0;orthogonalLoop=1;jettySize=auto;html=1;entryX=0.5;entryY=1;entryDx=0;entryDy=0;entryPerimeter=0;exitX=0.5;exitY=0;exitDx=0;exitDy=0;exitPerimeter=0;" parent="ea3MuzoVVC9AlBV81ezA-3" source="tWP1AcY2Td7ZkM0q6sf4-23" target="tWP1AcY2Td7ZkM0q6sf4-25" edge="1">
          <mxGeometry relative="1" as="geometry" />
        </mxCell>
        <mxCell id="tWP1AcY2Td7ZkM0q6sf4-27" value="Нет" style="edgeLabel;html=1;align=center;verticalAlign=middle;resizable=0;points=[];" parent="tWP1AcY2Td7ZkM0q6sf4-26" vertex="1" connectable="0">
          <mxGeometry x="-0.2284" relative="1" as="geometry">
            <mxPoint as="offset" />
          </mxGeometry>
        </mxCell>
        <mxCell id="m7kHk6N_hKYVxXcOdfyV-8" style="edgeStyle=orthogonalEdgeStyle;rounded=0;orthogonalLoop=1;jettySize=auto;html=1;" parent="ea3MuzoVVC9AlBV81ezA-3" source="rDVSAl7n5NQXXzqdpmjg-17" target="m7kHk6N_hKYVxXcOdfyV-7" edge="1">
          <mxGeometry relative="1" as="geometry" />
        </mxCell>
        <mxCell id="m7kHk6N_hKYVxXcOdfyV-19" style="edgeStyle=orthogonalEdgeStyle;rounded=0;orthogonalLoop=1;jettySize=auto;html=1;" parent="ea3MuzoVVC9AlBV81ezA-3" source="m7kHk6N_hKYVxXcOdfyV-7" target="m7kHk6N_hKYVxXcOdfyV-14" edge="1">
          <mxGeometry relative="1" as="geometry" />
        </mxCell>
        <mxCell id="m7kHk6N_hKYVxXcOdfyV-20" value="Нет" style="edgeLabel;html=1;align=center;verticalAlign=middle;resizable=0;points=[];" parent="m7kHk6N_hKYVxXcOdfyV-19" vertex="1" connectable="0">
          <mxGeometry x="-0.125" y="1" relative="1" as="geometry">
            <mxPoint as="offset" />
          </mxGeometry>
        </mxCell>
        <mxCell id="rDVSAl7n5NQXXzqdpmjg-1" value="Уведомление&amp;nbsp;&lt;div&gt;о заказе&lt;/div&gt;" style="points=[[0.145,0.145,0],[0.5,0,0],[0.855,0.145,0],[1,0.5,0],[0.855,0.855,0],[0.5,1,0],[0.145,0.855,0],[0,0.5,0]];shape=mxgraph.bpmn.event;html=1;verticalLabelPosition=bottom;labelBackgroundColor=#ffffff;verticalAlign=top;align=center;perimeter=ellipsePerimeter;outlineConnect=0;aspect=fixed;outline=catching;symbol=message;" parent="ea3MuzoVVC9AlBV81ezA-3" vertex="1">
          <mxGeometry x="3030" y="380" width="50" height="50" as="geometry" />
        </mxCell>
        <mxCell id="rDVSAl7n5NQXXzqdpmjg-3" value="Открыть письмо" style="points=[[0.25,0,0],[0.5,0,0],[0.75,0,0],[1,0.25,0],[1,0.5,0],[1,0.75,0],[0.75,1,0],[0.5,1,0],[0.25,1,0],[0,0.75,0],[0,0.5,0],[0,0.25,0]];shape=mxgraph.bpmn.task;whiteSpace=wrap;rectStyle=rounded;size=10;html=1;container=1;expand=0;collapsible=0;taskMarker=abstract;" parent="ea3MuzoVVC9AlBV81ezA-3" vertex="1">
          <mxGeometry x="3120" y="365" width="120" height="80" as="geometry" />
        </mxCell>
        <mxCell id="rDVSAl7n5NQXXzqdpmjg-5" value="Изучить состав заказа" style="points=[[0.25,0,0],[0.5,0,0],[0.75,0,0],[1,0.25,0],[1,0.5,0],[1,0.75,0],[0.75,1,0],[0.5,1,0],[0.25,1,0],[0,0.75,0],[0,0.5,0],[0,0.25,0]];shape=mxgraph.bpmn.task;whiteSpace=wrap;rectStyle=rounded;size=10;html=1;container=1;expand=0;collapsible=0;taskMarker=abstract;" parent="ea3MuzoVVC9AlBV81ezA-3" vertex="1">
          <mxGeometry x="3280" y="365" width="120" height="80" as="geometry" />
        </mxCell>
        <mxCell id="rDVSAl7n5NQXXzqdpmjg-7" value="Связаться со складом для проверки наличия товара" style="points=[[0.25,0,0],[0.5,0,0],[0.75,0,0],[1,0.25,0],[1,0.5,0],[1,0.75,0],[0.75,1,0],[0.5,1,0],[0.25,1,0],[0,0.75,0],[0,0.5,0],[0,0.25,0]];shape=mxgraph.bpmn.task;whiteSpace=wrap;rectStyle=rounded;size=10;html=1;container=1;expand=0;collapsible=0;taskMarker=abstract;" parent="ea3MuzoVVC9AlBV81ezA-3" vertex="1">
          <mxGeometry x="3450" y="365" width="120" height="80" as="geometry" />
        </mxCell>
        <mxCell id="m7kHk6N_hKYVxXcOdfyV-4" value="Звонок со склада" style="points=[[0.145,0.145,0],[0.5,0,0],[0.855,0.145,0],[1,0.5,0],[0.855,0.855,0],[0.5,1,0],[0.145,0.855,0],[0,0.5,0]];shape=mxgraph.bpmn.event;html=1;verticalLabelPosition=bottom;labelBackgroundColor=#ffffff;verticalAlign=top;align=center;perimeter=ellipsePerimeter;outlineConnect=0;aspect=fixed;outline=catching;symbol=message;" parent="ea3MuzoVVC9AlBV81ezA-3" vertex="1">
          <mxGeometry x="3660" y="365" width="50" height="50" as="geometry" />
        </mxCell>
        <mxCell id="rDVSAl7n5NQXXzqdpmjg-10" value="Товар в наличие?" style="points=[[0.25,0.25,0],[0.5,0,0],[0.75,0.25,0],[1,0.5,0],[0.75,0.75,0],[0.5,1,0],[0.25,0.75,0],[0,0.5,0]];shape=mxgraph.bpmn.gateway2;html=1;verticalLabelPosition=bottom;labelBackgroundColor=#ffffff;verticalAlign=top;align=center;perimeter=rhombusPerimeter;outlineConnect=0;outline=none;symbol=none;gwType=exclusive;" parent="ea3MuzoVVC9AlBV81ezA-3" vertex="1">
          <mxGeometry x="3830" y="365" width="50" height="50" as="geometry" />
        </mxCell>
        <mxCell id="rDVSAl7n5NQXXzqdpmjg-17" value="Связаться с клиентом" style="points=[[0.25,0,0],[0.5,0,0],[0.75,0,0],[1,0.25,0],[1,0.5,0],[1,0.75,0],[0.75,1,0],[0.5,1,0],[0.25,1,0],[0,0.75,0],[0,0.5,0],[0,0.25,0]];shape=mxgraph.bpmn.task;whiteSpace=wrap;rectStyle=rounded;size=10;html=1;container=1;expand=0;collapsible=0;taskMarker=abstract;" parent="ea3MuzoVVC9AlBV81ezA-3" vertex="1">
          <mxGeometry x="3980" y="395" width="120" height="80" as="geometry" />
        </mxCell>
        <mxCell id="rDVSAl7n5NQXXzqdpmjg-11" value="Узнать статус оплаты заказа" style="points=[[0.25,0,0],[0.5,0,0],[0.75,0,0],[1,0.25,0],[1,0.5,0],[1,0.75,0],[0.75,1,0],[0.5,1,0],[0.25,1,0],[0,0.75,0],[0,0.5,0],[0,0.25,0]];shape=mxgraph.bpmn.task;whiteSpace=wrap;rectStyle=rounded;size=10;html=1;container=1;expand=0;collapsible=0;taskMarker=abstract;" parent="ea3MuzoVVC9AlBV81ezA-3" vertex="1">
          <mxGeometry x="3980" y="275" width="120" height="80" as="geometry" />
        </mxCell>
        <mxCell id="tWP1AcY2Td7ZkM0q6sf4-23" value="Заказ оплачен?" style="points=[[0.25,0.25,0],[0.5,0,0],[0.75,0.25,0],[1,0.5,0],[0.75,0.75,0],[0.5,1,0],[0.25,0.75,0],[0,0.5,0]];shape=mxgraph.bpmn.gateway2;html=1;verticalLabelPosition=bottom;labelBackgroundColor=#ffffff;verticalAlign=top;align=center;perimeter=rhombusPerimeter;outlineConnect=0;outline=none;symbol=none;gwType=exclusive;" parent="ea3MuzoVVC9AlBV81ezA-3" vertex="1">
          <mxGeometry x="4015" y="155" width="50" height="50" as="geometry" />
        </mxCell>
        <mxCell id="tWP1AcY2Td7ZkM0q6sf4-25" value="Отменить заказ" style="points=[[0.25,0,0],[0.5,0,0],[0.75,0,0],[1,0.25,0],[1,0.5,0],[1,0.75,0],[0.75,1,0],[0.5,1,0],[0.25,1,0],[0,0.75,0],[0,0.5,0],[0,0.25,0]];shape=mxgraph.bpmn.task;whiteSpace=wrap;rectStyle=rounded;size=10;html=1;container=1;expand=0;collapsible=0;taskMarker=abstract;" parent="ea3MuzoVVC9AlBV81ezA-3" vertex="1">
          <mxGeometry x="3980" y="15" width="120" height="80" as="geometry" />
        </mxCell>
        <mxCell id="m7kHk6N_hKYVxXcOdfyV-49" value="" style="points=[[0.25,0.25,0],[0.5,0,0],[0.75,0.25,0],[1,0.5,0],[0.75,0.75,0],[0.5,1,0],[0.25,0.75,0],[0,0.5,0]];shape=mxgraph.bpmn.gateway2;html=1;verticalLabelPosition=bottom;labelBackgroundColor=#ffffff;verticalAlign=top;align=center;perimeter=rhombusPerimeter;outlineConnect=0;outline=none;symbol=none;gwType=parallel;" parent="ea3MuzoVVC9AlBV81ezA-3" vertex="1">
          <mxGeometry x="4590" y="230" width="50" height="50" as="geometry" />
        </mxCell>
        <mxCell id="m7kHk6N_hKYVxXcOdfyV-45" value="" style="points=[[0.25,0.25,0],[0.5,0,0],[0.75,0.25,0],[1,0.5,0],[0.75,0.75,0],[0.5,1,0],[0.25,0.75,0],[0,0.5,0]];shape=mxgraph.bpmn.gateway2;html=1;verticalLabelPosition=bottom;labelBackgroundColor=#ffffff;verticalAlign=top;align=center;perimeter=rhombusPerimeter;outlineConnect=0;outline=none;symbol=none;gwType=parallel;" parent="ea3MuzoVVC9AlBV81ezA-3" vertex="1">
          <mxGeometry x="4340" y="230" width="50" height="50" as="geometry" />
        </mxCell>
        <mxCell id="m7kHk6N_hKYVxXcOdfyV-10" style="edgeStyle=orthogonalEdgeStyle;rounded=0;orthogonalLoop=1;jettySize=auto;html=1;entryX=0;entryY=0.5;entryDx=0;entryDy=0;entryPerimeter=0;exitX=0.5;exitY=0;exitDx=0;exitDy=0;exitPerimeter=0;" parent="ea3MuzoVVC9AlBV81ezA-3" source="m7kHk6N_hKYVxXcOdfyV-7" target="m7kHk6N_hKYVxXcOdfyV-45" edge="1">
          <mxGeometry relative="1" as="geometry" />
        </mxCell>
        <mxCell id="m7kHk6N_hKYVxXcOdfyV-11" value="Да" style="edgeLabel;html=1;align=center;verticalAlign=middle;resizable=0;points=[];" parent="m7kHk6N_hKYVxXcOdfyV-10" vertex="1" connectable="0">
          <mxGeometry x="-0.2168" relative="1" as="geometry">
            <mxPoint y="3" as="offset" />
          </mxGeometry>
        </mxCell>
        <mxCell id="m7kHk6N_hKYVxXcOdfyV-9" value="Подтвердить заказ" style="points=[[0.25,0,0],[0.5,0,0],[0.75,0,0],[1,0.25,0],[1,0.5,0],[1,0.75,0],[0.75,1,0],[0.5,1,0],[0.25,1,0],[0,0.75,0],[0,0.5,0],[0,0.25,0]];shape=mxgraph.bpmn.task;whiteSpace=wrap;rectStyle=rounded;size=10;html=1;container=1;expand=0;collapsible=0;taskMarker=abstract;" parent="ea3MuzoVVC9AlBV81ezA-3" vertex="1">
          <mxGeometry x="4430" y="280" width="120" height="80" as="geometry" />
        </mxCell>
        <mxCell id="m7kHk6N_hKYVxXcOdfyV-51" style="edgeStyle=orthogonalEdgeStyle;rounded=0;orthogonalLoop=1;jettySize=auto;html=1;entryX=0.5;entryY=1;entryDx=0;entryDy=0;entryPerimeter=0;" parent="ea3MuzoVVC9AlBV81ezA-3" source="m7kHk6N_hKYVxXcOdfyV-9" target="m7kHk6N_hKYVxXcOdfyV-49" edge="1">
          <mxGeometry relative="1" as="geometry" />
        </mxCell>
        <mxCell id="m7kHk6N_hKYVxXcOdfyV-14" value="Переместить заказ в папку &quot;Досогласовать&quot;" style="points=[[0.25,0,0],[0.5,0,0],[0.75,0,0],[1,0.25,0],[1,0.5,0],[1,0.75,0],[0.75,1,0],[0.5,1,0],[0.25,1,0],[0,0.75,0],[0,0.5,0],[0,0.25,0]];shape=mxgraph.bpmn.task;whiteSpace=wrap;rectStyle=rounded;size=10;html=1;container=1;expand=0;collapsible=0;taskMarker=abstract;" parent="ea3MuzoVVC9AlBV81ezA-3" vertex="1">
          <mxGeometry x="4430" y="395" width="120" height="80" as="geometry" />
        </mxCell>
        <mxCell id="m7kHk6N_hKYVxXcOdfyV-47" style="edgeStyle=orthogonalEdgeStyle;rounded=0;orthogonalLoop=1;jettySize=auto;html=1;entryX=0;entryY=0.5;entryDx=0;entryDy=0;entryPerimeter=0;exitX=0.5;exitY=1;exitDx=0;exitDy=0;exitPerimeter=0;" parent="ea3MuzoVVC9AlBV81ezA-3" source="m7kHk6N_hKYVxXcOdfyV-45" target="m7kHk6N_hKYVxXcOdfyV-9" edge="1">
          <mxGeometry relative="1" as="geometry" />
        </mxCell>
        <mxCell id="m7kHk6N_hKYVxXcOdfyV-7" value="Удалось связаться&lt;div&gt;с клиентом?&lt;/div&gt;" style="points=[[0.25,0.25,0],[0.5,0,0],[0.75,0.25,0],[1,0.5,0],[0.75,0.75,0],[0.5,1,0],[0.25,0.75,0],[0,0.5,0]];shape=mxgraph.bpmn.gateway2;html=1;verticalLabelPosition=bottom;labelBackgroundColor=#ffffff;verticalAlign=top;align=center;perimeter=rhombusPerimeter;outlineConnect=0;outline=none;symbol=none;gwType=exclusive;" parent="ea3MuzoVVC9AlBV81ezA-3" vertex="1">
          <mxGeometry x="4250" y="410" width="50" height="50" as="geometry" />
        </mxCell>
        <mxCell id="m7kHk6N_hKYVxXcOdfyV-46" value="Переместить заказ в папку &quot;На отгруз&quot;" style="points=[[0.25,0,0],[0.5,0,0],[0.75,0,0],[1,0.25,0],[1,0.5,0],[1,0.75,0],[0.75,1,0],[0.5,1,0],[0.25,1,0],[0,0.75,0],[0,0.5,0],[0,0.25,0]];shape=mxgraph.bpmn.task;whiteSpace=wrap;rectStyle=rounded;size=10;html=1;container=1;expand=0;collapsible=0;taskMarker=abstract;" parent="ea3MuzoVVC9AlBV81ezA-3" vertex="1">
          <mxGeometry x="4430" y="155" width="120" height="80" as="geometry" />
        </mxCell>
        <mxCell id="m7kHk6N_hKYVxXcOdfyV-50" style="edgeStyle=orthogonalEdgeStyle;rounded=0;orthogonalLoop=1;jettySize=auto;html=1;entryX=0.5;entryY=0;entryDx=0;entryDy=0;entryPerimeter=0;" parent="ea3MuzoVVC9AlBV81ezA-3" source="m7kHk6N_hKYVxXcOdfyV-46" target="m7kHk6N_hKYVxXcOdfyV-49" edge="1">
          <mxGeometry relative="1" as="geometry" />
        </mxCell>
        <mxCell id="m7kHk6N_hKYVxXcOdfyV-48" style="edgeStyle=orthogonalEdgeStyle;rounded=0;orthogonalLoop=1;jettySize=auto;html=1;entryX=0;entryY=0.5;entryDx=0;entryDy=0;entryPerimeter=0;exitX=0.5;exitY=0;exitDx=0;exitDy=0;exitPerimeter=0;" parent="ea3MuzoVVC9AlBV81ezA-3" source="m7kHk6N_hKYVxXcOdfyV-45" target="m7kHk6N_hKYVxXcOdfyV-46" edge="1">
          <mxGeometry relative="1" as="geometry" />
        </mxCell>
        <mxCell id="ea3MuzoVVC9AlBV81ezA-1" value="Клиент" style="swimlane;html=1;startSize=20;fontStyle=0;collapsible=0;horizontal=0;swimlaneLine=1;swimlaneFillColor=#ffffff;strokeWidth=2;whiteSpace=wrap;" parent="1" vertex="1">
          <mxGeometry x="190" y="-20" width="5550" height="590" as="geometry" />
        </mxCell>
        <mxCell id="ea3MuzoVVC9AlBV81ezA-4" value="Возникла потребность&amp;nbsp;&lt;div&gt;в покупке&amp;nbsp;&lt;/div&gt;&lt;div&gt;стройматериалов&lt;/div&gt;" style="points=[[0.145,0.145,0],[0.5,0,0],[0.855,0.145,0],[1,0.5,0],[0.855,0.855,0],[0.5,1,0],[0.145,0.855,0],[0,0.5,0]];shape=mxgraph.bpmn.event;html=1;verticalLabelPosition=bottom;labelBackgroundColor=#ffffff;verticalAlign=top;align=center;perimeter=ellipsePerimeter;outlineConnect=0;aspect=fixed;outline=standard;symbol=general;strokeColor=#28C75D;" parent="ea3MuzoVVC9AlBV81ezA-1" vertex="1">
          <mxGeometry x="70" y="295" width="50" height="50" as="geometry" />
        </mxCell>
        <mxCell id="ea3MuzoVVC9AlBV81ezA-8" style="edgeStyle=orthogonalEdgeStyle;rounded=0;orthogonalLoop=1;jettySize=auto;html=1;" parent="ea3MuzoVVC9AlBV81ezA-1" source="ea3MuzoVVC9AlBV81ezA-5" target="ea3MuzoVVC9AlBV81ezA-7" edge="1">
          <mxGeometry relative="1" as="geometry" />
        </mxCell>
        <mxCell id="ea3MuzoVVC9AlBV81ezA-5" value="Зайти на сайт &quot;Переделкино&quot;" style="points=[[0.25,0,0],[0.5,0,0],[0.75,0,0],[1,0.25,0],[1,0.5,0],[1,0.75,0],[0.75,1,0],[0.5,1,0],[0.25,1,0],[0,0.75,0],[0,0.5,0],[0,0.25,0]];shape=mxgraph.bpmn.task;whiteSpace=wrap;rectStyle=rounded;size=10;html=1;container=1;expand=0;collapsible=0;taskMarker=abstract;" parent="ea3MuzoVVC9AlBV81ezA-1" vertex="1">
          <mxGeometry x="190" y="280" width="120" height="80" as="geometry" />
        </mxCell>
        <mxCell id="ea3MuzoVVC9AlBV81ezA-6" style="edgeStyle=orthogonalEdgeStyle;rounded=0;orthogonalLoop=1;jettySize=auto;html=1;entryX=0;entryY=0.5;entryDx=0;entryDy=0;entryPerimeter=0;" parent="ea3MuzoVVC9AlBV81ezA-1" source="ea3MuzoVVC9AlBV81ezA-4" target="ea3MuzoVVC9AlBV81ezA-5" edge="1">
          <mxGeometry relative="1" as="geometry" />
        </mxCell>
        <mxCell id="ea3MuzoVVC9AlBV81ezA-7" value="Открыть каталог товаров" style="points=[[0.25,0,0],[0.5,0,0],[0.75,0,0],[1,0.25,0],[1,0.5,0],[1,0.75,0],[0.75,1,0],[0.5,1,0],[0.25,1,0],[0,0.75,0],[0,0.5,0],[0,0.25,0]];shape=mxgraph.bpmn.task;whiteSpace=wrap;rectStyle=rounded;size=10;html=1;container=1;expand=0;collapsible=0;taskMarker=abstract;" parent="ea3MuzoVVC9AlBV81ezA-1" vertex="1">
          <mxGeometry x="380" y="280" width="120" height="80" as="geometry" />
        </mxCell>
        <mxCell id="ea3MuzoVVC9AlBV81ezA-9" value="Просмотр необходимых товаров" style="points=[[0.25,0,0],[0.5,0,0],[0.75,0,0],[1,0.25,0],[1,0.5,0],[1,0.75,0],[0.75,1,0],[0.5,1,0],[0.25,1,0],[0,0.75,0],[0,0.5,0],[0,0.25,0]];shape=mxgraph.bpmn.task;whiteSpace=wrap;rectStyle=rounded;size=10;html=1;container=1;expand=0;collapsible=0;taskMarker=abstract;" parent="ea3MuzoVVC9AlBV81ezA-1" vertex="1">
          <mxGeometry x="570" y="280" width="120" height="80" as="geometry" />
        </mxCell>
        <mxCell id="ea3MuzoVVC9AlBV81ezA-10" style="edgeStyle=orthogonalEdgeStyle;rounded=0;orthogonalLoop=1;jettySize=auto;html=1;entryX=0;entryY=0.5;entryDx=0;entryDy=0;entryPerimeter=0;" parent="ea3MuzoVVC9AlBV81ezA-1" source="ea3MuzoVVC9AlBV81ezA-7" target="ea3MuzoVVC9AlBV81ezA-9" edge="1">
          <mxGeometry relative="1" as="geometry" />
        </mxCell>
        <mxCell id="ea3MuzoVVC9AlBV81ezA-16" style="edgeStyle=orthogonalEdgeStyle;rounded=0;orthogonalLoop=1;jettySize=auto;html=1;" parent="ea3MuzoVVC9AlBV81ezA-1" source="ea3MuzoVVC9AlBV81ezA-13" target="ea3MuzoVVC9AlBV81ezA-15" edge="1">
          <mxGeometry relative="1" as="geometry" />
        </mxCell>
        <mxCell id="ea3MuzoVVC9AlBV81ezA-17" value="Нет" style="edgeLabel;html=1;align=center;verticalAlign=middle;resizable=0;points=[];" parent="ea3MuzoVVC9AlBV81ezA-16" vertex="1" connectable="0">
          <mxGeometry x="-0.4387" y="-3" relative="1" as="geometry">
            <mxPoint as="offset" />
          </mxGeometry>
        </mxCell>
        <mxCell id="ea3MuzoVVC9AlBV81ezA-19" style="edgeStyle=orthogonalEdgeStyle;rounded=0;orthogonalLoop=1;jettySize=auto;html=1;exitX=1;exitY=0.5;exitDx=0;exitDy=0;exitPerimeter=0;entryX=0;entryY=0.5;entryDx=0;entryDy=0;entryPerimeter=0;" parent="ea3MuzoVVC9AlBV81ezA-1" source="ea3MuzoVVC9AlBV81ezA-13" target="ea3MuzoVVC9AlBV81ezA-18" edge="1">
          <mxGeometry relative="1" as="geometry">
            <Array as="points">
              <mxPoint x="840" y="320" />
              <mxPoint x="840" y="320" />
            </Array>
          </mxGeometry>
        </mxCell>
        <mxCell id="ea3MuzoVVC9AlBV81ezA-20" value="Да" style="edgeLabel;html=1;align=center;verticalAlign=middle;resizable=0;points=[];" parent="ea3MuzoVVC9AlBV81ezA-19" vertex="1" connectable="0">
          <mxGeometry x="-0.0163" y="-1" relative="1" as="geometry">
            <mxPoint x="-14" y="-1" as="offset" />
          </mxGeometry>
        </mxCell>
        <mxCell id="ea3MuzoVVC9AlBV81ezA-13" value="Товар найден?" style="points=[[0.25,0.25,0],[0.5,0,0],[0.75,0.25,0],[1,0.5,0],[0.75,0.75,0],[0.5,1,0],[0.25,0.75,0],[0,0.5,0]];shape=mxgraph.bpmn.gateway2;html=1;verticalLabelPosition=bottom;labelBackgroundColor=#ffffff;verticalAlign=top;align=center;perimeter=rhombusPerimeter;outlineConnect=0;outline=none;symbol=none;gwType=exclusive;" parent="ea3MuzoVVC9AlBV81ezA-1" vertex="1">
          <mxGeometry x="760" y="295" width="50" height="50" as="geometry" />
        </mxCell>
        <mxCell id="ea3MuzoVVC9AlBV81ezA-14" style="edgeStyle=orthogonalEdgeStyle;rounded=0;orthogonalLoop=1;jettySize=auto;html=1;entryX=0;entryY=0.5;entryDx=0;entryDy=0;entryPerimeter=0;" parent="ea3MuzoVVC9AlBV81ezA-1" source="ea3MuzoVVC9AlBV81ezA-9" target="ea3MuzoVVC9AlBV81ezA-13" edge="1">
          <mxGeometry relative="1" as="geometry" />
        </mxCell>
        <mxCell id="ea3MuzoVVC9AlBV81ezA-15" value="Товар не куплен" style="points=[[0.145,0.145,0],[0.5,0,0],[0.855,0.145,0],[1,0.5,0],[0.855,0.855,0],[0.5,1,0],[0.145,0.855,0],[0,0.5,0]];shape=mxgraph.bpmn.event;html=1;verticalLabelPosition=bottom;labelBackgroundColor=#ffffff;verticalAlign=top;align=center;perimeter=ellipsePerimeter;outlineConnect=0;aspect=fixed;outline=end;symbol=terminate2;strokeColor=#FF0000;" parent="ea3MuzoVVC9AlBV81ezA-1" vertex="1">
          <mxGeometry x="760" y="180" width="50" height="50" as="geometry" />
        </mxCell>
        <mxCell id="ea3MuzoVVC9AlBV81ezA-23" style="edgeStyle=orthogonalEdgeStyle;rounded=0;orthogonalLoop=1;jettySize=auto;html=1;" parent="ea3MuzoVVC9AlBV81ezA-1" source="ea3MuzoVVC9AlBV81ezA-18" target="ea3MuzoVVC9AlBV81ezA-22" edge="1">
          <mxGeometry relative="1" as="geometry" />
        </mxCell>
        <mxCell id="ea3MuzoVVC9AlBV81ezA-18" value="Добавить товар в корзину" style="points=[[0.25,0,0],[0.5,0,0],[0.75,0,0],[1,0.25,0],[1,0.5,0],[1,0.75,0],[0.75,1,0],[0.5,1,0],[0.25,1,0],[0,0.75,0],[0,0.5,0],[0,0.25,0]];shape=mxgraph.bpmn.task;whiteSpace=wrap;rectStyle=rounded;size=10;html=1;container=1;expand=0;collapsible=0;taskMarker=abstract;" parent="ea3MuzoVVC9AlBV81ezA-1" vertex="1">
          <mxGeometry x="890" y="280" width="120" height="80" as="geometry" />
        </mxCell>
        <mxCell id="ea3MuzoVVC9AlBV81ezA-25" style="edgeStyle=orthogonalEdgeStyle;rounded=0;orthogonalLoop=1;jettySize=auto;html=1;" parent="ea3MuzoVVC9AlBV81ezA-1" source="ea3MuzoVVC9AlBV81ezA-22" target="ea3MuzoVVC9AlBV81ezA-24" edge="1">
          <mxGeometry relative="1" as="geometry" />
        </mxCell>
        <mxCell id="ea3MuzoVVC9AlBV81ezA-22" value="Переход в корзину" style="points=[[0.25,0,0],[0.5,0,0],[0.75,0,0],[1,0.25,0],[1,0.5,0],[1,0.75,0],[0.75,1,0],[0.5,1,0],[0.25,1,0],[0,0.75,0],[0,0.5,0],[0,0.25,0]];shape=mxgraph.bpmn.task;whiteSpace=wrap;rectStyle=rounded;size=10;html=1;container=1;expand=0;collapsible=0;taskMarker=abstract;" parent="ea3MuzoVVC9AlBV81ezA-1" vertex="1">
          <mxGeometry x="1070" y="280" width="120" height="80" as="geometry" />
        </mxCell>
        <mxCell id="ea3MuzoVVC9AlBV81ezA-24" value="Изменить кол-во&amp;nbsp;&lt;div&gt;товаров в корзине?&lt;/div&gt;" style="points=[[0.25,0.25,0],[0.5,0,0],[0.75,0.25,0],[1,0.5,0],[0.75,0.75,0],[0.5,1,0],[0.25,0.75,0],[0,0.5,0]];shape=mxgraph.bpmn.gateway2;html=1;verticalLabelPosition=bottom;labelBackgroundColor=#ffffff;verticalAlign=top;align=center;perimeter=rhombusPerimeter;outlineConnect=0;outline=none;symbol=none;gwType=exclusive;" parent="ea3MuzoVVC9AlBV81ezA-1" vertex="1">
          <mxGeometry x="1260" y="295" width="50" height="50" as="geometry" />
        </mxCell>
        <mxCell id="ea3MuzoVVC9AlBV81ezA-27" style="edgeStyle=orthogonalEdgeStyle;rounded=0;orthogonalLoop=1;jettySize=auto;html=1;entryX=0;entryY=0.5;entryDx=0;entryDy=0;entryPerimeter=0;" parent="ea3MuzoVVC9AlBV81ezA-1" source="ea3MuzoVVC9AlBV81ezA-24" target="tWP1AcY2Td7ZkM0q6sf4-3" edge="1">
          <mxGeometry relative="1" as="geometry">
            <mxPoint x="1285" y="239.9999999999999" as="targetPoint" />
          </mxGeometry>
        </mxCell>
        <mxCell id="ea3MuzoVVC9AlBV81ezA-28" value="Да" style="edgeLabel;html=1;align=center;verticalAlign=middle;resizable=0;points=[];" parent="ea3MuzoVVC9AlBV81ezA-27" vertex="1" connectable="0">
          <mxGeometry x="-0.3961" y="2" relative="1" as="geometry">
            <mxPoint x="2" y="-8" as="offset" />
          </mxGeometry>
        </mxCell>
        <mxCell id="ea3MuzoVVC9AlBV81ezA-36" style="edgeStyle=orthogonalEdgeStyle;rounded=0;orthogonalLoop=1;jettySize=auto;html=1;" parent="ea3MuzoVVC9AlBV81ezA-1" source="ea3MuzoVVC9AlBV81ezA-31" target="ea3MuzoVVC9AlBV81ezA-35" edge="1">
          <mxGeometry relative="1" as="geometry" />
        </mxCell>
        <mxCell id="ea3MuzoVVC9AlBV81ezA-31" value="Перейти к оплате" style="points=[[0.25,0,0],[0.5,0,0],[0.75,0,0],[1,0.25,0],[1,0.5,0],[1,0.75,0],[0.75,1,0],[0.5,1,0],[0.25,1,0],[0,0.75,0],[0,0.5,0],[0,0.25,0]];shape=mxgraph.bpmn.task;whiteSpace=wrap;rectStyle=rounded;size=10;html=1;container=1;expand=0;collapsible=0;taskMarker=abstract;" parent="ea3MuzoVVC9AlBV81ezA-1" vertex="1">
          <mxGeometry x="1580" y="280" width="120" height="80" as="geometry" />
        </mxCell>
        <mxCell id="ea3MuzoVVC9AlBV81ezA-33" style="edgeStyle=orthogonalEdgeStyle;rounded=0;orthogonalLoop=1;jettySize=auto;html=1;entryX=0;entryY=0.5;entryDx=0;entryDy=0;entryPerimeter=0;" parent="ea3MuzoVVC9AlBV81ezA-1" source="ea3MuzoVVC9AlBV81ezA-24" target="ea3MuzoVVC9AlBV81ezA-31" edge="1">
          <mxGeometry relative="1" as="geometry" />
        </mxCell>
        <mxCell id="ea3MuzoVVC9AlBV81ezA-34" value="Нет" style="edgeLabel;html=1;align=center;verticalAlign=middle;resizable=0;points=[];" parent="ea3MuzoVVC9AlBV81ezA-33" vertex="1" connectable="0">
          <mxGeometry x="0.098" relative="1" as="geometry">
            <mxPoint x="-8" as="offset" />
          </mxGeometry>
        </mxCell>
        <mxCell id="tWP1AcY2Td7ZkM0q6sf4-14" style="edgeStyle=orthogonalEdgeStyle;rounded=0;orthogonalLoop=1;jettySize=auto;html=1;" parent="ea3MuzoVVC9AlBV81ezA-1" source="ea3MuzoVVC9AlBV81ezA-35" target="tWP1AcY2Td7ZkM0q6sf4-10" edge="1">
          <mxGeometry relative="1" as="geometry" />
        </mxCell>
        <mxCell id="ea3MuzoVVC9AlBV81ezA-35" value="Выбрать способ оплаты" style="points=[[0.25,0,0],[0.5,0,0],[0.75,0,0],[1,0.25,0],[1,0.5,0],[1,0.75,0],[0.75,1,0],[0.5,1,0],[0.25,1,0],[0,0.75,0],[0,0.5,0],[0,0.25,0]];shape=mxgraph.bpmn.task;whiteSpace=wrap;rectStyle=rounded;size=10;html=1;container=1;expand=0;collapsible=0;taskMarker=abstract;" parent="ea3MuzoVVC9AlBV81ezA-1" vertex="1">
          <mxGeometry x="1740" y="280" width="120" height="80" as="geometry" />
        </mxCell>
        <mxCell id="ea3MuzoVVC9AlBV81ezA-53" value="" style="edgeStyle=orthogonalEdgeStyle;rounded=0;orthogonalLoop=1;jettySize=auto;html=1;" parent="ea3MuzoVVC9AlBV81ezA-1" source="ea3MuzoVVC9AlBV81ezA-50" target="ea3MuzoVVC9AlBV81ezA-52" edge="1">
          <mxGeometry relative="1" as="geometry" />
        </mxCell>
        <mxCell id="ea3MuzoVVC9AlBV81ezA-55" style="edgeStyle=orthogonalEdgeStyle;rounded=0;orthogonalLoop=1;jettySize=auto;html=1;" parent="ea3MuzoVVC9AlBV81ezA-1" source="ea3MuzoVVC9AlBV81ezA-52" target="ea3MuzoVVC9AlBV81ezA-54" edge="1">
          <mxGeometry relative="1" as="geometry" />
        </mxCell>
        <mxCell id="ea3MuzoVVC9AlBV81ezA-56" value="Нет" style="edgeLabel;html=1;align=center;verticalAlign=middle;resizable=0;points=[];" parent="ea3MuzoVVC9AlBV81ezA-55" vertex="1" connectable="0">
          <mxGeometry x="-0.2835" y="-2" relative="1" as="geometry">
            <mxPoint as="offset" />
          </mxGeometry>
        </mxCell>
        <mxCell id="ea3MuzoVVC9AlBV81ezA-61" style="edgeStyle=orthogonalEdgeStyle;rounded=0;orthogonalLoop=1;jettySize=auto;html=1;" parent="ea3MuzoVVC9AlBV81ezA-1" source="ea3MuzoVVC9AlBV81ezA-57" target="ea3MuzoVVC9AlBV81ezA-60" edge="1">
          <mxGeometry relative="1" as="geometry" />
        </mxCell>
        <mxCell id="ea3MuzoVVC9AlBV81ezA-58" style="edgeStyle=orthogonalEdgeStyle;rounded=0;orthogonalLoop=1;jettySize=auto;html=1;entryX=0;entryY=0.5;entryDx=0;entryDy=0;entryPerimeter=0;" parent="ea3MuzoVVC9AlBV81ezA-1" source="ea3MuzoVVC9AlBV81ezA-52" target="ea3MuzoVVC9AlBV81ezA-57" edge="1">
          <mxGeometry relative="1" as="geometry" />
        </mxCell>
        <mxCell id="ea3MuzoVVC9AlBV81ezA-59" value="Да" style="edgeLabel;html=1;align=center;verticalAlign=middle;resizable=0;points=[];" parent="ea3MuzoVVC9AlBV81ezA-58" vertex="1" connectable="0">
          <mxGeometry x="-0.3878" y="1" relative="1" as="geometry">
            <mxPoint as="offset" />
          </mxGeometry>
        </mxCell>
        <mxCell id="ea3MuzoVVC9AlBV81ezA-63" style="edgeStyle=orthogonalEdgeStyle;rounded=0;orthogonalLoop=1;jettySize=auto;html=1;entryX=0;entryY=0.5;entryDx=0;entryDy=0;entryPerimeter=0;" parent="ea3MuzoVVC9AlBV81ezA-1" source="ea3MuzoVVC9AlBV81ezA-60" target="ea3MuzoVVC9AlBV81ezA-62" edge="1">
          <mxGeometry relative="1" as="geometry" />
        </mxCell>
        <mxCell id="tWP1AcY2Td7ZkM0q6sf4-1" value="Уменьшить кол-во" style="points=[[0.25,0,0],[0.5,0,0],[0.75,0,0],[1,0.25,0],[1,0.5,0],[1,0.75,0],[0.75,1,0],[0.5,1,0],[0.25,1,0],[0,0.75,0],[0,0.5,0],[0,0.25,0]];shape=mxgraph.bpmn.task;whiteSpace=wrap;rectStyle=rounded;size=10;html=1;container=1;expand=0;collapsible=0;taskMarker=abstract;" parent="ea3MuzoVVC9AlBV81ezA-1" vertex="1">
          <mxGeometry x="1380" y="150" width="120" height="80" as="geometry" />
        </mxCell>
        <mxCell id="tWP1AcY2Td7ZkM0q6sf4-2" value="Увеличить кол-во" style="points=[[0.25,0,0],[0.5,0,0],[0.75,0,0],[1,0.25,0],[1,0.5,0],[1,0.75,0],[0.75,1,0],[0.5,1,0],[0.25,1,0],[0,0.75,0],[0,0.5,0],[0,0.25,0]];shape=mxgraph.bpmn.task;whiteSpace=wrap;rectStyle=rounded;size=10;html=1;container=1;expand=0;collapsible=0;taskMarker=abstract;" parent="ea3MuzoVVC9AlBV81ezA-1" vertex="1">
          <mxGeometry x="1380" y="10" width="120" height="80" as="geometry" />
        </mxCell>
        <mxCell id="tWP1AcY2Td7ZkM0q6sf4-3" value="" style="points=[[0.25,0.25,0],[0.5,0,0],[0.75,0.25,0],[1,0.5,0],[0.75,0.75,0],[0.5,1,0],[0.25,0.75,0],[0,0.5,0]];shape=mxgraph.bpmn.gateway2;html=1;verticalLabelPosition=bottom;labelBackgroundColor=#ffffff;verticalAlign=top;align=center;perimeter=rhombusPerimeter;outlineConnect=0;outline=none;symbol=none;gwType=parallel;" parent="ea3MuzoVVC9AlBV81ezA-1" vertex="1">
          <mxGeometry x="1310" y="100" width="50" height="50" as="geometry" />
        </mxCell>
        <mxCell id="tWP1AcY2Td7ZkM0q6sf4-4" value="" style="points=[[0.25,0.25,0],[0.5,0,0],[0.75,0.25,0],[1,0.5,0],[0.75,0.75,0],[0.5,1,0],[0.25,0.75,0],[0,0.5,0]];shape=mxgraph.bpmn.gateway2;html=1;verticalLabelPosition=bottom;labelBackgroundColor=#ffffff;verticalAlign=top;align=center;perimeter=rhombusPerimeter;outlineConnect=0;outline=none;symbol=none;gwType=parallel;" parent="ea3MuzoVVC9AlBV81ezA-1" vertex="1">
          <mxGeometry x="1520" y="100" width="50" height="50" as="geometry" />
        </mxCell>
        <mxCell id="tWP1AcY2Td7ZkM0q6sf4-5" style="edgeStyle=orthogonalEdgeStyle;rounded=0;orthogonalLoop=1;jettySize=auto;html=1;entryX=0;entryY=0.5;entryDx=0;entryDy=0;entryPerimeter=0;exitX=0.5;exitY=0;exitDx=0;exitDy=0;exitPerimeter=0;" parent="ea3MuzoVVC9AlBV81ezA-1" source="tWP1AcY2Td7ZkM0q6sf4-3" target="tWP1AcY2Td7ZkM0q6sf4-2" edge="1">
          <mxGeometry relative="1" as="geometry" />
        </mxCell>
        <mxCell id="tWP1AcY2Td7ZkM0q6sf4-6" style="edgeStyle=orthogonalEdgeStyle;rounded=0;orthogonalLoop=1;jettySize=auto;html=1;entryX=0;entryY=0.5;entryDx=0;entryDy=0;entryPerimeter=0;exitX=0.5;exitY=1;exitDx=0;exitDy=0;exitPerimeter=0;" parent="ea3MuzoVVC9AlBV81ezA-1" source="tWP1AcY2Td7ZkM0q6sf4-3" target="tWP1AcY2Td7ZkM0q6sf4-1" edge="1">
          <mxGeometry relative="1" as="geometry" />
        </mxCell>
        <mxCell id="tWP1AcY2Td7ZkM0q6sf4-7" style="edgeStyle=orthogonalEdgeStyle;rounded=0;orthogonalLoop=1;jettySize=auto;html=1;entryX=0.5;entryY=0;entryDx=0;entryDy=0;entryPerimeter=0;" parent="ea3MuzoVVC9AlBV81ezA-1" source="tWP1AcY2Td7ZkM0q6sf4-2" target="tWP1AcY2Td7ZkM0q6sf4-4" edge="1">
          <mxGeometry relative="1" as="geometry" />
        </mxCell>
        <mxCell id="tWP1AcY2Td7ZkM0q6sf4-8" style="edgeStyle=orthogonalEdgeStyle;rounded=0;orthogonalLoop=1;jettySize=auto;html=1;entryX=0.5;entryY=1;entryDx=0;entryDy=0;entryPerimeter=0;" parent="ea3MuzoVVC9AlBV81ezA-1" source="tWP1AcY2Td7ZkM0q6sf4-1" target="tWP1AcY2Td7ZkM0q6sf4-4" edge="1">
          <mxGeometry relative="1" as="geometry" />
        </mxCell>
        <mxCell id="tWP1AcY2Td7ZkM0q6sf4-9" style="edgeStyle=orthogonalEdgeStyle;rounded=0;orthogonalLoop=1;jettySize=auto;html=1;entryX=0.5;entryY=0;entryDx=0;entryDy=0;entryPerimeter=0;" parent="ea3MuzoVVC9AlBV81ezA-1" source="tWP1AcY2Td7ZkM0q6sf4-4" target="ea3MuzoVVC9AlBV81ezA-31" edge="1">
          <mxGeometry relative="1" as="geometry" />
        </mxCell>
        <mxCell id="ea3MuzoVVC9AlBV81ezA-50" value="Проверить стоимость заказа" style="points=[[0.25,0,0],[0.5,0,0],[0.75,0,0],[1,0.25,0],[1,0.5,0],[1,0.75,0],[0.75,1,0],[0.5,1,0],[0.25,1,0],[0,0.75,0],[0,0.5,0],[0,0.25,0]];shape=mxgraph.bpmn.task;whiteSpace=wrap;rectStyle=rounded;size=10;html=1;container=1;expand=0;collapsible=0;taskMarker=abstract;" parent="ea3MuzoVVC9AlBV81ezA-1" vertex="1">
          <mxGeometry x="2320" y="280" width="120" height="80" as="geometry" />
        </mxCell>
        <mxCell id="ea3MuzoVVC9AlBV81ezA-54" value="Оформить заказ не удалось" style="points=[[0.145,0.145,0],[0.5,0,0],[0.855,0.145,0],[1,0.5,0],[0.855,0.855,0],[0.5,1,0],[0.145,0.855,0],[0,0.5,0]];shape=mxgraph.bpmn.event;html=1;verticalLabelPosition=bottom;labelBackgroundColor=#ffffff;verticalAlign=top;align=center;perimeter=ellipsePerimeter;outlineConnect=0;aspect=fixed;outline=end;symbol=terminate2;strokeColor=#FF0000;" parent="ea3MuzoVVC9AlBV81ezA-1" vertex="1">
          <mxGeometry x="2510" y="180" width="50" height="50" as="geometry" />
        </mxCell>
        <mxCell id="ea3MuzoVVC9AlBV81ezA-52" value="Сумма заказа больше&lt;div&gt;1000 руб.?&lt;/div&gt;" style="points=[[0.25,0.25,0],[0.5,0,0],[0.75,0.25,0],[1,0.5,0],[0.75,0.75,0],[0.5,1,0],[0.25,0.75,0],[0,0.5,0]];shape=mxgraph.bpmn.gateway2;html=1;verticalLabelPosition=bottom;labelBackgroundColor=#ffffff;verticalAlign=top;align=center;perimeter=rhombusPerimeter;outlineConnect=0;outline=none;symbol=none;gwType=exclusive;" parent="ea3MuzoVVC9AlBV81ezA-1" vertex="1">
          <mxGeometry x="2510" y="295" width="50" height="50" as="geometry" />
        </mxCell>
        <mxCell id="ea3MuzoVVC9AlBV81ezA-57" value="Заполнить личные данные" style="points=[[0.25,0,0],[0.5,0,0],[0.75,0,0],[1,0.25,0],[1,0.5,0],[1,0.75,0],[0.75,1,0],[0.5,1,0],[0.25,1,0],[0,0.75,0],[0,0.5,0],[0,0.25,0]];shape=mxgraph.bpmn.task;whiteSpace=wrap;rectStyle=rounded;size=10;html=1;container=1;expand=0;collapsible=0;taskMarker=abstract;" parent="ea3MuzoVVC9AlBV81ezA-1" vertex="1">
          <mxGeometry x="2645" y="280" width="120" height="80" as="geometry" />
        </mxCell>
        <mxCell id="ea3MuzoVVC9AlBV81ezA-60" value="Оформить заказ" style="points=[[0.25,0,0],[0.5,0,0],[0.75,0,0],[1,0.25,0],[1,0.5,0],[1,0.75,0],[0.75,1,0],[0.5,1,0],[0.25,1,0],[0,0.75,0],[0,0.5,0],[0,0.25,0]];shape=mxgraph.bpmn.task;whiteSpace=wrap;rectStyle=rounded;size=10;html=1;container=1;expand=0;collapsible=0;taskMarker=abstract;" parent="ea3MuzoVVC9AlBV81ezA-1" vertex="1">
          <mxGeometry x="2840" y="280" width="120" height="80" as="geometry" />
        </mxCell>
        <mxCell id="ea3MuzoVVC9AlBV81ezA-62" value="Заказ оформлен" style="points=[[0.145,0.145,0],[0.5,0,0],[0.855,0.145,0],[1,0.5,0],[0.855,0.855,0],[0.5,1,0],[0.145,0.855,0],[0,0.5,0]];shape=mxgraph.bpmn.event;html=1;verticalLabelPosition=bottom;labelBackgroundColor=#ffffff;verticalAlign=top;align=center;perimeter=ellipsePerimeter;outlineConnect=0;aspect=fixed;outline=throwing;symbol=general;strokeColor=#FFA836;" parent="ea3MuzoVVC9AlBV81ezA-1" vertex="1">
          <mxGeometry x="3030" y="295" width="50" height="50" as="geometry" />
        </mxCell>
        <mxCell id="tWP1AcY2Td7ZkM0q6sf4-10" value="" style="points=[[0.25,0.25,0],[0.5,0,0],[0.75,0.25,0],[1,0.5,0],[0.75,0.75,0],[0.5,1,0],[0.25,0.75,0],[0,0.5,0]];shape=mxgraph.bpmn.gateway2;html=1;verticalLabelPosition=bottom;labelBackgroundColor=#ffffff;verticalAlign=top;align=center;perimeter=rhombusPerimeter;outlineConnect=0;outline=none;symbol=none;gwType=exclusive;" parent="ea3MuzoVVC9AlBV81ezA-1" vertex="1">
          <mxGeometry x="1905" y="295" width="50" height="50" as="geometry" />
        </mxCell>
        <mxCell id="tWP1AcY2Td7ZkM0q6sf4-12" value="Выбрать оплату онлайн банковской картой" style="points=[[0.25,0,0],[0.5,0,0],[0.75,0,0],[1,0.25,0],[1,0.5,0],[1,0.75,0],[0.75,1,0],[0.5,1,0],[0.25,1,0],[0,0.75,0],[0,0.5,0],[0,0.25,0]];shape=mxgraph.bpmn.task;whiteSpace=wrap;rectStyle=rounded;size=10;html=1;container=1;expand=0;collapsible=0;taskMarker=abstract;" parent="ea3MuzoVVC9AlBV81ezA-1" vertex="1">
          <mxGeometry x="1870" y="430" width="120" height="80" as="geometry" />
        </mxCell>
        <mxCell id="tWP1AcY2Td7ZkM0q6sf4-16" value="Ошибка&lt;div&gt;(сервер недоступен)&lt;/div&gt;" style="points=[[0.145,0.145,0],[0.5,0,0],[0.855,0.145,0],[1,0.5,0],[0.855,0.855,0],[0.5,1,0],[0.145,0.855,0],[0,0.5,0]];shape=mxgraph.bpmn.event;html=1;verticalLabelPosition=bottom;labelBackgroundColor=#ffffff;verticalAlign=top;align=center;perimeter=ellipsePerimeter;outlineConnect=0;aspect=fixed;outline=boundInt;symbol=error;" parent="tWP1AcY2Td7ZkM0q6sf4-12" vertex="1">
          <mxGeometry x="90" y="50" width="50" height="50" as="geometry" />
        </mxCell>
        <mxCell id="tWP1AcY2Td7ZkM0q6sf4-13" value="" style="points=[[0.25,0.25,0],[0.5,0,0],[0.75,0.25,0],[1,0.5,0],[0.75,0.75,0],[0.5,1,0],[0.25,0.75,0],[0,0.5,0]];shape=mxgraph.bpmn.gateway2;html=1;verticalLabelPosition=bottom;labelBackgroundColor=#ffffff;verticalAlign=top;align=center;perimeter=rhombusPerimeter;outlineConnect=0;outline=none;symbol=none;gwType=exclusive;" parent="ea3MuzoVVC9AlBV81ezA-1" vertex="1">
          <mxGeometry x="2220" y="295" width="50" height="50" as="geometry" />
        </mxCell>
        <mxCell id="tWP1AcY2Td7ZkM0q6sf4-15" style="edgeStyle=orthogonalEdgeStyle;rounded=0;orthogonalLoop=1;jettySize=auto;html=1;entryX=0;entryY=0.5;entryDx=0;entryDy=0;entryPerimeter=0;exitX=1;exitY=0.5;exitDx=0;exitDy=0;exitPerimeter=0;" parent="ea3MuzoVVC9AlBV81ezA-1" source="tWP1AcY2Td7ZkM0q6sf4-10" target="tWP1AcY2Td7ZkM0q6sf4-11" edge="1">
          <mxGeometry relative="1" as="geometry" />
        </mxCell>
        <mxCell id="tWP1AcY2Td7ZkM0q6sf4-17" value="Наличные" style="edgeLabel;html=1;align=center;verticalAlign=middle;resizable=0;points=[];" parent="tWP1AcY2Td7ZkM0q6sf4-15" vertex="1" connectable="0">
          <mxGeometry x="-0.3172" y="2" relative="1" as="geometry">
            <mxPoint x="14" y="2" as="offset" />
          </mxGeometry>
        </mxCell>
        <mxCell id="tWP1AcY2Td7ZkM0q6sf4-11" value="Выбрать оплату наличными при получении" style="points=[[0.25,0,0],[0.5,0,0],[0.75,0,0],[1,0.25,0],[1,0.5,0],[1,0.75,0],[0.75,1,0],[0.5,1,0],[0.25,1,0],[0,0.75,0],[0,0.5,0],[0,0.25,0]];shape=mxgraph.bpmn.task;whiteSpace=wrap;rectStyle=rounded;size=10;html=1;container=1;expand=0;collapsible=0;taskMarker=abstract;" parent="ea3MuzoVVC9AlBV81ezA-1" vertex="1">
          <mxGeometry x="2050" y="280" width="120" height="80" as="geometry" />
        </mxCell>
        <mxCell id="tWP1AcY2Td7ZkM0q6sf4-18" style="edgeStyle=orthogonalEdgeStyle;rounded=0;orthogonalLoop=1;jettySize=auto;html=1;entryX=0.5;entryY=0;entryDx=0;entryDy=0;entryPerimeter=0;exitX=0.5;exitY=1;exitDx=0;exitDy=0;exitPerimeter=0;" parent="ea3MuzoVVC9AlBV81ezA-1" source="tWP1AcY2Td7ZkM0q6sf4-10" target="tWP1AcY2Td7ZkM0q6sf4-12" edge="1">
          <mxGeometry relative="1" as="geometry" />
        </mxCell>
        <mxCell id="tWP1AcY2Td7ZkM0q6sf4-19" value="Банковская&lt;div&gt;карта&lt;/div&gt;" style="edgeLabel;html=1;align=center;verticalAlign=middle;resizable=0;points=[];" parent="tWP1AcY2Td7ZkM0q6sf4-18" vertex="1" connectable="0">
          <mxGeometry x="-0.735" y="2" relative="1" as="geometry">
            <mxPoint x="-2" y="14" as="offset" />
          </mxGeometry>
        </mxCell>
        <mxCell id="tWP1AcY2Td7ZkM0q6sf4-20" style="edgeStyle=orthogonalEdgeStyle;rounded=0;orthogonalLoop=1;jettySize=auto;html=1;entryX=0;entryY=0.5;entryDx=0;entryDy=0;entryPerimeter=0;" parent="ea3MuzoVVC9AlBV81ezA-1" source="tWP1AcY2Td7ZkM0q6sf4-11" target="tWP1AcY2Td7ZkM0q6sf4-13" edge="1">
          <mxGeometry relative="1" as="geometry" />
        </mxCell>
        <mxCell id="tWP1AcY2Td7ZkM0q6sf4-21" style="edgeStyle=orthogonalEdgeStyle;rounded=0;orthogonalLoop=1;jettySize=auto;html=1;entryX=0;entryY=0.5;entryDx=0;entryDy=0;entryPerimeter=0;" parent="ea3MuzoVVC9AlBV81ezA-1" source="tWP1AcY2Td7ZkM0q6sf4-13" target="ea3MuzoVVC9AlBV81ezA-50" edge="1">
          <mxGeometry relative="1" as="geometry" />
        </mxCell>
        <mxCell id="rDVSAl7n5NQXXzqdpmjg-15" value="Заказ отменен" style="points=[[0.145,0.145,0],[0.5,0,0],[0.855,0.145,0],[1,0.5,0],[0.855,0.855,0],[0.5,1,0],[0.145,0.855,0],[0,0.5,0]];shape=mxgraph.bpmn.event;html=1;verticalLabelPosition=bottom;labelBackgroundColor=#ffffff;verticalAlign=top;align=center;perimeter=ellipsePerimeter;outlineConnect=0;aspect=fixed;outline=end;symbol=message;fillColor=#FFFFFF;strokeColor=#FF0000;" parent="ea3MuzoVVC9AlBV81ezA-1" vertex="1">
          <mxGeometry x="4015" y="320" width="50" height="50" as="geometry" />
        </mxCell>
        <mxCell id="m7kHk6N_hKYVxXcOdfyV-31" value="Заказ отменен" style="points=[[0.145,0.145,0],[0.5,0,0],[0.855,0.145,0],[1,0.5,0],[0.855,0.855,0],[0.5,1,0],[0.145,0.855,0],[0,0.5,0]];shape=mxgraph.bpmn.event;html=1;verticalLabelPosition=bottom;labelBackgroundColor=#ffffff;verticalAlign=top;align=center;perimeter=ellipsePerimeter;outlineConnect=0;aspect=fixed;outline=end;symbol=message;fillColor=#FFFFFF;strokeColor=#FF0000;" parent="ea3MuzoVVC9AlBV81ezA-1" vertex="1">
          <mxGeometry x="4740" y="320" width="50" height="50" as="geometry" />
        </mxCell>
        <mxCell id="ea3MuzoVVC9AlBV81ezA-2" value="Склад" style="swimlane;html=1;startSize=20;fontStyle=0;collapsible=0;horizontal=0;swimlaneLine=1;swimlaneFillColor=#ffffff;strokeWidth=2;whiteSpace=wrap;" parent="1" vertex="1">
          <mxGeometry x="190" y="1580" width="5550" height="130" as="geometry" />
        </mxCell>
        <mxCell id="m7kHk6N_hKYVxXcOdfyV-3" style="edgeStyle=orthogonalEdgeStyle;rounded=0;orthogonalLoop=1;jettySize=auto;html=1;entryX=0;entryY=0.5;entryDx=0;entryDy=0;entryPerimeter=0;" parent="ea3MuzoVVC9AlBV81ezA-2" source="m7kHk6N_hKYVxXcOdfyV-1" target="rDVSAl7n5NQXXzqdpmjg-9" edge="1">
          <mxGeometry relative="1" as="geometry" />
        </mxCell>
        <mxCell id="m7kHk6N_hKYVxXcOdfyV-12" value="Заказ&amp;nbsp;&lt;div&gt;подтвержден&lt;/div&gt;" style="points=[[0.145,0.145,0],[0.5,0,0],[0.855,0.145,0],[1,0.5,0],[0.855,0.855,0],[0.5,1,0],[0.145,0.855,0],[0,0.5,0]];shape=mxgraph.bpmn.event;html=1;verticalLabelPosition=bottom;labelBackgroundColor=#ffffff;verticalAlign=top;align=center;perimeter=ellipsePerimeter;outlineConnect=0;aspect=fixed;outline=end;symbol=terminate2;" parent="ea3MuzoVVC9AlBV81ezA-2" vertex="1">
          <mxGeometry x="4640" y="-1280" width="50" height="50" as="geometry" />
        </mxCell>
        <mxCell id="m7kHk6N_hKYVxXcOdfyV-43" value="Заказ&amp;nbsp;&lt;div&gt;подтвержден&lt;/div&gt;" style="points=[[0.145,0.145,0],[0.5,0,0],[0.855,0.145,0],[1,0.5,0],[0.855,0.855,0],[0.5,1,0],[0.145,0.855,0],[0,0.5,0]];shape=mxgraph.bpmn.event;html=1;verticalLabelPosition=bottom;labelBackgroundColor=#ffffff;verticalAlign=top;align=center;perimeter=ellipsePerimeter;outlineConnect=0;aspect=fixed;outline=end;symbol=terminate2;" parent="ea3MuzoVVC9AlBV81ezA-2" vertex="1">
          <mxGeometry x="5420" y="-1265" width="50" height="50" as="geometry" />
        </mxCell>
        <mxCell id="rDVSAl7n5NQXXzqdpmjg-9" value="Проверить наличие товара" style="points=[[0.25,0,0],[0.5,0,0],[0.75,0,0],[1,0.25,0],[1,0.5,0],[1,0.75,0],[0.75,1,0],[0.5,1,0],[0.25,1,0],[0,0.75,0],[0,0.5,0],[0,0.25,0]];shape=mxgraph.bpmn.task;whiteSpace=wrap;rectStyle=rounded;size=10;html=1;container=1;expand=0;collapsible=0;taskMarker=abstract;" parent="ea3MuzoVVC9AlBV81ezA-2" vertex="1">
          <mxGeometry x="3625" y="25" width="120" height="80" as="geometry" />
        </mxCell>
        <mxCell id="m7kHk6N_hKYVxXcOdfyV-1" value="Звонок от&lt;div&gt;администратора&lt;/div&gt;" style="points=[[0.145,0.145,0],[0.5,0,0],[0.855,0.145,0],[1,0.5,0],[0.855,0.855,0],[0.5,1,0],[0.145,0.855,0],[0,0.5,0]];shape=mxgraph.bpmn.event;html=1;verticalLabelPosition=bottom;labelBackgroundColor=#ffffff;verticalAlign=top;align=center;perimeter=ellipsePerimeter;outlineConnect=0;aspect=fixed;outline=catching;symbol=message;" parent="ea3MuzoVVC9AlBV81ezA-2" vertex="1">
          <mxGeometry x="3485" y="40" width="50" height="50" as="geometry" />
        </mxCell>
        <mxCell id="rDVSAl7n5NQXXzqdpmjg-2" style="edgeStyle=orthogonalEdgeStyle;rounded=0;orthogonalLoop=1;jettySize=auto;html=1;" parent="1" source="ea3MuzoVVC9AlBV81ezA-62" target="rDVSAl7n5NQXXzqdpmjg-1" edge="1">
          <mxGeometry relative="1" as="geometry" />
        </mxCell>
        <mxCell id="m7kHk6N_hKYVxXcOdfyV-2" style="edgeStyle=orthogonalEdgeStyle;rounded=0;orthogonalLoop=1;jettySize=auto;html=1;" parent="1" source="rDVSAl7n5NQXXzqdpmjg-7" target="m7kHk6N_hKYVxXcOdfyV-1" edge="1">
          <mxGeometry relative="1" as="geometry" />
        </mxCell>
        <mxCell id="m7kHk6N_hKYVxXcOdfyV-5" style="edgeStyle=orthogonalEdgeStyle;rounded=0;orthogonalLoop=1;jettySize=auto;html=1;" parent="1" source="rDVSAl7n5NQXXzqdpmjg-9" target="m7kHk6N_hKYVxXcOdfyV-4" edge="1">
          <mxGeometry relative="1" as="geometry" />
        </mxCell>
        <mxCell id="tWP1AcY2Td7ZkM0q6sf4-28" style="edgeStyle=orthogonalEdgeStyle;rounded=0;orthogonalLoop=1;jettySize=auto;html=1;" parent="1" source="tWP1AcY2Td7ZkM0q6sf4-25" target="rDVSAl7n5NQXXzqdpmjg-15" edge="1">
          <mxGeometry relative="1" as="geometry" />
        </mxCell>
        <mxCell id="m7kHk6N_hKYVxXcOdfyV-22" style="edgeStyle=orthogonalEdgeStyle;rounded=0;orthogonalLoop=1;jettySize=auto;html=1;" parent="1" source="m7kHk6N_hKYVxXcOdfyV-14" target="m7kHk6N_hKYVxXcOdfyV-21" edge="1">
          <mxGeometry relative="1" as="geometry" />
        </mxCell>
        <mxCell id="m7kHk6N_hKYVxXcOdfyV-62" style="edgeStyle=orthogonalEdgeStyle;rounded=0;orthogonalLoop=1;jettySize=auto;html=1;" parent="1" source="m7kHk6N_hKYVxXcOdfyV-56" target="m7kHk6N_hKYVxXcOdfyV-43" edge="1">
          <mxGeometry relative="1" as="geometry" />
        </mxCell>
        <mxCell id="m7kHk6N_hKYVxXcOdfyV-52" style="edgeStyle=orthogonalEdgeStyle;rounded=0;orthogonalLoop=1;jettySize=auto;html=1;exitX=1;exitY=0.5;exitDx=0;exitDy=0;exitPerimeter=0;" parent="1" source="m7kHk6N_hKYVxXcOdfyV-49" target="m7kHk6N_hKYVxXcOdfyV-12" edge="1">
          <mxGeometry relative="1" as="geometry">
            <mxPoint x="4290" y="710" as="sourcePoint" />
            <mxPoint x="4320" y="570" as="targetPoint" />
          </mxGeometry>
        </mxCell>
        <mxCell id="tWP1AcY2Td7ZkM0q6sf4-29" style="edgeStyle=orthogonalEdgeStyle;rounded=0;orthogonalLoop=1;jettySize=auto;html=1;entryX=0.5;entryY=1;entryDx=0;entryDy=0;entryPerimeter=0;" parent="1" source="tWP1AcY2Td7ZkM0q6sf4-23" target="tWP1AcY2Td7ZkM0q6sf4-32" edge="1">
          <mxGeometry relative="1" as="geometry">
            <mxPoint x="4390" y="1440" as="targetPoint" />
            <Array as="points">
              <mxPoint x="4360" y="750" />
              <mxPoint x="4360" y="1300" />
              <mxPoint x="4955" y="1300" />
            </Array>
          </mxGeometry>
        </mxCell>
        <mxCell id="tWP1AcY2Td7ZkM0q6sf4-30" value="Да" style="edgeLabel;html=1;align=center;verticalAlign=middle;resizable=0;points=[];" parent="tWP1AcY2Td7ZkM0q6sf4-29" vertex="1" connectable="0">
          <mxGeometry x="-0.8875" relative="1" as="geometry">
            <mxPoint x="-1" as="offset" />
          </mxGeometry>
        </mxCell>
        <mxCell id="tWP1AcY2Td7ZkM0q6sf4-38" style="edgeStyle=orthogonalEdgeStyle;rounded=0;orthogonalLoop=1;jettySize=auto;html=1;" parent="1" source="tWP1AcY2Td7ZkM0q6sf4-35" target="m7kHk6N_hKYVxXcOdfyV-31" edge="1">
          <mxGeometry relative="1" as="geometry" />
        </mxCell>
      </root>
    </mxGraphModel>
  </diagram>
  <diagram id="kBAeOlLlk3wS2EU2OFAn" name="TO BE">
    <mxGraphModel dx="1616" dy="2411" grid="1" gridSize="10" guides="1" tooltips="1" connect="1" arrows="1" fold="1" page="1" pageScale="1" pageWidth="827" pageHeight="1169" math="0" shadow="0">
      <root>
        <mxCell id="0" />
        <mxCell id="1" parent="0" />
        <mxCell id="UvdeKC0Y37y8ZbVcoKJx-59" value="Система (Сайт)" style="swimlane;html=1;startSize=20;fontStyle=0;collapsible=0;horizontal=0;swimlaneLine=1;swimlaneFillColor=#ffffff;strokeWidth=2;whiteSpace=wrap;" parent="1" vertex="1">
          <mxGeometry x="2670" y="920" width="7720" height="560" as="geometry" />
        </mxCell>
        <mxCell id="UvdeKC0Y37y8ZbVcoKJx-60" value="Рассчет суммы заказа" style="points=[[0.25,0,0],[0.5,0,0],[0.75,0,0],[1,0.25,0],[1,0.5,0],[1,0.75,0],[0.75,1,0],[0.5,1,0],[0.25,1,0],[0,0.75,0],[0,0.5,0],[0,0.25,0]];shape=mxgraph.bpmn.task;whiteSpace=wrap;rectStyle=rounded;size=10;html=1;container=1;expand=0;collapsible=0;taskMarker=service;" parent="UvdeKC0Y37y8ZbVcoKJx-59" vertex="1">
          <mxGeometry x="1425" y="140" width="120" height="80" as="geometry" />
        </mxCell>
        <mxCell id="fSqYz0-swasJqL_hSOi8-7" style="edgeStyle=orthogonalEdgeStyle;rounded=0;orthogonalLoop=1;jettySize=auto;html=1;entryX=0;entryY=0.5;entryDx=0;entryDy=0;entryPerimeter=0;" parent="UvdeKC0Y37y8ZbVcoKJx-59" source="fSqYz0-swasJqL_hSOi8-1" target="fSqYz0-swasJqL_hSOi8-16" edge="1">
          <mxGeometry relative="1" as="geometry">
            <mxPoint x="1980" y="230" as="targetPoint" />
          </mxGeometry>
        </mxCell>
        <mxCell id="fSqYz0-swasJqL_hSOi8-9" value="Сумма более&amp;nbsp;&lt;div&gt;1000 руб.&lt;/div&gt;" style="edgeLabel;html=1;align=center;verticalAlign=middle;resizable=0;points=[];" parent="fSqYz0-swasJqL_hSOi8-7" vertex="1" connectable="0">
          <mxGeometry x="0.0136" y="1" relative="1" as="geometry">
            <mxPoint x="-6" y="1" as="offset" />
          </mxGeometry>
        </mxCell>
        <mxCell id="fSqYz0-swasJqL_hSOi8-1" value="" style="points=[[0.25,0.25,0],[0.5,0,0],[0.75,0.25,0],[1,0.5,0],[0.75,0.75,0],[0.5,1,0],[0.25,0.75,0],[0,0.5,0]];shape=mxgraph.bpmn.gateway2;html=1;verticalLabelPosition=bottom;labelBackgroundColor=#ffffff;verticalAlign=top;align=center;perimeter=rhombusPerimeter;outlineConnect=0;outline=none;symbol=none;gwType=exclusive;" parent="UvdeKC0Y37y8ZbVcoKJx-59" vertex="1">
          <mxGeometry x="2229.5" y="155" width="50" height="50" as="geometry" />
        </mxCell>
        <mxCell id="fSqYz0-swasJqL_hSOi8-16" value="Разрешить переход к оплате" style="points=[[0.25,0,0],[0.5,0,0],[0.75,0,0],[1,0.25,0],[1,0.5,0],[1,0.75,0],[0.75,1,0],[0.5,1,0],[0.25,1,0],[0,0.75,0],[0,0.5,0],[0,0.25,0]];shape=mxgraph.bpmn.task;whiteSpace=wrap;rectStyle=rounded;size=10;html=1;container=1;expand=0;collapsible=0;taskMarker=service;" parent="UvdeKC0Y37y8ZbVcoKJx-59" vertex="1">
          <mxGeometry x="2410" y="140" width="120" height="80" as="geometry" />
        </mxCell>
        <mxCell id="fSqYz0-swasJqL_hSOi8-33" style="edgeStyle=orthogonalEdgeStyle;rounded=0;orthogonalLoop=1;jettySize=auto;html=1;" parent="UvdeKC0Y37y8ZbVcoKJx-59" source="fSqYz0-swasJqL_hSOi8-32" target="fSqYz0-swasJqL_hSOi8-1" edge="1">
          <mxGeometry relative="1" as="geometry" />
        </mxCell>
        <mxCell id="fSqYz0-swasJqL_hSOi8-32" value="Проверка суммы заказа" style="points=[[0.25,0,0],[0.5,0,0],[0.75,0,0],[1,0.25,0],[1,0.5,0],[1,0.75,0],[0.75,1,0],[0.5,1,0],[0.25,1,0],[0,0.75,0],[0,0.5,0],[0,0.25,0]];shape=mxgraph.bpmn.task;whiteSpace=wrap;rectStyle=rounded;size=10;html=1;container=1;expand=0;collapsible=0;taskMarker=service;" parent="UvdeKC0Y37y8ZbVcoKJx-59" vertex="1">
          <mxGeometry x="2030" y="140" width="120" height="80" as="geometry" />
        </mxCell>
        <mxCell id="fSqYz0-swasJqL_hSOi8-29" value="«Минимальная стоимость заказа 1000 рублей. Не хватает еще N рублей.»" style="points=[[0.25,0,0],[0.5,0,0],[0.75,0,0],[1,0.25,0],[1,0.5,0],[1,0.75,0],[0.75,1,0],[0.5,1,0],[0.25,1,0],[0,0.75,0],[0,0.5,0],[0,0.25,0]];shape=mxgraph.bpmn.task;whiteSpace=wrap;rectStyle=rounded;size=10;html=1;container=1;expand=0;collapsible=0;taskMarker=send;" parent="UvdeKC0Y37y8ZbVcoKJx-59" vertex="1">
          <mxGeometry x="2184.5" y="20" width="140" height="80" as="geometry" />
        </mxCell>
        <mxCell id="fSqYz0-swasJqL_hSOi8-4" style="edgeStyle=orthogonalEdgeStyle;rounded=0;orthogonalLoop=1;jettySize=auto;html=1;entryX=0.5;entryY=1;entryDx=0;entryDy=0;entryPerimeter=0;" parent="UvdeKC0Y37y8ZbVcoKJx-59" source="fSqYz0-swasJqL_hSOi8-1" target="fSqYz0-swasJqL_hSOi8-29" edge="1">
          <mxGeometry relative="1" as="geometry">
            <mxPoint x="2255" y="100" as="targetPoint" />
          </mxGeometry>
        </mxCell>
        <mxCell id="ixec6P7KlZqXJfUhK8Ye-17" value="Сумма менее&amp;nbsp;&lt;div&gt;1000 руб.&lt;/div&gt;" style="edgeLabel;html=1;align=center;verticalAlign=middle;resizable=0;points=[];" parent="fSqYz0-swasJqL_hSOi8-4" vertex="1" connectable="0">
          <mxGeometry x="-0.3236" y="-2" relative="1" as="geometry">
            <mxPoint as="offset" />
          </mxGeometry>
        </mxCell>
        <mxCell id="b50oSt3-bvdmhl1ulfSf-126" value="Проверка авторизации клиента в ЛК" style="points=[[0.25,0,0],[0.5,0,0],[0.75,0,0],[1,0.25,0],[1,0.5,0],[1,0.75,0],[0.75,1,0],[0.5,1,0],[0.25,1,0],[0,0.75,0],[0,0.5,0],[0,0.25,0]];shape=mxgraph.bpmn.task;whiteSpace=wrap;rectStyle=rounded;size=10;html=1;container=1;expand=0;collapsible=0;taskMarker=service;" parent="UvdeKC0Y37y8ZbVcoKJx-59" vertex="1">
          <mxGeometry x="3300" y="300" width="120" height="80" as="geometry" />
        </mxCell>
        <mxCell id="b50oSt3-bvdmhl1ulfSf-128" value="Клиент&lt;br&gt;&lt;div&gt;авторизован?&lt;/div&gt;" style="points=[[0.25,0.25,0],[0.5,0,0],[0.75,0.25,0],[1,0.5,0],[0.75,0.75,0],[0.5,1,0],[0.25,0.75,0],[0,0.5,0]];shape=mxgraph.bpmn.gateway2;html=1;verticalLabelPosition=bottom;labelBackgroundColor=#ffffff;verticalAlign=top;align=center;perimeter=rhombusPerimeter;outlineConnect=0;outline=none;symbol=none;gwType=exclusive;" parent="UvdeKC0Y37y8ZbVcoKJx-59" vertex="1">
          <mxGeometry x="3490" y="315" width="50" height="50" as="geometry" />
        </mxCell>
        <mxCell id="b50oSt3-bvdmhl1ulfSf-129" style="edgeStyle=orthogonalEdgeStyle;rounded=0;orthogonalLoop=1;jettySize=auto;html=1;entryX=0;entryY=0.5;entryDx=0;entryDy=0;entryPerimeter=0;" parent="UvdeKC0Y37y8ZbVcoKJx-59" source="b50oSt3-bvdmhl1ulfSf-126" target="b50oSt3-bvdmhl1ulfSf-128" edge="1">
          <mxGeometry relative="1" as="geometry" />
        </mxCell>
        <mxCell id="b50oSt3-bvdmhl1ulfSf-140" style="edgeStyle=orthogonalEdgeStyle;rounded=0;orthogonalLoop=1;jettySize=auto;html=1;" parent="UvdeKC0Y37y8ZbVcoKJx-59" source="b50oSt3-bvdmhl1ulfSf-130" target="b50oSt3-bvdmhl1ulfSf-139" edge="1">
          <mxGeometry relative="1" as="geometry" />
        </mxCell>
        <mxCell id="b50oSt3-bvdmhl1ulfSf-130" value="Оставить поля пустыми" style="points=[[0.25,0,0],[0.5,0,0],[0.75,0,0],[1,0.25,0],[1,0.5,0],[1,0.75,0],[0.75,1,0],[0.5,1,0],[0.25,1,0],[0,0.75,0],[0,0.5,0],[0,0.25,0]];shape=mxgraph.bpmn.task;whiteSpace=wrap;rectStyle=rounded;size=10;html=1;container=1;expand=0;collapsible=0;taskMarker=service;" parent="UvdeKC0Y37y8ZbVcoKJx-59" vertex="1">
          <mxGeometry x="3645" y="200" width="120" height="80" as="geometry" />
        </mxCell>
        <mxCell id="b50oSt3-bvdmhl1ulfSf-131" style="edgeStyle=orthogonalEdgeStyle;rounded=0;orthogonalLoop=1;jettySize=auto;html=1;entryX=0;entryY=0.5;entryDx=0;entryDy=0;entryPerimeter=0;exitX=0.5;exitY=0;exitDx=0;exitDy=0;exitPerimeter=0;" parent="UvdeKC0Y37y8ZbVcoKJx-59" source="b50oSt3-bvdmhl1ulfSf-128" target="b50oSt3-bvdmhl1ulfSf-130" edge="1">
          <mxGeometry relative="1" as="geometry" />
        </mxCell>
        <mxCell id="b50oSt3-bvdmhl1ulfSf-132" value="Нет" style="edgeLabel;html=1;align=center;verticalAlign=middle;resizable=0;points=[];" parent="b50oSt3-bvdmhl1ulfSf-131" vertex="1" connectable="0">
          <mxGeometry x="-0.6961" y="1" relative="1" as="geometry">
            <mxPoint as="offset" />
          </mxGeometry>
        </mxCell>
        <mxCell id="b50oSt3-bvdmhl1ulfSf-151" style="edgeStyle=orthogonalEdgeStyle;rounded=0;orthogonalLoop=1;jettySize=auto;html=1;" parent="UvdeKC0Y37y8ZbVcoKJx-59" source="b50oSt3-bvdmhl1ulfSf-133" target="b50oSt3-bvdmhl1ulfSf-146" edge="1">
          <mxGeometry relative="1" as="geometry" />
        </mxCell>
        <mxCell id="b50oSt3-bvdmhl1ulfSf-152" value="Да" style="edgeLabel;html=1;align=center;verticalAlign=middle;resizable=0;points=[];" parent="b50oSt3-bvdmhl1ulfSf-151" vertex="1" connectable="0">
          <mxGeometry x="-0.3364" relative="1" as="geometry">
            <mxPoint as="offset" />
          </mxGeometry>
        </mxCell>
        <mxCell id="b50oSt3-bvdmhl1ulfSf-133" value="Есть данные клиента&lt;div&gt;в БД?&lt;/div&gt;" style="points=[[0.25,0.25,0],[0.5,0,0],[0.75,0.25,0],[1,0.5,0],[0.75,0.75,0],[0.5,1,0],[0.25,0.75,0],[0,0.5,0]];shape=mxgraph.bpmn.gateway2;html=1;verticalLabelPosition=bottom;labelBackgroundColor=#ffffff;verticalAlign=top;align=center;perimeter=rhombusPerimeter;outlineConnect=0;outline=none;symbol=none;gwType=exclusive;" parent="UvdeKC0Y37y8ZbVcoKJx-59" vertex="1">
          <mxGeometry x="3680" y="315" width="50" height="50" as="geometry" />
        </mxCell>
        <mxCell id="b50oSt3-bvdmhl1ulfSf-134" style="edgeStyle=orthogonalEdgeStyle;rounded=0;orthogonalLoop=1;jettySize=auto;html=1;entryX=0;entryY=0.5;entryDx=0;entryDy=0;entryPerimeter=0;" parent="UvdeKC0Y37y8ZbVcoKJx-59" source="b50oSt3-bvdmhl1ulfSf-128" target="b50oSt3-bvdmhl1ulfSf-133" edge="1">
          <mxGeometry relative="1" as="geometry" />
        </mxCell>
        <mxCell id="b50oSt3-bvdmhl1ulfSf-135" value="Да" style="edgeLabel;html=1;align=center;verticalAlign=middle;resizable=0;points=[];" parent="b50oSt3-bvdmhl1ulfSf-134" vertex="1" connectable="0">
          <mxGeometry x="0.1538" y="1" relative="1" as="geometry">
            <mxPoint x="-56" y="1" as="offset" />
          </mxGeometry>
        </mxCell>
        <mxCell id="b50oSt3-bvdmhl1ulfSf-136" style="edgeStyle=orthogonalEdgeStyle;rounded=0;orthogonalLoop=1;jettySize=auto;html=1;entryX=0.5;entryY=1;entryDx=0;entryDy=0;entryPerimeter=0;" parent="UvdeKC0Y37y8ZbVcoKJx-59" source="b50oSt3-bvdmhl1ulfSf-133" target="b50oSt3-bvdmhl1ulfSf-130" edge="1">
          <mxGeometry relative="1" as="geometry" />
        </mxCell>
        <mxCell id="b50oSt3-bvdmhl1ulfSf-137" value="Нет" style="edgeLabel;html=1;align=center;verticalAlign=middle;resizable=0;points=[];" parent="b50oSt3-bvdmhl1ulfSf-136" vertex="1" connectable="0">
          <mxGeometry x="-0.5004" y="3" relative="1" as="geometry">
            <mxPoint as="offset" />
          </mxGeometry>
        </mxCell>
        <mxCell id="b50oSt3-bvdmhl1ulfSf-139" value="" style="points=[[0.25,0.25,0],[0.5,0,0],[0.75,0.25,0],[1,0.5,0],[0.75,0.75,0],[0.5,1,0],[0.25,0.75,0],[0,0.5,0]];shape=mxgraph.bpmn.gateway2;html=1;verticalLabelPosition=bottom;labelBackgroundColor=#ffffff;verticalAlign=top;align=center;perimeter=rhombusPerimeter;outlineConnect=0;outline=none;symbol=none;gwType=exclusive;" parent="UvdeKC0Y37y8ZbVcoKJx-59" vertex="1">
          <mxGeometry x="3680" y="105" width="50" height="50" as="geometry" />
        </mxCell>
        <mxCell id="b50oSt3-bvdmhl1ulfSf-146" value="Автозаполнить поля данными клиента" style="points=[[0.25,0,0],[0.5,0,0],[0.75,0,0],[1,0.25,0],[1,0.5,0],[1,0.75,0],[0.75,1,0],[0.5,1,0],[0.25,1,0],[0,0.75,0],[0,0.5,0],[0,0.25,0]];shape=mxgraph.bpmn.task;whiteSpace=wrap;rectStyle=rounded;size=10;html=1;container=1;expand=0;collapsible=0;taskMarker=service;" parent="UvdeKC0Y37y8ZbVcoKJx-59" vertex="1">
          <mxGeometry x="3830" y="300" width="120" height="80" as="geometry" />
        </mxCell>
        <mxCell id="b50oSt3-bvdmhl1ulfSf-147" value="Клиент&lt;br&gt;&lt;div&gt;авторизован?&lt;/div&gt;" style="points=[[0.25,0.25,0],[0.5,0,0],[0.75,0.25,0],[1,0.5,0],[0.75,0.75,0],[0.5,1,0],[0.25,0.75,0],[0,0.5,0]];shape=mxgraph.bpmn.gateway2;html=1;verticalLabelPosition=bottom;labelBackgroundColor=#ffffff;verticalAlign=top;align=center;perimeter=rhombusPerimeter;outlineConnect=0;outline=none;symbol=none;gwType=exclusive;" parent="UvdeKC0Y37y8ZbVcoKJx-59" vertex="1">
          <mxGeometry x="4030" y="90" width="50" height="50" as="geometry" />
        </mxCell>
        <mxCell id="b50oSt3-bvdmhl1ulfSf-165" style="edgeStyle=orthogonalEdgeStyle;rounded=0;orthogonalLoop=1;jettySize=auto;html=1;dashed=1;dashPattern=1 1;entryX=0.5;entryY=0;entryDx=0;entryDy=0;" parent="UvdeKC0Y37y8ZbVcoKJx-59" source="b50oSt3-bvdmhl1ulfSf-148" target="b50oSt3-bvdmhl1ulfSf-166" edge="1">
          <mxGeometry relative="1" as="geometry">
            <mxPoint x="4240" y="250" as="targetPoint" />
          </mxGeometry>
        </mxCell>
        <mxCell id="b50oSt3-bvdmhl1ulfSf-148" value="&lt;span style=&quot;text-align: left;&quot;&gt;Сохранить&amp;nbsp; данные&lt;/span&gt;" style="points=[[0.25,0,0],[0.5,0,0],[0.75,0,0],[1,0.25,0],[1,0.5,0],[1,0.75,0],[0.75,1,0],[0.5,1,0],[0.25,1,0],[0,0.75,0],[0,0.5,0],[0,0.25,0]];shape=mxgraph.bpmn.task;whiteSpace=wrap;rectStyle=rounded;size=10;html=1;container=1;expand=0;collapsible=0;taskMarker=service;" parent="UvdeKC0Y37y8ZbVcoKJx-59" vertex="1">
          <mxGeometry x="4180" y="75" width="120" height="80" as="geometry" />
        </mxCell>
        <mxCell id="b50oSt3-bvdmhl1ulfSf-150" value="&lt;span style=&quot;text-align: left;&quot;&gt;Данные не сохраняются&lt;/span&gt;" style="points=[[0.25,0,0],[0.5,0,0],[0.75,0,0],[1,0.25,0],[1,0.5,0],[1,0.75,0],[0.75,1,0],[0.5,1,0],[0.25,1,0],[0,0.75,0],[0,0.5,0],[0,0.25,0]];shape=mxgraph.bpmn.task;whiteSpace=wrap;rectStyle=rounded;size=10;html=1;container=1;expand=0;collapsible=0;taskMarker=service;" parent="UvdeKC0Y37y8ZbVcoKJx-59" vertex="1">
          <mxGeometry x="3995" y="240" width="120" height="80" as="geometry" />
        </mxCell>
        <mxCell id="b50oSt3-bvdmhl1ulfSf-161" style="edgeStyle=orthogonalEdgeStyle;rounded=0;orthogonalLoop=1;jettySize=auto;html=1;entryX=0;entryY=0.5;entryDx=0;entryDy=0;entryPerimeter=0;" parent="UvdeKC0Y37y8ZbVcoKJx-59" source="b50oSt3-bvdmhl1ulfSf-147" target="b50oSt3-bvdmhl1ulfSf-148" edge="1">
          <mxGeometry relative="1" as="geometry" />
        </mxCell>
        <mxCell id="b50oSt3-bvdmhl1ulfSf-162" value="Да" style="edgeLabel;html=1;align=center;verticalAlign=middle;resizable=0;points=[];" parent="b50oSt3-bvdmhl1ulfSf-161" vertex="1" connectable="0">
          <mxGeometry x="-0.1389" relative="1" as="geometry">
            <mxPoint as="offset" />
          </mxGeometry>
        </mxCell>
        <mxCell id="b50oSt3-bvdmhl1ulfSf-163" style="edgeStyle=orthogonalEdgeStyle;rounded=0;orthogonalLoop=1;jettySize=auto;html=1;entryX=0.5;entryY=0;entryDx=0;entryDy=0;entryPerimeter=0;" parent="UvdeKC0Y37y8ZbVcoKJx-59" source="b50oSt3-bvdmhl1ulfSf-147" target="b50oSt3-bvdmhl1ulfSf-150" edge="1">
          <mxGeometry relative="1" as="geometry" />
        </mxCell>
        <mxCell id="b50oSt3-bvdmhl1ulfSf-164" value="Да" style="edgeLabel;html=1;align=center;verticalAlign=middle;resizable=0;points=[];" parent="b50oSt3-bvdmhl1ulfSf-163" vertex="1" connectable="0">
          <mxGeometry x="0.2389" y="-1" relative="1" as="geometry">
            <mxPoint as="offset" />
          </mxGeometry>
        </mxCell>
        <mxCell id="b50oSt3-bvdmhl1ulfSf-166" value="БД клиентов" style="shape=datastore;html=1;labelPosition=center;verticalLabelPosition=bottom;align=center;verticalAlign=top;" parent="UvdeKC0Y37y8ZbVcoKJx-59" vertex="1">
          <mxGeometry x="4210" y="250" width="60" height="65" as="geometry" />
        </mxCell>
        <mxCell id="j18L-zdmBSkiU_ZphX1V-152" value="Клиент" style="swimlane;html=1;startSize=20;fontStyle=0;collapsible=0;horizontal=0;swimlaneLine=1;swimlaneFillColor=#ffffff;strokeWidth=2;whiteSpace=wrap;" parent="1" vertex="1">
          <mxGeometry x="2670" y="270" width="7720" height="650" as="geometry" />
        </mxCell>
        <mxCell id="ATWr1G-fz4QABri5-Hr1-1" value="Возникла потребность&amp;nbsp;&lt;div&gt;в покупке&amp;nbsp;&lt;/div&gt;&lt;div&gt;стройматериалов&lt;/div&gt;" style="points=[[0.145,0.145,0],[0.5,0,0],[0.855,0.145,0],[1,0.5,0],[0.855,0.855,0],[0.5,1,0],[0.145,0.855,0],[0,0.5,0]];shape=mxgraph.bpmn.event;html=1;verticalLabelPosition=bottom;labelBackgroundColor=#ffffff;verticalAlign=top;align=center;perimeter=ellipsePerimeter;outlineConnect=0;aspect=fixed;outline=standard;symbol=general;strokeColor=#28C75D;" parent="j18L-zdmBSkiU_ZphX1V-152" vertex="1">
          <mxGeometry x="80" y="455" width="50" height="50" as="geometry" />
        </mxCell>
        <mxCell id="ATWr1G-fz4QABri5-Hr1-5" style="edgeStyle=orthogonalEdgeStyle;rounded=0;orthogonalLoop=1;jettySize=auto;html=1;" parent="j18L-zdmBSkiU_ZphX1V-152" source="ATWr1G-fz4QABri5-Hr1-2" target="ATWr1G-fz4QABri5-Hr1-4" edge="1">
          <mxGeometry relative="1" as="geometry" />
        </mxCell>
        <mxCell id="ATWr1G-fz4QABri5-Hr1-2" value="Зайти на сайт &quot;Переделкино&quot;" style="points=[[0.25,0,0],[0.5,0,0],[0.75,0,0],[1,0.25,0],[1,0.5,0],[1,0.75,0],[0.75,1,0],[0.5,1,0],[0.25,1,0],[0,0.75,0],[0,0.5,0],[0,0.25,0]];shape=mxgraph.bpmn.task;whiteSpace=wrap;rectStyle=rounded;size=10;html=1;container=1;expand=0;collapsible=0;taskMarker=abstract;" parent="j18L-zdmBSkiU_ZphX1V-152" vertex="1">
          <mxGeometry x="200" y="440" width="120" height="80" as="geometry" />
        </mxCell>
        <mxCell id="ATWr1G-fz4QABri5-Hr1-3" style="edgeStyle=orthogonalEdgeStyle;rounded=0;orthogonalLoop=1;jettySize=auto;html=1;entryX=0;entryY=0.5;entryDx=0;entryDy=0;entryPerimeter=0;" parent="j18L-zdmBSkiU_ZphX1V-152" source="ATWr1G-fz4QABri5-Hr1-1" target="ATWr1G-fz4QABri5-Hr1-2" edge="1">
          <mxGeometry relative="1" as="geometry" />
        </mxCell>
        <mxCell id="ATWr1G-fz4QABri5-Hr1-7" style="edgeStyle=orthogonalEdgeStyle;rounded=0;orthogonalLoop=1;jettySize=auto;html=1;" parent="j18L-zdmBSkiU_ZphX1V-152" source="ATWr1G-fz4QABri5-Hr1-4" target="ATWr1G-fz4QABri5-Hr1-6" edge="1">
          <mxGeometry relative="1" as="geometry" />
        </mxCell>
        <mxCell id="ATWr1G-fz4QABri5-Hr1-4" value="Ввести наименование товара в строку поиска" style="points=[[0.25,0,0],[0.5,0,0],[0.75,0,0],[1,0.25,0],[1,0.5,0],[1,0.75,0],[0.75,1,0],[0.5,1,0],[0.25,1,0],[0,0.75,0],[0,0.5,0],[0,0.25,0]];shape=mxgraph.bpmn.task;whiteSpace=wrap;rectStyle=rounded;size=10;html=1;container=1;expand=0;collapsible=0;taskMarker=abstract;" parent="j18L-zdmBSkiU_ZphX1V-152" vertex="1">
          <mxGeometry x="390" y="440" width="120" height="80" as="geometry" />
        </mxCell>
        <mxCell id="ATWr1G-fz4QABri5-Hr1-9" style="edgeStyle=orthogonalEdgeStyle;rounded=0;orthogonalLoop=1;jettySize=auto;html=1;" parent="j18L-zdmBSkiU_ZphX1V-152" source="ATWr1G-fz4QABri5-Hr1-6" edge="1">
          <mxGeometry relative="1" as="geometry">
            <mxPoint x="770" y="480" as="targetPoint" />
          </mxGeometry>
        </mxCell>
        <mxCell id="ATWr1G-fz4QABri5-Hr1-6" value="Установить фильтры поиска" style="points=[[0.25,0,0],[0.5,0,0],[0.75,0,0],[1,0.25,0],[1,0.5,0],[1,0.75,0],[0.75,1,0],[0.5,1,0],[0.25,1,0],[0,0.75,0],[0,0.5,0],[0,0.25,0]];shape=mxgraph.bpmn.task;whiteSpace=wrap;rectStyle=rounded;size=10;html=1;container=1;expand=0;collapsible=0;taskMarker=abstract;" parent="j18L-zdmBSkiU_ZphX1V-152" vertex="1">
          <mxGeometry x="580" y="440" width="120" height="80" as="geometry" />
        </mxCell>
        <mxCell id="Xq-IeHZt2deXKyxG8mNr-2" style="edgeStyle=orthogonalEdgeStyle;rounded=0;orthogonalLoop=1;jettySize=auto;html=1;" parent="j18L-zdmBSkiU_ZphX1V-152" source="Xq-IeHZt2deXKyxG8mNr-4" target="Xq-IeHZt2deXKyxG8mNr-6" edge="1">
          <mxGeometry relative="1" as="geometry" />
        </mxCell>
        <mxCell id="Xq-IeHZt2deXKyxG8mNr-3" value="Нет" style="edgeLabel;html=1;align=center;verticalAlign=middle;resizable=0;points=[];" parent="Xq-IeHZt2deXKyxG8mNr-2" vertex="1" connectable="0">
          <mxGeometry x="-0.4387" y="-3" relative="1" as="geometry">
            <mxPoint x="-3" as="offset" />
          </mxGeometry>
        </mxCell>
        <mxCell id="Xq-IeHZt2deXKyxG8mNr-9" style="edgeStyle=orthogonalEdgeStyle;rounded=0;orthogonalLoop=1;jettySize=auto;html=1;" parent="j18L-zdmBSkiU_ZphX1V-152" source="Xq-IeHZt2deXKyxG8mNr-4" target="Xq-IeHZt2deXKyxG8mNr-8" edge="1">
          <mxGeometry relative="1" as="geometry" />
        </mxCell>
        <mxCell id="fF9van0E5IGVB__h08Ww-1" value="Да" style="edgeLabel;html=1;align=center;verticalAlign=middle;resizable=0;points=[];" parent="Xq-IeHZt2deXKyxG8mNr-9" vertex="1" connectable="0">
          <mxGeometry x="-0.0494" relative="1" as="geometry">
            <mxPoint as="offset" />
          </mxGeometry>
        </mxCell>
        <mxCell id="Xq-IeHZt2deXKyxG8mNr-5" style="edgeStyle=orthogonalEdgeStyle;rounded=0;orthogonalLoop=1;jettySize=auto;html=1;entryX=0;entryY=0.5;entryDx=0;entryDy=0;entryPerimeter=0;" parent="j18L-zdmBSkiU_ZphX1V-152" source="Xq-IeHZt2deXKyxG8mNr-1" target="Xq-IeHZt2deXKyxG8mNr-4" edge="1">
          <mxGeometry relative="1" as="geometry" />
        </mxCell>
        <mxCell id="UgNyMDsOwuATnOnYMTNI-2" style="edgeStyle=orthogonalEdgeStyle;rounded=0;orthogonalLoop=1;jettySize=auto;html=1;entryX=0;entryY=0.5;entryDx=0;entryDy=0;entryPerimeter=0;" parent="j18L-zdmBSkiU_ZphX1V-152" source="Xq-IeHZt2deXKyxG8mNr-8" target="UgNyMDsOwuATnOnYMTNI-1" edge="1">
          <mxGeometry relative="1" as="geometry" />
        </mxCell>
        <mxCell id="GqjdYW9W_TFyFr_lX_Qk-2" style="edgeStyle=orthogonalEdgeStyle;rounded=0;orthogonalLoop=1;jettySize=auto;html=1;entryX=0.5;entryY=1;entryDx=0;entryDy=0;entryPerimeter=0;exitX=0.5;exitY=0;exitDx=0;exitDy=0;exitPerimeter=0;" parent="j18L-zdmBSkiU_ZphX1V-152" source="GqjdYW9W_TFyFr_lX_Qk-1" target="GqjdYW9W_TFyFr_lX_Qk-9" edge="1">
          <mxGeometry relative="1" as="geometry">
            <mxPoint x="1705" y="119.99999999999989" as="targetPoint" />
          </mxGeometry>
        </mxCell>
        <mxCell id="GqjdYW9W_TFyFr_lX_Qk-3" value="Да" style="edgeLabel;html=1;align=center;verticalAlign=middle;resizable=0;points=[];" parent="GqjdYW9W_TFyFr_lX_Qk-2" vertex="1" connectable="0">
          <mxGeometry x="-0.3961" y="2" relative="1" as="geometry">
            <mxPoint x="2" y="-3" as="offset" />
          </mxGeometry>
        </mxCell>
        <mxCell id="GqjdYW9W_TFyFr_lX_Qk-11" style="edgeStyle=orthogonalEdgeStyle;rounded=0;orthogonalLoop=1;jettySize=auto;html=1;entryX=0;entryY=0.5;entryDx=0;entryDy=0;entryPerimeter=0;exitX=0.5;exitY=0;exitDx=0;exitDy=0;exitPerimeter=0;" parent="j18L-zdmBSkiU_ZphX1V-152" source="GqjdYW9W_TFyFr_lX_Qk-9" target="GqjdYW9W_TFyFr_lX_Qk-8" edge="1">
          <mxGeometry relative="1" as="geometry" />
        </mxCell>
        <mxCell id="GqjdYW9W_TFyFr_lX_Qk-13" style="edgeStyle=orthogonalEdgeStyle;rounded=0;orthogonalLoop=1;jettySize=auto;html=1;entryX=0.5;entryY=0;entryDx=0;entryDy=0;entryPerimeter=0;" parent="j18L-zdmBSkiU_ZphX1V-152" source="GqjdYW9W_TFyFr_lX_Qk-8" target="GqjdYW9W_TFyFr_lX_Qk-10" edge="1">
          <mxGeometry relative="1" as="geometry" />
        </mxCell>
        <mxCell id="GqjdYW9W_TFyFr_lX_Qk-14" style="edgeStyle=orthogonalEdgeStyle;rounded=0;orthogonalLoop=1;jettySize=auto;html=1;entryX=0.5;entryY=0;entryDx=0;entryDy=0;entryPerimeter=0;" parent="j18L-zdmBSkiU_ZphX1V-152" source="GqjdYW9W_TFyFr_lX_Qk-7" target="GqjdYW9W_TFyFr_lX_Qk-10" edge="1">
          <mxGeometry relative="1" as="geometry">
            <mxPoint x="1940" y="135" as="targetPoint" />
          </mxGeometry>
        </mxCell>
        <mxCell id="GqjdYW9W_TFyFr_lX_Qk-22" style="edgeStyle=orthogonalEdgeStyle;rounded=0;orthogonalLoop=1;jettySize=auto;html=1;entryX=0.5;entryY=0;entryDx=0;entryDy=0;entryPerimeter=0;" parent="j18L-zdmBSkiU_ZphX1V-152" source="GqjdYW9W_TFyFr_lX_Qk-17" target="GqjdYW9W_TFyFr_lX_Qk-10" edge="1">
          <mxGeometry relative="1" as="geometry" />
        </mxCell>
        <mxCell id="GqjdYW9W_TFyFr_lX_Qk-23" style="edgeStyle=orthogonalEdgeStyle;rounded=0;orthogonalLoop=1;jettySize=auto;html=1;entryX=0;entryY=0.5;entryDx=0;entryDy=0;entryPerimeter=0;" parent="j18L-zdmBSkiU_ZphX1V-152" source="GqjdYW9W_TFyFr_lX_Qk-18" target="GqjdYW9W_TFyFr_lX_Qk-10" edge="1">
          <mxGeometry relative="1" as="geometry" />
        </mxCell>
        <mxCell id="GqjdYW9W_TFyFr_lX_Qk-25" style="edgeStyle=orthogonalEdgeStyle;rounded=0;orthogonalLoop=1;jettySize=auto;html=1;entryX=0.5;entryY=0;entryDx=0;entryDy=0;entryPerimeter=0;" parent="j18L-zdmBSkiU_ZphX1V-152" source="GqjdYW9W_TFyFr_lX_Qk-10" target="fSqYz0-swasJqL_hSOi8-23" edge="1">
          <mxGeometry relative="1" as="geometry">
            <mxPoint x="1939" y="440" as="targetPoint" />
          </mxGeometry>
        </mxCell>
        <mxCell id="GqjdYW9W_TFyFr_lX_Qk-26" style="edgeStyle=orthogonalEdgeStyle;rounded=0;orthogonalLoop=1;jettySize=auto;html=1;entryX=0;entryY=0.5;entryDx=0;entryDy=0;entryPerimeter=0;exitX=0.5;exitY=0;exitDx=0;exitDy=0;exitPerimeter=0;" parent="j18L-zdmBSkiU_ZphX1V-152" source="GqjdYW9W_TFyFr_lX_Qk-9" target="GqjdYW9W_TFyFr_lX_Qk-7" edge="1">
          <mxGeometry relative="1" as="geometry" />
        </mxCell>
        <mxCell id="GqjdYW9W_TFyFr_lX_Qk-27" style="edgeStyle=orthogonalEdgeStyle;rounded=0;orthogonalLoop=1;jettySize=auto;html=1;entryX=0;entryY=0.5;entryDx=0;entryDy=0;entryPerimeter=0;exitX=0.5;exitY=0;exitDx=0;exitDy=0;exitPerimeter=0;" parent="j18L-zdmBSkiU_ZphX1V-152" source="GqjdYW9W_TFyFr_lX_Qk-9" target="GqjdYW9W_TFyFr_lX_Qk-17" edge="1">
          <mxGeometry relative="1" as="geometry" />
        </mxCell>
        <mxCell id="NP4nDpqarSkxfLU_XK2a-7" style="edgeStyle=orthogonalEdgeStyle;rounded=0;orthogonalLoop=1;jettySize=auto;html=1;entryX=0;entryY=0.5;entryDx=0;entryDy=0;entryPerimeter=0;exitX=0.5;exitY=0;exitDx=0;exitDy=0;exitPerimeter=0;" parent="j18L-zdmBSkiU_ZphX1V-152" source="NP4nDpqarSkxfLU_XK2a-3" target="NP4nDpqarSkxfLU_XK2a-5" edge="1">
          <mxGeometry relative="1" as="geometry" />
        </mxCell>
        <mxCell id="NP4nDpqarSkxfLU_XK2a-8" style="edgeStyle=orthogonalEdgeStyle;rounded=0;orthogonalLoop=1;jettySize=auto;html=1;exitX=0.5;exitY=1;exitDx=0;exitDy=0;exitPerimeter=0;entryX=0;entryY=0.5;entryDx=0;entryDy=0;entryPerimeter=0;" parent="j18L-zdmBSkiU_ZphX1V-152" source="NP4nDpqarSkxfLU_XK2a-3" target="NP4nDpqarSkxfLU_XK2a-4" edge="1">
          <mxGeometry relative="1" as="geometry" />
        </mxCell>
        <mxCell id="NP4nDpqarSkxfLU_XK2a-9" style="edgeStyle=orthogonalEdgeStyle;rounded=0;orthogonalLoop=1;jettySize=auto;html=1;entryX=0.5;entryY=0;entryDx=0;entryDy=0;entryPerimeter=0;" parent="j18L-zdmBSkiU_ZphX1V-152" source="NP4nDpqarSkxfLU_XK2a-5" target="NP4nDpqarSkxfLU_XK2a-6" edge="1">
          <mxGeometry relative="1" as="geometry" />
        </mxCell>
        <mxCell id="NP4nDpqarSkxfLU_XK2a-10" style="edgeStyle=orthogonalEdgeStyle;rounded=0;orthogonalLoop=1;jettySize=auto;html=1;entryX=0.5;entryY=1;entryDx=0;entryDy=0;entryPerimeter=0;" parent="j18L-zdmBSkiU_ZphX1V-152" source="NP4nDpqarSkxfLU_XK2a-4" target="NP4nDpqarSkxfLU_XK2a-6" edge="1">
          <mxGeometry relative="1" as="geometry" />
        </mxCell>
        <mxCell id="NP4nDpqarSkxfLU_XK2a-11" style="edgeStyle=orthogonalEdgeStyle;rounded=0;orthogonalLoop=1;jettySize=auto;html=1;entryX=0;entryY=0.5;entryDx=0;entryDy=0;entryPerimeter=0;" parent="j18L-zdmBSkiU_ZphX1V-152" source="NP4nDpqarSkxfLU_XK2a-2" target="NP4nDpqarSkxfLU_XK2a-3" edge="1">
          <mxGeometry relative="1" as="geometry" />
        </mxCell>
        <mxCell id="NP4nDpqarSkxfLU_XK2a-12" style="edgeStyle=orthogonalEdgeStyle;rounded=0;orthogonalLoop=1;jettySize=auto;html=1;entryX=0;entryY=0.5;entryDx=0;entryDy=0;entryPerimeter=0;" parent="j18L-zdmBSkiU_ZphX1V-152" source="NP4nDpqarSkxfLU_XK2a-1" target="NP4nDpqarSkxfLU_XK2a-2" edge="1">
          <mxGeometry relative="1" as="geometry" />
        </mxCell>
        <mxCell id="Xq-IeHZt2deXKyxG8mNr-1" value="Просмотр необходимых товаров" style="points=[[0.25,0,0],[0.5,0,0],[0.75,0,0],[1,0.25,0],[1,0.5,0],[1,0.75,0],[0.75,1,0],[0.5,1,0],[0.25,1,0],[0,0.75,0],[0,0.5,0],[0,0.25,0]];shape=mxgraph.bpmn.task;whiteSpace=wrap;rectStyle=rounded;size=10;html=1;container=1;expand=0;collapsible=0;taskMarker=abstract;" parent="j18L-zdmBSkiU_ZphX1V-152" vertex="1">
          <mxGeometry x="770" y="440" width="120" height="80" as="geometry" />
        </mxCell>
        <mxCell id="Xq-IeHZt2deXKyxG8mNr-6" value="Товар не куплен" style="points=[[0.145,0.145,0],[0.5,0,0],[0.855,0.145,0],[1,0.5,0],[0.855,0.855,0],[0.5,1,0],[0.145,0.855,0],[0,0.5,0]];shape=mxgraph.bpmn.event;html=1;verticalLabelPosition=bottom;labelBackgroundColor=#ffffff;verticalAlign=top;align=center;perimeter=ellipsePerimeter;outlineConnect=0;aspect=fixed;outline=end;symbol=terminate2;strokeColor=#FF0000;" parent="j18L-zdmBSkiU_ZphX1V-152" vertex="1">
          <mxGeometry x="960" y="330" width="50" height="50" as="geometry" />
        </mxCell>
        <mxCell id="Xq-IeHZt2deXKyxG8mNr-4" value="Товар найден?" style="points=[[0.25,0.25,0],[0.5,0,0],[0.75,0.25,0],[1,0.5,0],[0.75,0.75,0],[0.5,1,0],[0.25,0.75,0],[0,0.5,0]];shape=mxgraph.bpmn.gateway2;html=1;verticalLabelPosition=bottom;labelBackgroundColor=#ffffff;verticalAlign=top;align=center;perimeter=rhombusPerimeter;outlineConnect=0;outline=none;symbol=none;gwType=exclusive;" parent="j18L-zdmBSkiU_ZphX1V-152" vertex="1">
          <mxGeometry x="960" y="455" width="50" height="50" as="geometry" />
        </mxCell>
        <mxCell id="Xq-IeHZt2deXKyxG8mNr-8" value="Добавить товар в корзину" style="points=[[0.25,0,0],[0.5,0,0],[0.75,0,0],[1,0.25,0],[1,0.5,0],[1,0.75,0],[0.75,1,0],[0.5,1,0],[0.25,1,0],[0,0.75,0],[0,0.5,0],[0,0.25,0]];shape=mxgraph.bpmn.task;whiteSpace=wrap;rectStyle=rounded;size=10;html=1;container=1;expand=0;collapsible=0;taskMarker=abstract;" parent="j18L-zdmBSkiU_ZphX1V-152" vertex="1">
          <mxGeometry x="1080" y="440" width="120" height="80" as="geometry" />
        </mxCell>
        <mxCell id="fSqYz0-swasJqL_hSOi8-20" style="edgeStyle=orthogonalEdgeStyle;rounded=0;orthogonalLoop=1;jettySize=auto;html=1;exitX=1;exitY=0.5;exitDx=0;exitDy=0;exitPerimeter=0;" parent="j18L-zdmBSkiU_ZphX1V-152" source="UgNyMDsOwuATnOnYMTNI-1" target="fSqYz0-swasJqL_hSOi8-19" edge="1">
          <mxGeometry relative="1" as="geometry" />
        </mxCell>
        <mxCell id="UgNyMDsOwuATnOnYMTNI-1" value="Переход в корзину" style="points=[[0.25,0,0],[0.5,0,0],[0.75,0,0],[1,0.25,0],[1,0.5,0],[1,0.75,0],[0.75,1,0],[0.5,1,0],[0.25,1,0],[0,0.75,0],[0,0.5,0],[0,0.25,0]];shape=mxgraph.bpmn.task;whiteSpace=wrap;rectStyle=rounded;size=10;html=1;container=1;expand=0;collapsible=0;taskMarker=abstract;" parent="j18L-zdmBSkiU_ZphX1V-152" vertex="1">
          <mxGeometry x="1270" y="440" width="120" height="80" as="geometry" />
        </mxCell>
        <mxCell id="GqjdYW9W_TFyFr_lX_Qk-1" value="Изменить кол-во&amp;nbsp;&lt;div&gt;товаров в корзине?&lt;/div&gt;" style="points=[[0.25,0.25,0],[0.5,0,0],[0.75,0.25,0],[1,0.5,0],[0.75,0.75,0],[0.5,1,0],[0.25,0.75,0],[0,0.5,0]];shape=mxgraph.bpmn.gateway2;html=1;verticalLabelPosition=bottom;labelBackgroundColor=#ffffff;verticalAlign=top;align=center;perimeter=rhombusPerimeter;outlineConnect=0;outline=none;symbol=none;gwType=exclusive;" parent="j18L-zdmBSkiU_ZphX1V-152" vertex="1">
          <mxGeometry x="1630.5" y="455" width="50" height="50" as="geometry" />
        </mxCell>
        <mxCell id="GqjdYW9W_TFyFr_lX_Qk-10" value="" style="points=[[0.25,0.25,0],[0.5,0,0],[0.75,0.25,0],[1,0.5,0],[0.75,0.75,0],[0.5,1,0],[0.25,0.75,0],[0,0.5,0]];shape=mxgraph.bpmn.gateway2;html=1;verticalLabelPosition=bottom;labelBackgroundColor=#ffffff;verticalAlign=top;align=center;perimeter=rhombusPerimeter;outlineConnect=0;outline=none;symbol=none;gwType=parallel;" parent="j18L-zdmBSkiU_ZphX1V-152" vertex="1">
          <mxGeometry x="1965.5" y="362" width="50" height="50" as="geometry" />
        </mxCell>
        <mxCell id="NP4nDpqarSkxfLU_XK2a-1" value="Перейти к оплате" style="points=[[0.25,0,0],[0.5,0,0],[0.75,0,0],[1,0.25,0],[1,0.5,0],[1,0.75,0],[0.75,1,0],[0.5,1,0],[0.25,1,0],[0,0.75,0],[0,0.5,0],[0,0.25,0]];shape=mxgraph.bpmn.task;whiteSpace=wrap;rectStyle=rounded;size=10;html=1;container=1;expand=0;collapsible=0;taskMarker=abstract;" parent="j18L-zdmBSkiU_ZphX1V-152" vertex="1">
          <mxGeometry x="2410" y="440" width="120" height="80" as="geometry" />
        </mxCell>
        <mxCell id="NP4nDpqarSkxfLU_XK2a-2" value="Выбрать способ оплаты" style="points=[[0.25,0,0],[0.5,0,0],[0.75,0,0],[1,0.25,0],[1,0.5,0],[1,0.75,0],[0.75,1,0],[0.5,1,0],[0.25,1,0],[0,0.75,0],[0,0.5,0],[0,0.25,0]];shape=mxgraph.bpmn.task;whiteSpace=wrap;rectStyle=rounded;size=10;html=1;container=1;expand=0;collapsible=0;taskMarker=abstract;" parent="j18L-zdmBSkiU_ZphX1V-152" vertex="1">
          <mxGeometry x="2600" y="440" width="120" height="80" as="geometry" />
        </mxCell>
        <mxCell id="NP4nDpqarSkxfLU_XK2a-3" value="" style="points=[[0.25,0.25,0],[0.5,0,0],[0.75,0.25,0],[1,0.5,0],[0.75,0.75,0],[0.5,1,0],[0.25,0.75,0],[0,0.5,0]];shape=mxgraph.bpmn.gateway2;html=1;verticalLabelPosition=bottom;labelBackgroundColor=#ffffff;verticalAlign=top;align=center;perimeter=rhombusPerimeter;outlineConnect=0;outline=none;symbol=none;gwType=exclusive;" parent="j18L-zdmBSkiU_ZphX1V-152" vertex="1">
          <mxGeometry x="2790" y="455" width="50" height="50" as="geometry" />
        </mxCell>
        <mxCell id="NP4nDpqarSkxfLU_XK2a-4" value="Выбрать оплату онлайн банковской картой" style="points=[[0.25,0,0],[0.5,0,0],[0.75,0,0],[1,0.25,0],[1,0.5,0],[1,0.75,0],[0.75,1,0],[0.5,1,0],[0.25,1,0],[0,0.75,0],[0,0.5,0],[0,0.25,0]];shape=mxgraph.bpmn.task;whiteSpace=wrap;rectStyle=rounded;size=10;html=1;container=1;expand=0;collapsible=0;taskMarker=abstract;" parent="j18L-zdmBSkiU_ZphX1V-152" vertex="1">
          <mxGeometry x="2870" y="487" width="120" height="80" as="geometry" />
        </mxCell>
        <mxCell id="NP4nDpqarSkxfLU_XK2a-5" value="Выбрать оплату наличными при получении" style="points=[[0.25,0,0],[0.5,0,0],[0.75,0,0],[1,0.25,0],[1,0.5,0],[1,0.75,0],[0.75,1,0],[0.5,1,0],[0.25,1,0],[0,0.75,0],[0,0.5,0],[0,0.25,0]];shape=mxgraph.bpmn.task;whiteSpace=wrap;rectStyle=rounded;size=10;html=1;container=1;expand=0;collapsible=0;taskMarker=abstract;" parent="j18L-zdmBSkiU_ZphX1V-152" vertex="1">
          <mxGeometry x="2870" y="392" width="120" height="80" as="geometry" />
        </mxCell>
        <mxCell id="zzYqvdFSLTcJUyNHLGsg-2" style="edgeStyle=orthogonalEdgeStyle;rounded=0;orthogonalLoop=1;jettySize=auto;html=1;entryX=0;entryY=0.5;entryDx=0;entryDy=0;entryPerimeter=0;" parent="j18L-zdmBSkiU_ZphX1V-152" source="NP4nDpqarSkxfLU_XK2a-6" target="b50oSt3-bvdmhl1ulfSf-122" edge="1">
          <mxGeometry relative="1" as="geometry">
            <mxPoint x="3110" y="480.0000000000002" as="targetPoint" />
          </mxGeometry>
        </mxCell>
        <mxCell id="NP4nDpqarSkxfLU_XK2a-6" value="" style="points=[[0.25,0.25,0],[0.5,0,0],[0.75,0.25,0],[1,0.5,0],[0.75,0.75,0],[0.5,1,0],[0.25,0.75,0],[0,0.5,0]];shape=mxgraph.bpmn.gateway2;html=1;verticalLabelPosition=bottom;labelBackgroundColor=#ffffff;verticalAlign=top;align=center;perimeter=rhombusPerimeter;outlineConnect=0;outline=none;symbol=none;gwType=exclusive;" parent="j18L-zdmBSkiU_ZphX1V-152" vertex="1">
          <mxGeometry x="3010" y="454.5" width="50" height="50" as="geometry" />
        </mxCell>
        <mxCell id="GqjdYW9W_TFyFr_lX_Qk-9" value="" style="points=[[0.25,0.25,0],[0.5,0,0],[0.75,0.25,0],[1,0.5,0],[0.75,0.75,0],[0.5,1,0],[0.25,0.75,0],[0,0.5,0]];shape=mxgraph.bpmn.gateway2;html=1;verticalLabelPosition=bottom;labelBackgroundColor=#ffffff;verticalAlign=top;align=center;perimeter=rhombusPerimeter;outlineConnect=0;outline=none;symbol=none;gwType=parallel;" parent="j18L-zdmBSkiU_ZphX1V-152" vertex="1">
          <mxGeometry x="1630.5" y="362" width="50" height="50" as="geometry" />
        </mxCell>
        <mxCell id="GqjdYW9W_TFyFr_lX_Qk-18" value="Удалить товары частично" style="points=[[0.25,0,0],[0.5,0,0],[0.75,0,0],[1,0.25,0],[1,0.5,0],[1,0.75,0],[0.75,1,0],[0.5,1,0],[0.25,1,0],[0,0.75,0],[0,0.5,0],[0,0.25,0]];shape=mxgraph.bpmn.task;whiteSpace=wrap;rectStyle=rounded;size=10;html=1;container=1;expand=0;collapsible=0;taskMarker=abstract;" parent="j18L-zdmBSkiU_ZphX1V-152" vertex="1">
          <mxGeometry x="1699.5" y="347" width="120" height="80" as="geometry" />
        </mxCell>
        <mxCell id="GqjdYW9W_TFyFr_lX_Qk-17" value="Удалить все товары" style="points=[[0.25,0,0],[0.5,0,0],[0.75,0,0],[1,0.25,0],[1,0.5,0],[1,0.75,0],[0.75,1,0],[0.5,1,0],[0.25,1,0],[0,0.75,0],[0,0.5,0],[0,0.25,0]];shape=mxgraph.bpmn.task;whiteSpace=wrap;rectStyle=rounded;size=10;html=1;container=1;expand=0;collapsible=0;taskMarker=abstract;" parent="j18L-zdmBSkiU_ZphX1V-152" vertex="1">
          <mxGeometry x="1699.5" y="257" width="120" height="80" as="geometry" />
        </mxCell>
        <mxCell id="GqjdYW9W_TFyFr_lX_Qk-7" value="Уменьшить кол-во" style="points=[[0.25,0,0],[0.5,0,0],[0.75,0,0],[1,0.25,0],[1,0.5,0],[1,0.75,0],[0.75,1,0],[0.5,1,0],[0.25,1,0],[0,0.75,0],[0,0.5,0],[0,0.25,0]];shape=mxgraph.bpmn.task;whiteSpace=wrap;rectStyle=rounded;size=10;html=1;container=1;expand=0;collapsible=0;taskMarker=abstract;" parent="j18L-zdmBSkiU_ZphX1V-152" vertex="1">
          <mxGeometry x="1699.5" y="167" width="120" height="80" as="geometry" />
        </mxCell>
        <mxCell id="GqjdYW9W_TFyFr_lX_Qk-8" value="Увеличить кол-во" style="points=[[0.25,0,0],[0.5,0,0],[0.75,0,0],[1,0.25,0],[1,0.5,0],[1,0.75,0],[0.75,1,0],[0.5,1,0],[0.25,1,0],[0,0.75,0],[0,0.5,0],[0,0.25,0]];shape=mxgraph.bpmn.task;whiteSpace=wrap;rectStyle=rounded;size=10;html=1;container=1;expand=0;collapsible=0;taskMarker=abstract;" parent="j18L-zdmBSkiU_ZphX1V-152" vertex="1">
          <mxGeometry x="1699.5" y="77" width="120" height="80" as="geometry" />
        </mxCell>
        <mxCell id="fSqYz0-swasJqL_hSOi8-18" style="edgeStyle=orthogonalEdgeStyle;rounded=0;orthogonalLoop=1;jettySize=auto;html=1;entryX=0;entryY=0.5;entryDx=0;entryDy=0;entryPerimeter=0;" parent="j18L-zdmBSkiU_ZphX1V-152" source="GqjdYW9W_TFyFr_lX_Qk-9" target="GqjdYW9W_TFyFr_lX_Qk-18" edge="1">
          <mxGeometry relative="1" as="geometry" />
        </mxCell>
        <mxCell id="fSqYz0-swasJqL_hSOi8-19" value="" style="points=[[0.25,0.25,0],[0.5,0,0],[0.75,0.25,0],[1,0.5,0],[0.75,0.75,0],[0.5,1,0],[0.25,0.75,0],[0,0.5,0]];shape=mxgraph.bpmn.gateway2;html=1;verticalLabelPosition=bottom;labelBackgroundColor=#ffffff;verticalAlign=top;align=center;perimeter=rhombusPerimeter;outlineConnect=0;outline=none;symbol=none;gwType=parallel;" parent="j18L-zdmBSkiU_ZphX1V-152" vertex="1">
          <mxGeometry x="1460" y="454.5" width="50" height="50" as="geometry" />
        </mxCell>
        <mxCell id="fSqYz0-swasJqL_hSOi8-22" style="edgeStyle=orthogonalEdgeStyle;rounded=0;orthogonalLoop=1;jettySize=auto;html=1;entryX=0;entryY=0.5;entryDx=0;entryDy=0;entryPerimeter=0;" parent="j18L-zdmBSkiU_ZphX1V-152" source="fSqYz0-swasJqL_hSOi8-19" target="GqjdYW9W_TFyFr_lX_Qk-1" edge="1">
          <mxGeometry relative="1" as="geometry" />
        </mxCell>
        <mxCell id="fSqYz0-swasJqL_hSOi8-23" value="" style="points=[[0.25,0.25,0],[0.5,0,0],[0.75,0.25,0],[1,0.5,0],[0.75,0.75,0],[0.5,1,0],[0.25,0.75,0],[0,0.5,0]];shape=mxgraph.bpmn.gateway2;html=1;verticalLabelPosition=bottom;labelBackgroundColor=#ffffff;verticalAlign=top;align=center;perimeter=rhombusPerimeter;outlineConnect=0;outline=none;symbol=none;gwType=parallel;" parent="j18L-zdmBSkiU_ZphX1V-152" vertex="1">
          <mxGeometry x="1965.5" y="455" width="50" height="50" as="geometry" />
        </mxCell>
        <mxCell id="fSqYz0-swasJqL_hSOi8-26" style="edgeStyle=orthogonalEdgeStyle;rounded=0;orthogonalLoop=1;jettySize=auto;html=1;entryX=0;entryY=0.5;entryDx=0;entryDy=0;entryPerimeter=0;" parent="j18L-zdmBSkiU_ZphX1V-152" source="GqjdYW9W_TFyFr_lX_Qk-1" target="fSqYz0-swasJqL_hSOi8-23" edge="1">
          <mxGeometry relative="1" as="geometry" />
        </mxCell>
        <mxCell id="fSqYz0-swasJqL_hSOi8-27" value="Нет" style="edgeLabel;html=1;align=center;verticalAlign=middle;resizable=0;points=[];" parent="fSqYz0-swasJqL_hSOi8-26" vertex="1" connectable="0">
          <mxGeometry x="0.6356" relative="1" as="geometry">
            <mxPoint x="-194" as="offset" />
          </mxGeometry>
        </mxCell>
        <mxCell id="D53XDtNXo2zpnGru8gi4-1" value="Оформить заказ не удалось" style="points=[[0.145,0.145,0],[0.5,0,0],[0.855,0.145,0],[1,0.5,0],[0.855,0.855,0],[0.5,1,0],[0.145,0.855,0],[0,0.5,0]];shape=mxgraph.bpmn.event;html=1;verticalLabelPosition=bottom;labelBackgroundColor=#ffffff;verticalAlign=top;align=center;perimeter=ellipsePerimeter;outlineConnect=0;aspect=fixed;outline=end;symbol=terminate2;strokeColor=#FF0000;" parent="j18L-zdmBSkiU_ZphX1V-152" vertex="1">
          <mxGeometry x="2229.5" y="455" width="50" height="50" as="geometry" />
        </mxCell>
        <mxCell id="t04CrVsMe0VcIypLeOuC-1" value="Заказ оформлен" style="points=[[0.145,0.145,0],[0.5,0,0],[0.855,0.145,0],[1,0.5,0],[0.855,0.855,0],[0.5,1,0],[0.145,0.855,0],[0,0.5,0]];shape=mxgraph.bpmn.event;html=1;verticalLabelPosition=bottom;labelBackgroundColor=#ffffff;verticalAlign=top;align=center;perimeter=ellipsePerimeter;outlineConnect=0;aspect=fixed;outline=throwing;symbol=general;strokeColor=#FFA836;" parent="j18L-zdmBSkiU_ZphX1V-152" vertex="1">
          <mxGeometry x="5790" y="455" width="50" height="50" as="geometry" />
        </mxCell>
        <mxCell id="ixec6P7KlZqXJfUhK8Ye-21" style="edgeStyle=orthogonalEdgeStyle;rounded=0;orthogonalLoop=1;jettySize=auto;html=1;entryX=0.5;entryY=0;entryDx=0;entryDy=0;entryPerimeter=0;exitX=0.5;exitY=0;exitDx=0;exitDy=0;exitPerimeter=0;" parent="j18L-zdmBSkiU_ZphX1V-152" source="TLYjtaMSoJHvuYHscGxh-23" target="TLYjtaMSoJHvuYHscGxh-15" edge="1">
          <mxGeometry relative="1" as="geometry" />
        </mxCell>
        <mxCell id="GJDkKD9ZDpp5Ap8hCKxs-79" value="Заказ&amp;nbsp;&lt;div&gt;подтвержден&lt;/div&gt;" style="points=[[0.145,0.145,0],[0.5,0,0],[0.855,0.145,0],[1,0.5,0],[0.855,0.855,0],[0.5,1,0],[0.145,0.855,0],[0,0.5,0]];shape=mxgraph.bpmn.event;html=1;verticalLabelPosition=bottom;labelBackgroundColor=#ffffff;verticalAlign=top;align=center;perimeter=ellipsePerimeter;outlineConnect=0;aspect=fixed;outline=end;symbol=terminate2;" parent="j18L-zdmBSkiU_ZphX1V-152" vertex="1">
          <mxGeometry x="7630" y="392" width="50" height="50" as="geometry" />
        </mxCell>
        <mxCell id="GJDkKD9ZDpp5Ap8hCKxs-77" value="Заказ отменен" style="points=[[0.145,0.145,0],[0.5,0,0],[0.855,0.145,0],[1,0.5,0],[0.855,0.855,0],[0.5,1,0],[0.145,0.855,0],[0,0.5,0]];shape=mxgraph.bpmn.event;html=1;verticalLabelPosition=bottom;labelBackgroundColor=#ffffff;verticalAlign=top;align=center;perimeter=ellipsePerimeter;outlineConnect=0;aspect=fixed;outline=end;symbol=message;fillColor=#FFFFFF;strokeColor=#FF0000;" parent="j18L-zdmBSkiU_ZphX1V-152" vertex="1">
          <mxGeometry x="6890" y="383" width="50" height="50" as="geometry" />
        </mxCell>
        <mxCell id="GJDkKD9ZDpp5Ap8hCKxs-78" value="Заказ&amp;nbsp;&lt;div&gt;подтвержден&lt;/div&gt;" style="points=[[0.145,0.145,0],[0.5,0,0],[0.855,0.145,0],[1,0.5,0],[0.855,0.855,0],[0.5,1,0],[0.145,0.855,0],[0,0.5,0]];shape=mxgraph.bpmn.event;html=1;verticalLabelPosition=bottom;labelBackgroundColor=#ffffff;verticalAlign=top;align=center;perimeter=ellipsePerimeter;outlineConnect=0;aspect=fixed;outline=end;symbol=terminate2;" parent="j18L-zdmBSkiU_ZphX1V-152" vertex="1">
          <mxGeometry x="6730" y="383" width="50" height="50" as="geometry" />
        </mxCell>
        <mxCell id="TLYjtaMSoJHvuYHscGxh-25" value="&quot;Номер телефона успешно подтвержден&quot;" style="points=[[0.25,0,0],[0.5,0,0],[0.75,0,0],[1,0.25,0],[1,0.5,0],[1,0.75,0],[0.75,1,0],[0.5,1,0],[0.25,1,0],[0,0.75,0],[0,0.5,0],[0,0.25,0]];shape=mxgraph.bpmn.task;whiteSpace=wrap;rectStyle=rounded;size=10;html=1;container=1;expand=0;collapsible=0;taskMarker=send;" parent="j18L-zdmBSkiU_ZphX1V-152" vertex="1">
          <mxGeometry x="5130" y="440" width="140" height="80" as="geometry" />
        </mxCell>
        <mxCell id="TLYjtaMSoJHvuYHscGxh-23" value="«Введен неправильный код. Повторите&lt;div&gt;попытку»&lt;/div&gt;" style="points=[[0.25,0,0],[0.5,0,0],[0.75,0,0],[1,0.25,0],[1,0.5,0],[1,0.75,0],[0.75,1,0],[0.5,1,0],[0.25,1,0],[0,0.75,0],[0,0.5,0],[0,0.25,0]];shape=mxgraph.bpmn.task;whiteSpace=wrap;rectStyle=rounded;size=10;html=1;container=1;expand=0;collapsible=0;taskMarker=send;" parent="j18L-zdmBSkiU_ZphX1V-152" vertex="1">
          <mxGeometry x="4975" y="487" width="140" height="80" as="geometry" />
        </mxCell>
        <mxCell id="TLYjtaMSoJHvuYHscGxh-9" value="Код верный?" style="points=[[0.25,0.25,0],[0.5,0,0],[0.75,0.25,0],[1,0.5,0],[0.75,0.75,0],[0.5,1,0],[0.25,0.75,0],[0,0.5,0]];shape=mxgraph.bpmn.gateway2;html=1;verticalLabelPosition=bottom;labelBackgroundColor=#ffffff;verticalAlign=top;align=center;perimeter=rhombusPerimeter;outlineConnect=0;outline=none;symbol=none;gwType=exclusive;" parent="j18L-zdmBSkiU_ZphX1V-152" vertex="1">
          <mxGeometry x="5020" y="780" width="50" height="50" as="geometry" />
        </mxCell>
        <mxCell id="TLYjtaMSoJHvuYHscGxh-24" style="edgeStyle=orthogonalEdgeStyle;rounded=0;orthogonalLoop=1;jettySize=auto;html=1;entryX=0.5;entryY=1;entryDx=0;entryDy=0;entryPerimeter=0;" parent="j18L-zdmBSkiU_ZphX1V-152" source="TLYjtaMSoJHvuYHscGxh-9" target="TLYjtaMSoJHvuYHscGxh-23" edge="1">
          <mxGeometry relative="1" as="geometry" />
        </mxCell>
        <mxCell id="TLYjtaMSoJHvuYHscGxh-26" value="Нет" style="edgeLabel;html=1;align=center;verticalAlign=middle;resizable=0;points=[];" parent="TLYjtaMSoJHvuYHscGxh-24" vertex="1" connectable="0">
          <mxGeometry x="-0.6038" y="3" relative="1" as="geometry">
            <mxPoint as="offset" />
          </mxGeometry>
        </mxCell>
        <mxCell id="TLYjtaMSoJHvuYHscGxh-11" value="Проверка введенных данных" style="points=[[0.25,0,0],[0.5,0,0],[0.75,0,0],[1,0.25,0],[1,0.5,0],[1,0.75,0],[0.75,1,0],[0.5,1,0],[0.25,1,0],[0,0.75,0],[0,0.5,0],[0,0.25,0]];shape=mxgraph.bpmn.task;whiteSpace=wrap;rectStyle=rounded;size=10;html=1;container=1;expand=0;collapsible=0;taskMarker=service;" parent="j18L-zdmBSkiU_ZphX1V-152" vertex="1">
          <mxGeometry x="4850" y="765" width="120" height="80" as="geometry" />
        </mxCell>
        <mxCell id="TLYjtaMSoJHvuYHscGxh-13" style="edgeStyle=orthogonalEdgeStyle;rounded=0;orthogonalLoop=1;jettySize=auto;html=1;entryX=0.5;entryY=1;entryDx=0;entryDy=0;entryPerimeter=0;" parent="j18L-zdmBSkiU_ZphX1V-152" source="TLYjtaMSoJHvuYHscGxh-9" target="TLYjtaMSoJHvuYHscGxh-25" edge="1">
          <mxGeometry relative="1" as="geometry">
            <mxPoint x="4833" y="90" as="targetPoint" />
          </mxGeometry>
        </mxCell>
        <mxCell id="TLYjtaMSoJHvuYHscGxh-14" value="Да" style="edgeLabel;html=1;align=center;verticalAlign=middle;resizable=0;points=[];" parent="TLYjtaMSoJHvuYHscGxh-13" vertex="1" connectable="0">
          <mxGeometry x="-0.8665" y="1" relative="1" as="geometry">
            <mxPoint as="offset" />
          </mxGeometry>
        </mxCell>
        <mxCell id="TLYjtaMSoJHvuYHscGxh-6" value="Ввести код подтверждения" style="points=[[0.25,0,0],[0.5,0,0],[0.75,0,0],[1,0.25,0],[1,0.5,0],[1,0.75,0],[0.75,1,0],[0.5,1,0],[0.25,1,0],[0,0.75,0],[0,0.5,0],[0,0.25,0]];shape=mxgraph.bpmn.task;whiteSpace=wrap;rectStyle=rounded;size=10;html=1;container=1;expand=0;collapsible=0;taskMarker=abstract;" parent="j18L-zdmBSkiU_ZphX1V-152" vertex="1">
          <mxGeometry x="4690" y="440" width="120" height="80" as="geometry" />
        </mxCell>
        <mxCell id="TLYjtaMSoJHvuYHscGxh-8" value="Актуальность кода - 5 минут" style="points=[[0.145,0.145,0],[0.5,0,0],[0.855,0.145,0],[1,0.5,0],[0.855,0.855,0],[0.5,1,0],[0.145,0.855,0],[0,0.5,0]];shape=mxgraph.bpmn.event;html=1;verticalLabelPosition=bottom;labelBackgroundColor=#ffffff;verticalAlign=top;align=center;perimeter=ellipsePerimeter;outlineConnect=0;aspect=fixed;outline=catching;symbol=timer;" parent="j18L-zdmBSkiU_ZphX1V-152" vertex="1">
          <mxGeometry x="4725" y="780" width="50" height="50" as="geometry" />
        </mxCell>
        <mxCell id="TLYjtaMSoJHvuYHscGxh-2" value="Отправить SMS с кодом" style="points=[[0.25,0,0],[0.5,0,0],[0.75,0,0],[1,0.25,0],[1,0.5,0],[1,0.75,0],[0.75,1,0],[0.5,1,0],[0.25,1,0],[0,0.75,0],[0,0.5,0],[0,0.25,0]];shape=mxgraph.bpmn.task;whiteSpace=wrap;rectStyle=rounded;size=10;html=1;container=1;expand=0;collapsible=0;taskMarker=service;" parent="j18L-zdmBSkiU_ZphX1V-152" vertex="1">
          <mxGeometry x="4520" y="765" width="120" height="80" as="geometry" />
        </mxCell>
        <mxCell id="TLYjtaMSoJHvuYHscGxh-21" style="edgeStyle=orthogonalEdgeStyle;rounded=0;orthogonalLoop=1;jettySize=auto;html=1;entryX=0.5;entryY=0;entryDx=0;entryDy=0;entryPerimeter=0;" parent="j18L-zdmBSkiU_ZphX1V-152" source="TLYjtaMSoJHvuYHscGxh-6" target="TLYjtaMSoJHvuYHscGxh-11" edge="1">
          <mxGeometry relative="1" as="geometry" />
        </mxCell>
        <mxCell id="TLYjtaMSoJHvuYHscGxh-15" value="Запросить код подтверждения" style="points=[[0.25,0,0],[0.5,0,0],[0.75,0,0],[1,0.25,0],[1,0.5,0],[1,0.75,0],[0.75,1,0],[0.5,1,0],[0.25,1,0],[0,0.75,0],[0,0.5,0],[0,0.25,0]];shape=mxgraph.bpmn.task;whiteSpace=wrap;rectStyle=rounded;size=10;html=1;container=1;expand=0;collapsible=0;taskMarker=abstract;" parent="j18L-zdmBSkiU_ZphX1V-152" vertex="1">
          <mxGeometry x="4520" y="440" width="120" height="80" as="geometry" />
        </mxCell>
        <mxCell id="TLYjtaMSoJHvuYHscGxh-22" style="edgeStyle=orthogonalEdgeStyle;rounded=0;orthogonalLoop=1;jettySize=auto;html=1;entryX=0;entryY=0.5;entryDx=0;entryDy=0;entryPerimeter=0;" parent="j18L-zdmBSkiU_ZphX1V-152" source="TLYjtaMSoJHvuYHscGxh-11" target="TLYjtaMSoJHvuYHscGxh-9" edge="1">
          <mxGeometry relative="1" as="geometry" />
        </mxCell>
        <mxCell id="TLYjtaMSoJHvuYHscGxh-7" style="edgeStyle=orthogonalEdgeStyle;rounded=0;orthogonalLoop=1;jettySize=auto;html=1;entryX=0.5;entryY=1;entryDx=0;entryDy=0;entryPerimeter=0;" parent="j18L-zdmBSkiU_ZphX1V-152" source="TLYjtaMSoJHvuYHscGxh-8" target="TLYjtaMSoJHvuYHscGxh-6" edge="1">
          <mxGeometry relative="1" as="geometry">
            <mxPoint x="4065" y="780" as="sourcePoint" />
          </mxGeometry>
        </mxCell>
        <mxCell id="TLYjtaMSoJHvuYHscGxh-17" style="edgeStyle=orthogonalEdgeStyle;rounded=0;orthogonalLoop=1;jettySize=auto;html=1;" parent="j18L-zdmBSkiU_ZphX1V-152" source="TLYjtaMSoJHvuYHscGxh-15" target="TLYjtaMSoJHvuYHscGxh-2" edge="1">
          <mxGeometry relative="1" as="geometry" />
        </mxCell>
        <mxCell id="TLYjtaMSoJHvuYHscGxh-5" style="edgeStyle=orthogonalEdgeStyle;rounded=0;orthogonalLoop=1;jettySize=auto;html=1;entryX=0;entryY=0.5;entryDx=0;entryDy=0;entryPerimeter=0;" parent="j18L-zdmBSkiU_ZphX1V-152" source="TLYjtaMSoJHvuYHscGxh-2" target="TLYjtaMSoJHvuYHscGxh-8" edge="1">
          <mxGeometry relative="1" as="geometry">
            <mxPoint x="4040" y="805" as="targetPoint" />
          </mxGeometry>
        </mxCell>
        <mxCell id="b50oSt3-bvdmhl1ulfSf-122" value="Перейти к заполнению данных для доставки&amp;nbsp;&lt;div&gt;(ФИО, адрес)&lt;/div&gt;" style="points=[[0.25,0,0],[0.5,0,0],[0.75,0,0],[1,0.25,0],[1,0.5,0],[1,0.75,0],[0.75,1,0],[0.5,1,0],[0.25,1,0],[0,0.75,0],[0,0.5,0],[0,0.25,0]];shape=mxgraph.bpmn.task;whiteSpace=wrap;rectStyle=rounded;size=10;html=1;container=1;expand=0;collapsible=0;taskMarker=abstract;" parent="j18L-zdmBSkiU_ZphX1V-152" vertex="1">
          <mxGeometry x="3300" y="440" width="120" height="80" as="geometry" />
        </mxCell>
        <mxCell id="b50oSt3-bvdmhl1ulfSf-123" value="Заполнить данные для доставки&amp;nbsp;&lt;div&gt;(ФИО, адрес)&lt;/div&gt;" style="points=[[0.25,0,0],[0.5,0,0],[0.75,0,0],[1,0.25,0],[1,0.5,0],[1,0.75,0],[0.75,1,0],[0.5,1,0],[0.25,1,0],[0,0.75,0],[0,0.5,0],[0,0.25,0]];shape=mxgraph.bpmn.task;whiteSpace=wrap;rectStyle=rounded;size=10;html=1;container=1;expand=0;collapsible=0;taskMarker=abstract;" parent="j18L-zdmBSkiU_ZphX1V-152" vertex="1">
          <mxGeometry x="3645" y="440" width="120" height="80" as="geometry" />
        </mxCell>
        <mxCell id="b50oSt3-bvdmhl1ulfSf-124" style="edgeStyle=orthogonalEdgeStyle;rounded=0;orthogonalLoop=1;jettySize=auto;html=1;entryX=0;entryY=0.5;entryDx=0;entryDy=0;entryPerimeter=0;" parent="j18L-zdmBSkiU_ZphX1V-152" source="b50oSt3-bvdmhl1ulfSf-122" target="b50oSt3-bvdmhl1ulfSf-123" edge="1">
          <mxGeometry relative="1" as="geometry" />
        </mxCell>
        <mxCell id="b50oSt3-bvdmhl1ulfSf-142" value="Проверить данные" style="points=[[0.25,0,0],[0.5,0,0],[0.75,0,0],[1,0.25,0],[1,0.5,0],[1,0.75,0],[0.75,1,0],[0.5,1,0],[0.25,1,0],[0,0.75,0],[0,0.5,0],[0,0.25,0]];shape=mxgraph.bpmn.task;whiteSpace=wrap;rectStyle=rounded;size=10;html=1;container=1;expand=0;collapsible=0;taskMarker=abstract;" parent="j18L-zdmBSkiU_ZphX1V-152" vertex="1">
          <mxGeometry x="3830" y="440" width="120" height="80" as="geometry" />
        </mxCell>
        <mxCell id="b50oSt3-bvdmhl1ulfSf-158" style="edgeStyle=orthogonalEdgeStyle;rounded=0;orthogonalLoop=1;jettySize=auto;html=1;" parent="j18L-zdmBSkiU_ZphX1V-152" source="b50oSt3-bvdmhl1ulfSf-143" target="b50oSt3-bvdmhl1ulfSf-145" edge="1">
          <mxGeometry relative="1" as="geometry" />
        </mxCell>
        <mxCell id="b50oSt3-bvdmhl1ulfSf-159" value="Нет" style="edgeLabel;html=1;align=center;verticalAlign=middle;resizable=0;points=[];" parent="b50oSt3-bvdmhl1ulfSf-158" vertex="1" connectable="0">
          <mxGeometry x="0.1749" y="-2" relative="1" as="geometry">
            <mxPoint as="offset" />
          </mxGeometry>
        </mxCell>
        <mxCell id="b50oSt3-bvdmhl1ulfSf-143" value="Данные верны?" style="points=[[0.25,0.25,0],[0.5,0,0],[0.75,0.25,0],[1,0.5,0],[0.75,0.75,0],[0.5,1,0],[0.25,0.75,0],[0,0.5,0]];shape=mxgraph.bpmn.gateway2;html=1;verticalLabelPosition=bottom;labelBackgroundColor=#ffffff;verticalAlign=top;align=center;perimeter=rhombusPerimeter;outlineConnect=0;outline=none;symbol=none;gwType=exclusive;" parent="j18L-zdmBSkiU_ZphX1V-152" vertex="1">
          <mxGeometry x="4030" y="455" width="50" height="50" as="geometry" />
        </mxCell>
        <mxCell id="b50oSt3-bvdmhl1ulfSf-167" style="edgeStyle=orthogonalEdgeStyle;rounded=0;orthogonalLoop=1;jettySize=auto;html=1;" parent="j18L-zdmBSkiU_ZphX1V-152" source="b50oSt3-bvdmhl1ulfSf-144" target="TLYjtaMSoJHvuYHscGxh-15" edge="1">
          <mxGeometry relative="1" as="geometry" />
        </mxCell>
        <mxCell id="b50oSt3-bvdmhl1ulfSf-144" value="Ввести номер телефона" style="points=[[0.25,0,0],[0.5,0,0],[0.75,0,0],[1,0.25,0],[1,0.5,0],[1,0.75,0],[0.75,1,0],[0.5,1,0],[0.25,1,0],[0,0.75,0],[0,0.5,0],[0,0.25,0]];shape=mxgraph.bpmn.task;whiteSpace=wrap;rectStyle=rounded;size=10;html=1;container=1;expand=0;collapsible=0;taskMarker=abstract;" parent="j18L-zdmBSkiU_ZphX1V-152" vertex="1">
          <mxGeometry x="4170" y="440" width="120" height="80" as="geometry" />
        </mxCell>
        <mxCell id="b50oSt3-bvdmhl1ulfSf-145" value="Исправить данные" style="points=[[0.25,0,0],[0.5,0,0],[0.75,0,0],[1,0.25,0],[1,0.5,0],[1,0.75,0],[0.75,1,0],[0.5,1,0],[0.25,1,0],[0,0.75,0],[0,0.5,0],[0,0.25,0]];shape=mxgraph.bpmn.task;whiteSpace=wrap;rectStyle=rounded;size=10;html=1;container=1;expand=0;collapsible=0;taskMarker=abstract;" parent="j18L-zdmBSkiU_ZphX1V-152" vertex="1">
          <mxGeometry x="3995" y="567" width="120" height="80" as="geometry" />
        </mxCell>
        <mxCell id="b50oSt3-bvdmhl1ulfSf-154" style="edgeStyle=orthogonalEdgeStyle;rounded=0;orthogonalLoop=1;jettySize=auto;html=1;entryX=0;entryY=0.5;entryDx=0;entryDy=0;entryPerimeter=0;" parent="j18L-zdmBSkiU_ZphX1V-152" source="b50oSt3-bvdmhl1ulfSf-123" target="b50oSt3-bvdmhl1ulfSf-142" edge="1">
          <mxGeometry relative="1" as="geometry" />
        </mxCell>
        <mxCell id="b50oSt3-bvdmhl1ulfSf-155" style="edgeStyle=orthogonalEdgeStyle;rounded=0;orthogonalLoop=1;jettySize=auto;html=1;entryX=0;entryY=0.5;entryDx=0;entryDy=0;entryPerimeter=0;" parent="j18L-zdmBSkiU_ZphX1V-152" source="b50oSt3-bvdmhl1ulfSf-142" target="b50oSt3-bvdmhl1ulfSf-143" edge="1">
          <mxGeometry relative="1" as="geometry" />
        </mxCell>
        <mxCell id="b50oSt3-bvdmhl1ulfSf-156" style="edgeStyle=orthogonalEdgeStyle;rounded=0;orthogonalLoop=1;jettySize=auto;html=1;entryX=0;entryY=0.5;entryDx=0;entryDy=0;entryPerimeter=0;" parent="j18L-zdmBSkiU_ZphX1V-152" source="b50oSt3-bvdmhl1ulfSf-143" target="b50oSt3-bvdmhl1ulfSf-144" edge="1">
          <mxGeometry relative="1" as="geometry" />
        </mxCell>
        <mxCell id="b50oSt3-bvdmhl1ulfSf-157" value="Да" style="edgeLabel;html=1;align=center;verticalAlign=middle;resizable=0;points=[];" parent="b50oSt3-bvdmhl1ulfSf-156" vertex="1" connectable="0">
          <mxGeometry x="0.0503" y="-2" relative="1" as="geometry">
            <mxPoint as="offset" />
          </mxGeometry>
        </mxCell>
        <mxCell id="unbxJtJD0Z-4W3ONrYSX-4" style="edgeStyle=orthogonalEdgeStyle;rounded=0;orthogonalLoop=1;jettySize=auto;html=1;entryX=0;entryY=0.5;entryDx=0;entryDy=0;entryPerimeter=0;" edge="1" parent="j18L-zdmBSkiU_ZphX1V-152" source="unbxJtJD0Z-4W3ONrYSX-2" target="unbxJtJD0Z-4W3ONrYSX-1">
          <mxGeometry relative="1" as="geometry" />
        </mxCell>
        <mxCell id="unbxJtJD0Z-4W3ONrYSX-5" value="Наличные &lt;br&gt;при получении" style="edgeLabel;html=1;align=center;verticalAlign=middle;resizable=0;points=[];" vertex="1" connectable="0" parent="unbxJtJD0Z-4W3ONrYSX-4">
          <mxGeometry x="0.1022" y="-3" relative="1" as="geometry">
            <mxPoint x="-20" y="-3" as="offset" />
          </mxGeometry>
        </mxCell>
        <mxCell id="unbxJtJD0Z-4W3ONrYSX-6" value="Нажать кнопку &quot;Оплатить&quot;" style="points=[[0.25,0,0],[0.5,0,0],[0.75,0,0],[1,0.25,0],[1,0.5,0],[1,0.75,0],[0.75,1,0],[0.5,1,0],[0.25,1,0],[0,0.75,0],[0,0.5,0],[0,0.25,0]];shape=mxgraph.bpmn.task;whiteSpace=wrap;rectStyle=rounded;size=10;html=1;container=1;expand=0;collapsible=0;taskMarker=abstract;" vertex="1" parent="j18L-zdmBSkiU_ZphX1V-152">
          <mxGeometry x="5321" y="303" width="120" height="80" as="geometry" />
        </mxCell>
        <mxCell id="unbxJtJD0Z-4W3ONrYSX-7" style="edgeStyle=orthogonalEdgeStyle;rounded=0;orthogonalLoop=1;jettySize=auto;html=1;entryX=0.5;entryY=1;entryDx=0;entryDy=0;entryPerimeter=0;" edge="1" parent="j18L-zdmBSkiU_ZphX1V-152" source="unbxJtJD0Z-4W3ONrYSX-2" target="unbxJtJD0Z-4W3ONrYSX-6">
          <mxGeometry relative="1" as="geometry" />
        </mxCell>
        <mxCell id="unbxJtJD0Z-4W3ONrYSX-20" value="Онлайн картой" style="edgeLabel;html=1;align=center;verticalAlign=middle;resizable=0;points=[];" vertex="1" connectable="0" parent="unbxJtJD0Z-4W3ONrYSX-7">
          <mxGeometry x="-0.4416" relative="1" as="geometry">
            <mxPoint as="offset" />
          </mxGeometry>
        </mxCell>
        <mxCell id="unbxJtJD0Z-4W3ONrYSX-2" value="Какой способ оплаты?" style="points=[[0.25,0.25,0],[0.5,0,0],[0.75,0.25,0],[1,0.5,0],[0.75,0.75,0],[0.5,1,0],[0.25,0.75,0],[0,0.5,0]];shape=mxgraph.bpmn.gateway2;html=1;verticalLabelPosition=bottom;labelBackgroundColor=#ffffff;verticalAlign=top;align=center;perimeter=rhombusPerimeter;outlineConnect=0;outline=none;symbol=none;gwType=exclusive;" vertex="1" parent="j18L-zdmBSkiU_ZphX1V-152">
          <mxGeometry x="5356" y="455" width="50" height="50" as="geometry" />
        </mxCell>
        <mxCell id="unbxJtJD0Z-4W3ONrYSX-1" value="Нажать кнопку &quot;Оформить заказ&quot;" style="points=[[0.25,0,0],[0.5,0,0],[0.75,0,0],[1,0.25,0],[1,0.5,0],[1,0.75,0],[0.75,1,0],[0.5,1,0],[0.25,1,0],[0,0.75,0],[0,0.5,0],[0,0.25,0]];shape=mxgraph.bpmn.task;whiteSpace=wrap;rectStyle=rounded;size=10;html=1;container=1;expand=0;collapsible=0;taskMarker=abstract;" vertex="1" parent="j18L-zdmBSkiU_ZphX1V-152">
          <mxGeometry x="5530" y="440" width="120" height="80" as="geometry" />
        </mxCell>
        <mxCell id="unbxJtJD0Z-4W3ONrYSX-8" style="edgeStyle=orthogonalEdgeStyle;rounded=0;orthogonalLoop=1;jettySize=auto;html=1;entryX=0;entryY=0.5;entryDx=0;entryDy=0;entryPerimeter=0;" edge="1" parent="j18L-zdmBSkiU_ZphX1V-152" source="TLYjtaMSoJHvuYHscGxh-25" target="unbxJtJD0Z-4W3ONrYSX-2">
          <mxGeometry relative="1" as="geometry" />
        </mxCell>
        <mxCell id="unbxJtJD0Z-4W3ONrYSX-10" value="" style="points=[[0.25,0.25,0],[0.5,0,0],[0.75,0.25,0],[1,0.5,0],[0.75,0.75,0],[0.5,1,0],[0.25,0.75,0],[0,0.5,0]];shape=mxgraph.bpmn.gateway2;html=1;verticalLabelPosition=bottom;labelBackgroundColor=#ffffff;verticalAlign=top;align=center;perimeter=rhombusPerimeter;outlineConnect=0;outline=none;symbol=none;gwType=exclusive;" vertex="1" parent="j18L-zdmBSkiU_ZphX1V-152">
          <mxGeometry x="5680" y="454.5" width="50" height="50" as="geometry" />
        </mxCell>
        <mxCell id="unbxJtJD0Z-4W3ONrYSX-12" style="edgeStyle=orthogonalEdgeStyle;rounded=0;orthogonalLoop=1;jettySize=auto;html=1;entryX=0;entryY=0.5;entryDx=0;entryDy=0;entryPerimeter=0;" edge="1" parent="j18L-zdmBSkiU_ZphX1V-152" source="unbxJtJD0Z-4W3ONrYSX-1" target="unbxJtJD0Z-4W3ONrYSX-10">
          <mxGeometry relative="1" as="geometry" />
        </mxCell>
        <mxCell id="unbxJtJD0Z-4W3ONrYSX-13" style="edgeStyle=orthogonalEdgeStyle;rounded=0;orthogonalLoop=1;jettySize=auto;html=1;entryX=0;entryY=0.5;entryDx=0;entryDy=0;entryPerimeter=0;" edge="1" parent="j18L-zdmBSkiU_ZphX1V-152" source="unbxJtJD0Z-4W3ONrYSX-10" target="t04CrVsMe0VcIypLeOuC-1">
          <mxGeometry relative="1" as="geometry" />
        </mxCell>
        <mxCell id="unbxJtJD0Z-4W3ONrYSX-18" style="edgeStyle=orthogonalEdgeStyle;rounded=0;orthogonalLoop=1;jettySize=auto;html=1;dashed=1;" edge="1" parent="j18L-zdmBSkiU_ZphX1V-152" source="unbxJtJD0Z-4W3ONrYSX-14">
          <mxGeometry relative="1" as="geometry">
            <mxPoint x="5381" y="-50" as="targetPoint" />
          </mxGeometry>
        </mxCell>
        <mxCell id="unbxJtJD0Z-4W3ONrYSX-14" value="Произвести оплату в окне сервиса онлайн-оплаты" style="points=[[0.25,0,0],[0.5,0,0],[0.75,0,0],[1,0.25,0],[1,0.5,0],[1,0.75,0],[0.75,1,0],[0.5,1,0],[0.25,1,0],[0,0.75,0],[0,0.5,0],[0,0.25,0]];shape=mxgraph.bpmn.task;whiteSpace=wrap;rectStyle=rounded;size=10;html=1;container=1;expand=0;collapsible=0;taskMarker=abstract;" vertex="1" parent="j18L-zdmBSkiU_ZphX1V-152">
          <mxGeometry x="5321" y="177" width="120" height="80" as="geometry" />
        </mxCell>
        <mxCell id="unbxJtJD0Z-4W3ONrYSX-15" style="edgeStyle=orthogonalEdgeStyle;rounded=0;orthogonalLoop=1;jettySize=auto;html=1;entryX=0.5;entryY=1;entryDx=0;entryDy=0;entryPerimeter=0;" edge="1" parent="j18L-zdmBSkiU_ZphX1V-152" source="unbxJtJD0Z-4W3ONrYSX-6" target="unbxJtJD0Z-4W3ONrYSX-14">
          <mxGeometry relative="1" as="geometry" />
        </mxCell>
        <mxCell id="unbxJtJD0Z-4W3ONrYSX-16" style="edgeStyle=orthogonalEdgeStyle;rounded=0;orthogonalLoop=1;jettySize=auto;html=1;entryX=0.5;entryY=0;entryDx=0;entryDy=0;entryPerimeter=0;" edge="1" parent="j18L-zdmBSkiU_ZphX1V-152" source="unbxJtJD0Z-4W3ONrYSX-14" target="unbxJtJD0Z-4W3ONrYSX-10">
          <mxGeometry relative="1" as="geometry" />
        </mxCell>
        <mxCell id="GJDkKD9ZDpp5Ap8hCKxs-53" value="Администратор" style="swimlane;html=1;startSize=20;fontStyle=0;collapsible=0;horizontal=0;swimlaneLine=1;swimlaneFillColor=#ffffff;strokeWidth=2;whiteSpace=wrap;" parent="1" vertex="1">
          <mxGeometry x="2670" y="1480" width="7720" height="370" as="geometry" />
        </mxCell>
        <mxCell id="GJDkKD9ZDpp5Ap8hCKxs-76" value="Переместить заказ в папку &quot;На отгруз&quot;" style="points=[[0.25,0,0],[0.5,0,0],[0.75,0,0],[1,0.25,0],[1,0.5,0],[1,0.75,0],[0.75,1,0],[0.5,1,0],[0.25,1,0],[0,0.75,0],[0,0.5,0],[0,0.25,0]];shape=mxgraph.bpmn.task;whiteSpace=wrap;rectStyle=rounded;size=10;html=1;container=1;expand=0;collapsible=0;taskMarker=abstract;" parent="GJDkKD9ZDpp5Ap8hCKxs-53" vertex="1">
          <mxGeometry x="6420" y="10" width="120" height="80" as="geometry" />
        </mxCell>
        <mxCell id="GJDkKD9ZDpp5Ap8hCKxs-71" value="" style="points=[[0.25,0.25,0],[0.5,0,0],[0.75,0.25,0],[1,0.5,0],[0.75,0.75,0],[0.5,1,0],[0.25,0.75,0],[0,0.5,0]];shape=mxgraph.bpmn.gateway2;html=1;verticalLabelPosition=bottom;labelBackgroundColor=#ffffff;verticalAlign=top;align=center;perimeter=rhombusPerimeter;outlineConnect=0;outline=none;symbol=none;gwType=parallel;" parent="GJDkKD9ZDpp5Ap8hCKxs-53" vertex="1">
          <mxGeometry x="6580" y="85" width="50" height="50" as="geometry" />
        </mxCell>
        <mxCell id="GJDkKD9ZDpp5Ap8hCKxs-73" value="Подтвердить заказ" style="points=[[0.25,0,0],[0.5,0,0],[0.75,0,0],[1,0.25,0],[1,0.5,0],[1,0.75,0],[0.75,1,0],[0.5,1,0],[0.25,1,0],[0,0.75,0],[0,0.5,0],[0,0.25,0]];shape=mxgraph.bpmn.task;whiteSpace=wrap;rectStyle=rounded;size=10;html=1;container=1;expand=0;collapsible=0;taskMarker=abstract;" parent="GJDkKD9ZDpp5Ap8hCKxs-53" vertex="1">
          <mxGeometry x="6420" y="135" width="120" height="80" as="geometry" />
        </mxCell>
        <mxCell id="GJDkKD9ZDpp5Ap8hCKxs-72" value="" style="points=[[0.25,0.25,0],[0.5,0,0],[0.75,0.25,0],[1,0.5,0],[0.75,0.75,0],[0.5,1,0],[0.25,0.75,0],[0,0.5,0]];shape=mxgraph.bpmn.gateway2;html=1;verticalLabelPosition=bottom;labelBackgroundColor=#ffffff;verticalAlign=top;align=center;perimeter=rhombusPerimeter;outlineConnect=0;outline=none;symbol=none;gwType=parallel;" parent="GJDkKD9ZDpp5Ap8hCKxs-53" vertex="1">
          <mxGeometry x="6330" y="85" width="50" height="50" as="geometry" />
        </mxCell>
        <mxCell id="GJDkKD9ZDpp5Ap8hCKxs-74" value="Переместить заказ в папку &quot;Досогласовать&quot;" style="points=[[0.25,0,0],[0.5,0,0],[0.75,0,0],[1,0.25,0],[1,0.5,0],[1,0.75,0],[0.75,1,0],[0.5,1,0],[0.25,1,0],[0,0.75,0],[0,0.5,0],[0,0.25,0]];shape=mxgraph.bpmn.task;whiteSpace=wrap;rectStyle=rounded;size=10;html=1;container=1;expand=0;collapsible=0;taskMarker=abstract;" parent="GJDkKD9ZDpp5Ap8hCKxs-53" vertex="1">
          <mxGeometry x="6420" y="250" width="120" height="80" as="geometry" />
        </mxCell>
        <mxCell id="GJDkKD9ZDpp5Ap8hCKxs-75" value="Удалось связаться&lt;div&gt;с клиентом?&lt;/div&gt;" style="points=[[0.25,0.25,0],[0.5,0,0],[0.75,0.25,0],[1,0.5,0],[0.75,0.75,0],[0.5,1,0],[0.25,0.75,0],[0,0.5,0]];shape=mxgraph.bpmn.gateway2;html=1;verticalLabelPosition=bottom;labelBackgroundColor=#ffffff;verticalAlign=top;align=center;perimeter=rhombusPerimeter;outlineConnect=0;outline=none;symbol=none;gwType=exclusive;" parent="GJDkKD9ZDpp5Ap8hCKxs-53" vertex="1">
          <mxGeometry x="6280" y="265" width="50" height="50" as="geometry" />
        </mxCell>
        <mxCell id="GJDkKD9ZDpp5Ap8hCKxs-70" value="Связаться с клиентом" style="points=[[0.25,0,0],[0.5,0,0],[0.75,0,0],[1,0.25,0],[1,0.5,0],[1,0.75,0],[0.75,1,0],[0.5,1,0],[0.25,1,0],[0,0.75,0],[0,0.5,0],[0,0.25,0]];shape=mxgraph.bpmn.task;whiteSpace=wrap;rectStyle=rounded;size=10;html=1;container=1;expand=0;collapsible=0;taskMarker=abstract;" parent="GJDkKD9ZDpp5Ap8hCKxs-53" vertex="1">
          <mxGeometry x="6090" y="250" width="120" height="80" as="geometry" />
        </mxCell>
        <mxCell id="GJDkKD9ZDpp5Ap8hCKxs-69" value="Открыть письмо" style="points=[[0.25,0,0],[0.5,0,0],[0.75,0,0],[1,0.25,0],[1,0.5,0],[1,0.75,0],[0.75,1,0],[0.5,1,0],[0.25,1,0],[0,0.75,0],[0,0.5,0],[0,0.25,0]];shape=mxgraph.bpmn.task;whiteSpace=wrap;rectStyle=rounded;size=10;html=1;container=1;expand=0;collapsible=0;taskMarker=abstract;" parent="GJDkKD9ZDpp5Ap8hCKxs-53" vertex="1">
          <mxGeometry x="5897" y="250" width="120" height="80" as="geometry" />
        </mxCell>
        <mxCell id="GJDkKD9ZDpp5Ap8hCKxs-68" value="Уведомление&amp;nbsp;&lt;div&gt;о заказе&lt;/div&gt;" style="points=[[0.145,0.145,0],[0.5,0,0],[0.855,0.145,0],[1,0.5,0],[0.855,0.855,0],[0.5,1,0],[0.145,0.855,0],[0,0.5,0]];shape=mxgraph.bpmn.event;html=1;verticalLabelPosition=bottom;labelBackgroundColor=#ffffff;verticalAlign=top;align=center;perimeter=ellipsePerimeter;outlineConnect=0;aspect=fixed;outline=catching;symbol=message;" parent="GJDkKD9ZDpp5Ap8hCKxs-53" vertex="1">
          <mxGeometry x="5790" y="265" width="50" height="50" as="geometry" />
        </mxCell>
        <mxCell id="8-PZMUDFpaoxvOMcPMvk-4" style="edgeStyle=orthogonalEdgeStyle;rounded=0;orthogonalLoop=1;jettySize=auto;html=1;entryX=0.5;entryY=0;entryDx=0;entryDy=0;entryPerimeter=0;" parent="GJDkKD9ZDpp5Ap8hCKxs-53" source="GJDkKD9ZDpp5Ap8hCKxs-76" target="GJDkKD9ZDpp5Ap8hCKxs-71" edge="1">
          <mxGeometry relative="1" as="geometry" />
        </mxCell>
        <mxCell id="8-PZMUDFpaoxvOMcPMvk-5" style="edgeStyle=orthogonalEdgeStyle;rounded=0;orthogonalLoop=1;jettySize=auto;html=1;entryX=0.5;entryY=1;entryDx=0;entryDy=0;entryPerimeter=0;" parent="GJDkKD9ZDpp5Ap8hCKxs-53" source="GJDkKD9ZDpp5Ap8hCKxs-73" target="GJDkKD9ZDpp5Ap8hCKxs-71" edge="1">
          <mxGeometry relative="1" as="geometry" />
        </mxCell>
        <mxCell id="8-PZMUDFpaoxvOMcPMvk-2" style="edgeStyle=orthogonalEdgeStyle;rounded=0;orthogonalLoop=1;jettySize=auto;html=1;entryX=0;entryY=0.5;entryDx=0;entryDy=0;entryPerimeter=0;exitX=0.5;exitY=0;exitDx=0;exitDy=0;exitPerimeter=0;" parent="GJDkKD9ZDpp5Ap8hCKxs-53" source="GJDkKD9ZDpp5Ap8hCKxs-72" target="GJDkKD9ZDpp5Ap8hCKxs-76" edge="1">
          <mxGeometry relative="1" as="geometry" />
        </mxCell>
        <mxCell id="8-PZMUDFpaoxvOMcPMvk-3" style="edgeStyle=orthogonalEdgeStyle;rounded=0;orthogonalLoop=1;jettySize=auto;html=1;entryX=0;entryY=0.5;entryDx=0;entryDy=0;entryPerimeter=0;exitX=0.5;exitY=1;exitDx=0;exitDy=0;exitPerimeter=0;" parent="GJDkKD9ZDpp5Ap8hCKxs-53" source="GJDkKD9ZDpp5Ap8hCKxs-72" target="GJDkKD9ZDpp5Ap8hCKxs-73" edge="1">
          <mxGeometry relative="1" as="geometry" />
        </mxCell>
        <mxCell id="8-PZMUDFpaoxvOMcPMvk-1" style="edgeStyle=orthogonalEdgeStyle;rounded=0;orthogonalLoop=1;jettySize=auto;html=1;entryX=0;entryY=0.5;entryDx=0;entryDy=0;entryPerimeter=0;" parent="GJDkKD9ZDpp5Ap8hCKxs-53" source="GJDkKD9ZDpp5Ap8hCKxs-75" target="GJDkKD9ZDpp5Ap8hCKxs-72" edge="1">
          <mxGeometry relative="1" as="geometry" />
        </mxCell>
        <mxCell id="VUtrFpnIDYK8S0rXgRal-1" value="Да" style="edgeLabel;html=1;align=center;verticalAlign=middle;resizable=0;points=[];" parent="8-PZMUDFpaoxvOMcPMvk-1" vertex="1" connectable="0">
          <mxGeometry x="-0.7081" y="4" relative="1" as="geometry">
            <mxPoint as="offset" />
          </mxGeometry>
        </mxCell>
        <mxCell id="RLRIEe0p1JAGhSIS1-aB-1" style="edgeStyle=orthogonalEdgeStyle;rounded=0;orthogonalLoop=1;jettySize=auto;html=1;entryX=0;entryY=0.5;entryDx=0;entryDy=0;entryPerimeter=0;" parent="GJDkKD9ZDpp5Ap8hCKxs-53" source="GJDkKD9ZDpp5Ap8hCKxs-75" target="GJDkKD9ZDpp5Ap8hCKxs-74" edge="1">
          <mxGeometry relative="1" as="geometry" />
        </mxCell>
        <mxCell id="RLRIEe0p1JAGhSIS1-aB-2" value="Нет" style="edgeLabel;html=1;align=center;verticalAlign=middle;resizable=0;points=[];" parent="RLRIEe0p1JAGhSIS1-aB-1" vertex="1" connectable="0">
          <mxGeometry y="-3" relative="1" as="geometry">
            <mxPoint as="offset" />
          </mxGeometry>
        </mxCell>
        <mxCell id="GJDkKD9ZDpp5Ap8hCKxs-85" style="edgeStyle=orthogonalEdgeStyle;rounded=0;orthogonalLoop=1;jettySize=auto;html=1;entryX=0;entryY=0.5;entryDx=0;entryDy=0;entryPerimeter=0;" parent="GJDkKD9ZDpp5Ap8hCKxs-53" source="GJDkKD9ZDpp5Ap8hCKxs-70" target="GJDkKD9ZDpp5Ap8hCKxs-75" edge="1">
          <mxGeometry relative="1" as="geometry" />
        </mxCell>
        <mxCell id="GJDkKD9ZDpp5Ap8hCKxs-82" style="edgeStyle=orthogonalEdgeStyle;rounded=0;orthogonalLoop=1;jettySize=auto;html=1;" parent="GJDkKD9ZDpp5Ap8hCKxs-53" source="GJDkKD9ZDpp5Ap8hCKxs-69" target="GJDkKD9ZDpp5Ap8hCKxs-70" edge="1">
          <mxGeometry relative="1" as="geometry" />
        </mxCell>
        <mxCell id="GJDkKD9ZDpp5Ap8hCKxs-81" style="edgeStyle=orthogonalEdgeStyle;rounded=0;orthogonalLoop=1;jettySize=auto;html=1;" parent="GJDkKD9ZDpp5Ap8hCKxs-53" source="GJDkKD9ZDpp5Ap8hCKxs-68" target="GJDkKD9ZDpp5Ap8hCKxs-69" edge="1">
          <mxGeometry relative="1" as="geometry" />
        </mxCell>
        <mxCell id="F7iK8sTgg764oGR13AkP-63" value="Управляющий" style="swimlane;html=1;startSize=20;fontStyle=0;collapsible=0;horizontal=0;swimlaneLine=1;swimlaneFillColor=#ffffff;strokeWidth=2;whiteSpace=wrap;" parent="1" vertex="1">
          <mxGeometry x="2670" y="1850" width="7720" height="520" as="geometry" />
        </mxCell>
        <mxCell id="rsbNGdTYvm3R5nVnaRd5-14" style="edgeStyle=orthogonalEdgeStyle;rounded=0;orthogonalLoop=1;jettySize=auto;html=1;entryX=0;entryY=0.5;entryDx=0;entryDy=0;entryPerimeter=0;" parent="F7iK8sTgg764oGR13AkP-63" source="GJDkKD9ZDpp5Ap8hCKxs-54" target="GJDkKD9ZDpp5Ap8hCKxs-55" edge="1">
          <mxGeometry relative="1" as="geometry" />
        </mxCell>
        <mxCell id="rsbNGdTYvm3R5nVnaRd5-15" style="edgeStyle=orthogonalEdgeStyle;rounded=0;orthogonalLoop=1;jettySize=auto;html=1;entryX=0;entryY=0.5;entryDx=0;entryDy=0;entryPerimeter=0;" parent="F7iK8sTgg764oGR13AkP-63" source="GJDkKD9ZDpp5Ap8hCKxs-55" target="GJDkKD9ZDpp5Ap8hCKxs-56" edge="1">
          <mxGeometry relative="1" as="geometry" />
        </mxCell>
        <mxCell id="woqpwlWLZMWCDCQBCr14-1" style="edgeStyle=orthogonalEdgeStyle;rounded=0;orthogonalLoop=1;jettySize=auto;html=1;entryX=0.5;entryY=1;entryDx=0;entryDy=0;entryPerimeter=0;" parent="F7iK8sTgg764oGR13AkP-63" source="GJDkKD9ZDpp5Ap8hCKxs-56" target="GJDkKD9ZDpp5Ap8hCKxs-67" edge="1">
          <mxGeometry relative="1" as="geometry" />
        </mxCell>
        <mxCell id="woqpwlWLZMWCDCQBCr14-2" value="Отменить заказ" style="edgeLabel;html=1;align=center;verticalAlign=middle;resizable=0;points=[];" parent="woqpwlWLZMWCDCQBCr14-1" vertex="1" connectable="0">
          <mxGeometry x="-0.1897" y="1" relative="1" as="geometry">
            <mxPoint as="offset" />
          </mxGeometry>
        </mxCell>
        <mxCell id="rsbNGdTYvm3R5nVnaRd5-16" style="edgeStyle=orthogonalEdgeStyle;rounded=0;orthogonalLoop=1;jettySize=auto;html=1;entryX=0;entryY=0.5;entryDx=0;entryDy=0;entryPerimeter=0;" parent="F7iK8sTgg764oGR13AkP-63" source="GJDkKD9ZDpp5Ap8hCKxs-56" target="GJDkKD9ZDpp5Ap8hCKxs-57" edge="1">
          <mxGeometry relative="1" as="geometry" />
        </mxCell>
        <mxCell id="TOJCBai2cX0B7ZBow6S6-1" value="Позвонить&lt;div&gt;клиенту&lt;/div&gt;" style="edgeLabel;html=1;align=center;verticalAlign=middle;resizable=0;points=[];" parent="rsbNGdTYvm3R5nVnaRd5-16" vertex="1" connectable="0">
          <mxGeometry x="-0.2147" y="1" relative="1" as="geometry">
            <mxPoint as="offset" />
          </mxGeometry>
        </mxCell>
        <mxCell id="2YraaqvNg1MDguK4VjkX-4" style="edgeStyle=orthogonalEdgeStyle;rounded=0;orthogonalLoop=1;jettySize=auto;html=1;entryX=0.5;entryY=1;entryDx=0;entryDy=0;entryPerimeter=0;exitX=0.5;exitY=1;exitDx=0;exitDy=0;exitPerimeter=0;" parent="F7iK8sTgg764oGR13AkP-63" source="GJDkKD9ZDpp5Ap8hCKxs-58" target="GJDkKD9ZDpp5Ap8hCKxs-56" edge="1">
          <mxGeometry relative="1" as="geometry">
            <Array as="points">
              <mxPoint x="7020" y="510" />
              <mxPoint x="6700" y="510" />
            </Array>
          </mxGeometry>
        </mxCell>
        <mxCell id="2YraaqvNg1MDguK4VjkX-5" value="Нет" style="edgeLabel;html=1;align=center;verticalAlign=middle;resizable=0;points=[];" parent="2YraaqvNg1MDguK4VjkX-4" vertex="1" connectable="0">
          <mxGeometry x="0.0522" y="-1" relative="1" as="geometry">
            <mxPoint x="173" y="-19" as="offset" />
          </mxGeometry>
        </mxCell>
        <mxCell id="2YraaqvNg1MDguK4VjkX-1" style="edgeStyle=orthogonalEdgeStyle;rounded=0;orthogonalLoop=1;jettySize=auto;html=1;entryX=0;entryY=0.5;entryDx=0;entryDy=0;entryPerimeter=0;" parent="F7iK8sTgg764oGR13AkP-63" source="GJDkKD9ZDpp5Ap8hCKxs-57" target="GJDkKD9ZDpp5Ap8hCKxs-58" edge="1">
          <mxGeometry relative="1" as="geometry" />
        </mxCell>
        <mxCell id="2YraaqvNg1MDguK4VjkX-6" style="edgeStyle=orthogonalEdgeStyle;rounded=0;orthogonalLoop=1;jettySize=auto;html=1;entryX=0;entryY=0.5;entryDx=0;entryDy=0;entryPerimeter=0;" parent="F7iK8sTgg764oGR13AkP-63" source="GJDkKD9ZDpp5Ap8hCKxs-58" target="GJDkKD9ZDpp5Ap8hCKxs-59" edge="1">
          <mxGeometry relative="1" as="geometry" />
        </mxCell>
        <mxCell id="2YraaqvNg1MDguK4VjkX-7" value="Да" style="edgeLabel;html=1;align=center;verticalAlign=middle;resizable=0;points=[];" parent="2YraaqvNg1MDguK4VjkX-6" vertex="1" connectable="0">
          <mxGeometry x="-0.5453" relative="1" as="geometry">
            <mxPoint as="offset" />
          </mxGeometry>
        </mxCell>
        <mxCell id="2YraaqvNg1MDguK4VjkX-9" style="edgeStyle=orthogonalEdgeStyle;rounded=0;orthogonalLoop=1;jettySize=auto;html=1;entryX=0;entryY=0.5;entryDx=0;entryDy=0;entryPerimeter=0;exitX=0.5;exitY=1;exitDx=0;exitDy=0;exitPerimeter=0;" parent="F7iK8sTgg764oGR13AkP-63" source="GJDkKD9ZDpp5Ap8hCKxs-59" target="GJDkKD9ZDpp5Ap8hCKxs-60" edge="1">
          <mxGeometry relative="1" as="geometry" />
        </mxCell>
        <mxCell id="2YraaqvNg1MDguK4VjkX-8" style="edgeStyle=orthogonalEdgeStyle;rounded=0;orthogonalLoop=1;jettySize=auto;html=1;entryX=0;entryY=0.5;entryDx=0;entryDy=0;entryPerimeter=0;exitX=0.5;exitY=0;exitDx=0;exitDy=0;exitPerimeter=0;" parent="F7iK8sTgg764oGR13AkP-63" source="GJDkKD9ZDpp5Ap8hCKxs-59" target="GJDkKD9ZDpp5Ap8hCKxs-61" edge="1">
          <mxGeometry relative="1" as="geometry" />
        </mxCell>
        <mxCell id="2YraaqvNg1MDguK4VjkX-11" style="edgeStyle=orthogonalEdgeStyle;rounded=0;orthogonalLoop=1;jettySize=auto;html=1;entryX=0.5;entryY=1;entryDx=0;entryDy=0;entryPerimeter=0;" parent="F7iK8sTgg764oGR13AkP-63" source="GJDkKD9ZDpp5Ap8hCKxs-60" target="GJDkKD9ZDpp5Ap8hCKxs-62" edge="1">
          <mxGeometry relative="1" as="geometry" />
        </mxCell>
        <mxCell id="2YraaqvNg1MDguK4VjkX-10" style="edgeStyle=orthogonalEdgeStyle;rounded=0;orthogonalLoop=1;jettySize=auto;html=1;entryX=0.5;entryY=0;entryDx=0;entryDy=0;entryPerimeter=0;" parent="F7iK8sTgg764oGR13AkP-63" source="GJDkKD9ZDpp5Ap8hCKxs-61" target="GJDkKD9ZDpp5Ap8hCKxs-62" edge="1">
          <mxGeometry relative="1" as="geometry" />
        </mxCell>
        <mxCell id="2YraaqvNg1MDguK4VjkX-12" style="edgeStyle=orthogonalEdgeStyle;rounded=0;orthogonalLoop=1;jettySize=auto;html=1;entryX=0.5;entryY=1;entryDx=0;entryDy=0;entryPerimeter=0;" parent="F7iK8sTgg764oGR13AkP-63" source="GJDkKD9ZDpp5Ap8hCKxs-67" target="GJDkKD9ZDpp5Ap8hCKxs-65" edge="1">
          <mxGeometry relative="1" as="geometry" />
        </mxCell>
        <mxCell id="2YraaqvNg1MDguK4VjkX-13" style="edgeStyle=orthogonalEdgeStyle;rounded=0;orthogonalLoop=1;jettySize=auto;html=1;entryX=0.5;entryY=1;entryDx=0;entryDy=0;entryPerimeter=0;" parent="F7iK8sTgg764oGR13AkP-63" source="GJDkKD9ZDpp5Ap8hCKxs-65" target="GJDkKD9ZDpp5Ap8hCKxs-63" edge="1">
          <mxGeometry relative="1" as="geometry" />
        </mxCell>
        <mxCell id="2YraaqvNg1MDguK4VjkX-14" style="edgeStyle=orthogonalEdgeStyle;rounded=0;orthogonalLoop=1;jettySize=auto;html=1;entryX=0.5;entryY=1;entryDx=0;entryDy=0;entryPerimeter=0;exitX=0;exitY=0.5;exitDx=0;exitDy=0;exitPerimeter=0;" parent="F7iK8sTgg764oGR13AkP-63" source="GJDkKD9ZDpp5Ap8hCKxs-65" target="GJDkKD9ZDpp5Ap8hCKxs-64" edge="1">
          <mxGeometry relative="1" as="geometry" />
        </mxCell>
        <mxCell id="2YraaqvNg1MDguK4VjkX-16" style="edgeStyle=orthogonalEdgeStyle;rounded=0;orthogonalLoop=1;jettySize=auto;html=1;entryX=1;entryY=0.5;entryDx=0;entryDy=0;entryPerimeter=0;exitX=0.5;exitY=0;exitDx=0;exitDy=0;exitPerimeter=0;" parent="F7iK8sTgg764oGR13AkP-63" source="GJDkKD9ZDpp5Ap8hCKxs-63" target="GJDkKD9ZDpp5Ap8hCKxs-66" edge="1">
          <mxGeometry relative="1" as="geometry" />
        </mxCell>
        <mxCell id="2YraaqvNg1MDguK4VjkX-15" style="edgeStyle=orthogonalEdgeStyle;rounded=0;orthogonalLoop=1;jettySize=auto;html=1;entryX=0;entryY=0.5;entryDx=0;entryDy=0;entryPerimeter=0;" parent="F7iK8sTgg764oGR13AkP-63" source="GJDkKD9ZDpp5Ap8hCKxs-64" target="GJDkKD9ZDpp5Ap8hCKxs-66" edge="1">
          <mxGeometry relative="1" as="geometry" />
        </mxCell>
        <mxCell id="GJDkKD9ZDpp5Ap8hCKxs-62" value="" style="points=[[0.25,0.25,0],[0.5,0,0],[0.75,0.25,0],[1,0.5,0],[0.75,0.75,0],[0.5,1,0],[0.25,0.75,0],[0,0.5,0]];shape=mxgraph.bpmn.gateway2;html=1;verticalLabelPosition=bottom;labelBackgroundColor=#ffffff;verticalAlign=top;align=center;perimeter=rhombusPerimeter;outlineConnect=0;outline=none;symbol=none;gwType=parallel;" parent="F7iK8sTgg764oGR13AkP-63" vertex="1">
          <mxGeometry x="7585" y="385" width="50" height="50" as="geometry" />
        </mxCell>
        <mxCell id="GJDkKD9ZDpp5Ap8hCKxs-61" value="Переместить заказ в папку &quot;На отгруз&quot;" style="points=[[0.25,0,0],[0.5,0,0],[0.75,0,0],[1,0.25,0],[1,0.5,0],[1,0.75,0],[0.75,1,0],[0.5,1,0],[0.25,1,0],[0,0.75,0],[0,0.5,0],[0,0.25,0]];shape=mxgraph.bpmn.task;whiteSpace=wrap;rectStyle=rounded;size=10;html=1;container=1;expand=0;collapsible=0;taskMarker=abstract;" parent="F7iK8sTgg764oGR13AkP-63" vertex="1">
          <mxGeometry x="7430" y="325" width="120" height="80" as="geometry" />
        </mxCell>
        <mxCell id="GJDkKD9ZDpp5Ap8hCKxs-60" value="Подтвердить заказ" style="points=[[0.25,0,0],[0.5,0,0],[0.75,0,0],[1,0.25,0],[1,0.5,0],[1,0.75,0],[0.75,1,0],[0.5,1,0],[0.25,1,0],[0,0.75,0],[0,0.5,0],[0,0.25,0]];shape=mxgraph.bpmn.task;whiteSpace=wrap;rectStyle=rounded;size=10;html=1;container=1;expand=0;collapsible=0;taskMarker=abstract;" parent="F7iK8sTgg764oGR13AkP-63" vertex="1">
          <mxGeometry x="7430" y="415" width="120" height="80" as="geometry" />
        </mxCell>
        <mxCell id="GJDkKD9ZDpp5Ap8hCKxs-59" value="" style="points=[[0.25,0.25,0],[0.5,0,0],[0.75,0.25,0],[1,0.5,0],[0.75,0.75,0],[0.5,1,0],[0.25,0.75,0],[0,0.5,0]];shape=mxgraph.bpmn.gateway2;html=1;verticalLabelPosition=bottom;labelBackgroundColor=#ffffff;verticalAlign=top;align=center;perimeter=rhombusPerimeter;outlineConnect=0;outline=none;symbol=none;gwType=parallel;" parent="F7iK8sTgg764oGR13AkP-63" vertex="1">
          <mxGeometry x="7340" y="385" width="50" height="50" as="geometry" />
        </mxCell>
        <mxCell id="GJDkKD9ZDpp5Ap8hCKxs-58" value="Удалось связаться&lt;div&gt;с клиентом?&lt;/div&gt;" style="points=[[0.25,0.25,0],[0.5,0,0],[0.75,0.25,0],[1,0.5,0],[0.75,0.75,0],[0.5,1,0],[0.25,0.75,0],[0,0.5,0]];shape=mxgraph.bpmn.gateway2;html=1;verticalLabelPosition=bottom;labelBackgroundColor=#ffffff;verticalAlign=top;align=center;perimeter=rhombusPerimeter;outlineConnect=0;outline=none;symbol=none;gwType=exclusive;" parent="F7iK8sTgg764oGR13AkP-63" vertex="1">
          <mxGeometry x="7210" y="385" width="50" height="50" as="geometry" />
        </mxCell>
        <mxCell id="GJDkKD9ZDpp5Ap8hCKxs-57" value="Связаться с клиентом" style="points=[[0.25,0,0],[0.5,0,0],[0.75,0,0],[1,0.25,0],[1,0.5,0],[1,0.75,0],[0.75,1,0],[0.5,1,0],[0.25,1,0],[0,0.75,0],[0,0.5,0],[0,0.25,0]];shape=mxgraph.bpmn.task;whiteSpace=wrap;rectStyle=rounded;size=10;html=1;container=1;expand=0;collapsible=0;taskMarker=abstract;" parent="F7iK8sTgg764oGR13AkP-63" vertex="1">
          <mxGeometry x="7045" y="370" width="120" height="80" as="geometry" />
        </mxCell>
        <mxCell id="GJDkKD9ZDpp5Ap8hCKxs-67" value="Узнать статус оплаты заказа" style="points=[[0.25,0,0],[0.5,0,0],[0.75,0,0],[1,0.25,0],[1,0.5,0],[1,0.75,0],[0.75,1,0],[0.5,1,0],[0.25,1,0],[0,0.75,0],[0,0.5,0],[0,0.25,0]];shape=mxgraph.bpmn.task;whiteSpace=wrap;rectStyle=rounded;size=10;html=1;container=1;expand=0;collapsible=0;taskMarker=abstract;" parent="F7iK8sTgg764oGR13AkP-63" vertex="1">
          <mxGeometry x="6855" y="260" width="120" height="80" as="geometry" />
        </mxCell>
        <mxCell id="GJDkKD9ZDpp5Ap8hCKxs-56" value="Принять решение&amp;nbsp;&lt;div&gt;по заказу&lt;/div&gt;" style="points=[[0.25,0.25,0],[0.5,0,0],[0.75,0.25,0],[1,0.5,0],[0.75,0.75,0],[0.5,1,0],[0.25,0.75,0],[0,0.5,0]];shape=mxgraph.bpmn.gateway2;html=1;verticalLabelPosition=bottom;labelBackgroundColor=#ffffff;verticalAlign=top;align=center;perimeter=rhombusPerimeter;outlineConnect=0;outline=none;symbol=none;gwType=exclusive;" parent="F7iK8sTgg764oGR13AkP-63" vertex="1">
          <mxGeometry x="6890" y="385" width="50" height="50" as="geometry" />
        </mxCell>
        <mxCell id="GJDkKD9ZDpp5Ap8hCKxs-55" value="Проверить папку &quot;Досогласовать&quot;" style="points=[[0.25,0,0],[0.5,0,0],[0.75,0,0],[1,0.25,0],[1,0.5,0],[1,0.75,0],[0.75,1,0],[0.5,1,0],[0.25,1,0],[0,0.75,0],[0,0.5,0],[0,0.25,0]];shape=mxgraph.bpmn.task;whiteSpace=wrap;rectStyle=rounded;size=10;html=1;container=1;expand=0;collapsible=0;taskMarker=abstract;" parent="F7iK8sTgg764oGR13AkP-63" vertex="1">
          <mxGeometry x="6735" y="370" width="120" height="80" as="geometry" />
        </mxCell>
        <mxCell id="GJDkKD9ZDpp5Ap8hCKxs-64" value="Оформить возврат средств" style="points=[[0.25,0,0],[0.5,0,0],[0.75,0,0],[1,0.25,0],[1,0.5,0],[1,0.75,0],[0.75,1,0],[0.5,1,0],[0.25,1,0],[0,0.75,0],[0,0.5,0],[0,0.25,0]];shape=mxgraph.bpmn.task;whiteSpace=wrap;rectStyle=rounded;size=10;html=1;container=1;expand=0;collapsible=0;taskMarker=abstract;" parent="F7iK8sTgg764oGR13AkP-63" vertex="1">
          <mxGeometry x="6770" y="80" width="120" height="80" as="geometry" />
        </mxCell>
        <mxCell id="GJDkKD9ZDpp5Ap8hCKxs-65" value="" style="points=[[0.25,0.25,0],[0.5,0,0],[0.75,0.25,0],[1,0.5,0],[0.75,0.75,0],[0.5,1,0],[0.25,0.75,0],[0,0.5,0]];shape=mxgraph.bpmn.gateway2;html=1;verticalLabelPosition=bottom;labelBackgroundColor=#ffffff;verticalAlign=top;align=center;perimeter=rhombusPerimeter;outlineConnect=0;outline=none;symbol=none;gwType=parallel;" parent="F7iK8sTgg764oGR13AkP-63" vertex="1">
          <mxGeometry x="6890" y="170" width="50" height="50" as="geometry" />
        </mxCell>
        <mxCell id="GJDkKD9ZDpp5Ap8hCKxs-63" value="Отменить заказ" style="points=[[0.25,0,0],[0.5,0,0],[0.75,0,0],[1,0.25,0],[1,0.5,0],[1,0.75,0],[0.75,1,0],[0.5,1,0],[0.25,1,0],[0,0.75,0],[0,0.5,0],[0,0.25,0]];shape=mxgraph.bpmn.task;whiteSpace=wrap;rectStyle=rounded;size=10;html=1;container=1;expand=0;collapsible=0;taskMarker=abstract;" parent="F7iK8sTgg764oGR13AkP-63" vertex="1">
          <mxGeometry x="6950" y="80" width="120" height="80" as="geometry" />
        </mxCell>
        <mxCell id="GJDkKD9ZDpp5Ap8hCKxs-66" value="" style="points=[[0.25,0.25,0],[0.5,0,0],[0.75,0.25,0],[1,0.5,0],[0.75,0.75,0],[0.5,1,0],[0.25,0.75,0],[0,0.5,0]];shape=mxgraph.bpmn.gateway2;html=1;verticalLabelPosition=bottom;labelBackgroundColor=#ffffff;verticalAlign=top;align=center;perimeter=rhombusPerimeter;outlineConnect=0;outline=none;symbol=none;gwType=parallel;" parent="F7iK8sTgg764oGR13AkP-63" vertex="1">
          <mxGeometry x="6890" y="30" width="50" height="50" as="geometry" />
        </mxCell>
        <mxCell id="GJDkKD9ZDpp5Ap8hCKxs-54" value="На следующий день" style="points=[[0.145,0.145,0],[0.5,0,0],[0.855,0.145,0],[1,0.5,0],[0.855,0.855,0],[0.5,1,0],[0.145,0.855,0],[0,0.5,0]];shape=mxgraph.bpmn.event;html=1;verticalLabelPosition=bottom;labelBackgroundColor=#ffffff;verticalAlign=top;align=center;perimeter=ellipsePerimeter;outlineConnect=0;aspect=fixed;outline=catching;symbol=timer;" parent="F7iK8sTgg764oGR13AkP-63" vertex="1">
          <mxGeometry x="6455" y="385" width="50" height="50" as="geometry" />
        </mxCell>
        <mxCell id="fSqYz0-swasJqL_hSOi8-21" style="edgeStyle=orthogonalEdgeStyle;rounded=0;orthogonalLoop=1;jettySize=auto;html=1;" parent="1" source="fSqYz0-swasJqL_hSOi8-19" target="UvdeKC0Y37y8ZbVcoKJx-60" edge="1">
          <mxGeometry relative="1" as="geometry" />
        </mxCell>
        <mxCell id="fSqYz0-swasJqL_hSOi8-17" style="edgeStyle=orthogonalEdgeStyle;rounded=0;orthogonalLoop=1;jettySize=auto;html=1;entryX=0.5;entryY=1;entryDx=0;entryDy=0;entryPerimeter=0;" parent="1" source="fSqYz0-swasJqL_hSOi8-16" target="NP4nDpqarSkxfLU_XK2a-1" edge="1">
          <mxGeometry relative="1" as="geometry" />
        </mxCell>
        <mxCell id="fSqYz0-swasJqL_hSOi8-2" style="edgeStyle=orthogonalEdgeStyle;rounded=0;orthogonalLoop=1;jettySize=auto;html=1;entryX=0.5;entryY=1;entryDx=0;entryDy=0;entryPerimeter=0;" parent="1" source="UvdeKC0Y37y8ZbVcoKJx-60" target="fSqYz0-swasJqL_hSOi8-23" edge="1">
          <mxGeometry relative="1" as="geometry" />
        </mxCell>
        <mxCell id="fSqYz0-swasJqL_hSOi8-34" style="edgeStyle=orthogonalEdgeStyle;rounded=0;orthogonalLoop=1;jettySize=auto;html=1;entryX=0.5;entryY=0;entryDx=0;entryDy=0;entryPerimeter=0;" parent="1" source="fSqYz0-swasJqL_hSOi8-23" target="fSqYz0-swasJqL_hSOi8-32" edge="1">
          <mxGeometry relative="1" as="geometry" />
        </mxCell>
        <mxCell id="fSqYz0-swasJqL_hSOi8-36" style="edgeStyle=orthogonalEdgeStyle;rounded=0;orthogonalLoop=1;jettySize=auto;html=1;entryX=0.5;entryY=1;entryDx=0;entryDy=0;entryPerimeter=0;" parent="1" source="fSqYz0-swasJqL_hSOi8-29" target="D53XDtNXo2zpnGru8gi4-1" edge="1">
          <mxGeometry relative="1" as="geometry" />
        </mxCell>
        <mxCell id="2YraaqvNg1MDguK4VjkX-18" style="edgeStyle=orthogonalEdgeStyle;rounded=0;orthogonalLoop=1;jettySize=auto;html=1;exitX=1;exitY=0.5;exitDx=0;exitDy=0;exitPerimeter=0;" parent="1" source="GJDkKD9ZDpp5Ap8hCKxs-62" target="GJDkKD9ZDpp5Ap8hCKxs-79" edge="1">
          <mxGeometry relative="1" as="geometry" />
        </mxCell>
        <mxCell id="2YraaqvNg1MDguK4VjkX-17" style="edgeStyle=orthogonalEdgeStyle;rounded=0;orthogonalLoop=1;jettySize=auto;html=1;entryX=0.5;entryY=1;entryDx=0;entryDy=0;entryPerimeter=0;" parent="1" source="GJDkKD9ZDpp5Ap8hCKxs-66" target="GJDkKD9ZDpp5Ap8hCKxs-77" edge="1">
          <mxGeometry relative="1" as="geometry" />
        </mxCell>
        <mxCell id="AgAPbbEYWrU4LUX4-j4i-1" style="edgeStyle=orthogonalEdgeStyle;rounded=0;orthogonalLoop=1;jettySize=auto;html=1;entryX=0.5;entryY=1;entryDx=0;entryDy=0;entryPerimeter=0;" parent="1" source="GJDkKD9ZDpp5Ap8hCKxs-71" target="GJDkKD9ZDpp5Ap8hCKxs-78" edge="1">
          <mxGeometry relative="1" as="geometry" />
        </mxCell>
        <mxCell id="b50oSt3-bvdmhl1ulfSf-127" style="edgeStyle=orthogonalEdgeStyle;rounded=0;orthogonalLoop=1;jettySize=auto;html=1;" parent="1" source="b50oSt3-bvdmhl1ulfSf-122" target="b50oSt3-bvdmhl1ulfSf-126" edge="1">
          <mxGeometry relative="1" as="geometry" />
        </mxCell>
        <mxCell id="b50oSt3-bvdmhl1ulfSf-141" style="edgeStyle=orthogonalEdgeStyle;rounded=0;orthogonalLoop=1;jettySize=auto;html=1;entryX=0.5;entryY=1;entryDx=0;entryDy=0;entryPerimeter=0;" parent="1" source="b50oSt3-bvdmhl1ulfSf-139" target="b50oSt3-bvdmhl1ulfSf-123" edge="1">
          <mxGeometry relative="1" as="geometry" />
        </mxCell>
        <mxCell id="b50oSt3-bvdmhl1ulfSf-153" style="edgeStyle=orthogonalEdgeStyle;rounded=0;orthogonalLoop=1;jettySize=auto;html=1;" parent="1" source="b50oSt3-bvdmhl1ulfSf-146" target="b50oSt3-bvdmhl1ulfSf-142" edge="1">
          <mxGeometry relative="1" as="geometry" />
        </mxCell>
        <mxCell id="b50oSt3-bvdmhl1ulfSf-160" style="edgeStyle=orthogonalEdgeStyle;rounded=0;orthogonalLoop=1;jettySize=auto;html=1;entryX=0.5;entryY=0;entryDx=0;entryDy=0;entryPerimeter=0;" parent="1" source="b50oSt3-bvdmhl1ulfSf-145" target="b50oSt3-bvdmhl1ulfSf-147" edge="1">
          <mxGeometry relative="1" as="geometry" />
        </mxCell>
        <mxCell id="unbxJtJD0Z-4W3ONrYSX-17" value="Сервис онлайн-оплаты" style="swimlane;html=1;startSize=20;fontStyle=0;collapsible=0;horizontal=0;swimlaneLine=1;swimlaneFillColor=#ffffff;strokeWidth=2;whiteSpace=wrap;" vertex="1" parent="1">
          <mxGeometry x="7820" y="80" width="480" height="140" as="geometry" />
        </mxCell>
        <mxCell id="unbxJtJD0Z-4W3ONrYSX-19" style="edgeStyle=orthogonalEdgeStyle;rounded=0;orthogonalLoop=1;jettySize=auto;html=1;entryX=0.575;entryY=0.038;entryDx=0;entryDy=0;entryPerimeter=0;dashed=1;" edge="1" parent="1" source="unbxJtJD0Z-4W3ONrYSX-17" target="unbxJtJD0Z-4W3ONrYSX-14">
          <mxGeometry relative="1" as="geometry" />
        </mxCell>
        <mxCell id="rsbNGdTYvm3R5nVnaRd5-13" style="edgeStyle=orthogonalEdgeStyle;rounded=0;orthogonalLoop=1;jettySize=auto;html=1;" parent="1" source="GJDkKD9ZDpp5Ap8hCKxs-74" target="GJDkKD9ZDpp5Ap8hCKxs-54" edge="1">
          <mxGeometry relative="1" as="geometry" />
        </mxCell>
        <mxCell id="unbxJtJD0Z-4W3ONrYSX-23" style="edgeStyle=orthogonalEdgeStyle;rounded=0;orthogonalLoop=1;jettySize=auto;html=1;entryX=0.5;entryY=0;entryDx=0;entryDy=0;entryPerimeter=0;" edge="1" parent="1" source="t04CrVsMe0VcIypLeOuC-1" target="GJDkKD9ZDpp5Ap8hCKxs-68">
          <mxGeometry relative="1" as="geometry" />
        </mxCell>
      </root>
    </mxGraphModel>
  </diagram>
  <diagram id="sh3-hAxLnQKiKqV0zuk5" name="Диаграмма классов">
    <mxGraphModel dx="1401" dy="1507" grid="1" gridSize="10" guides="1" tooltips="1" connect="1" arrows="1" fold="1" page="1" pageScale="1" pageWidth="827" pageHeight="1169" math="0" shadow="0">
      <root>
        <mxCell id="0" />
        <mxCell id="1" parent="0" />
        <mxCell id="fGTgemcWlB7s1MbV4bM3-1" value="&lt;span style=&quot;font-weight: 400;&quot;&gt;Клиент&lt;/span&gt;" style="swimlane;fontStyle=1;align=center;verticalAlign=top;childLayout=stackLayout;horizontal=1;startSize=26;horizontalStack=0;resizeParent=1;resizeParentMax=0;resizeLast=0;collapsible=1;marginBottom=0;whiteSpace=wrap;html=1;" parent="1" vertex="1">
          <mxGeometry x="835" y="-110" width="280" height="180" as="geometry" />
        </mxCell>
        <mxCell id="fGTgemcWlB7s1MbV4bM3-2" value="&lt;div&gt;&lt;span style=&quot;background-color: initial;&quot;&gt;+ Код_клиента:&amp;nbsp;&lt;/span&gt;&lt;span style=&quot;background-color: initial;&quot;&gt;integer&lt;/span&gt;&lt;span style=&quot;background-color: initial;&quot;&gt;&lt;br&gt;&lt;/span&gt;&lt;/div&gt;&lt;div&gt;&lt;span style=&quot;background-color: initial;&quot;&gt;+ ФИО_клиента: string [1...3]&amp;nbsp;&lt;/span&gt;&lt;/div&gt;&lt;div&gt;&lt;span style=&quot;background-color: initial;&quot;&gt;+ Номер_телефона_клиента:&amp;nbsp;&lt;/span&gt;&lt;span style=&quot;background-color: initial;&quot;&gt;string&lt;/span&gt;&lt;span style=&quot;background-color: initial;&quot;&gt;&amp;nbsp;&lt;/span&gt;&lt;br&gt;&lt;/div&gt;&lt;div&gt;&lt;span style=&quot;background-color: initial;&quot;&gt;+ Адрес_доставки:&amp;nbsp;&lt;/span&gt;&lt;span style=&quot;background-color: initial;&quot;&gt;string&amp;nbsp;&lt;/span&gt;&lt;br&gt;&lt;/div&gt;&lt;div&gt;&lt;span style=&quot;background-color: initial;&quot;&gt;+ История_заказов: list&lt;/span&gt;&lt;/div&gt;&lt;div&gt;&lt;span style=&quot;background-color: initial;&quot;&gt;+ Список_избранного: list&lt;/span&gt;&lt;/div&gt;" style="text;strokeColor=none;fillColor=none;align=left;verticalAlign=top;spacingLeft=4;spacingRight=4;overflow=hidden;rotatable=0;points=[[0,0.5],[1,0.5]];portConstraint=eastwest;whiteSpace=wrap;html=1;" parent="fGTgemcWlB7s1MbV4bM3-1" vertex="1">
          <mxGeometry y="26" width="280" height="94" as="geometry" />
        </mxCell>
        <mxCell id="fGTgemcWlB7s1MbV4bM3-3" value="" style="line;strokeWidth=1;fillColor=none;align=left;verticalAlign=middle;spacingTop=-1;spacingLeft=3;spacingRight=3;rotatable=0;labelPosition=right;points=[];portConstraint=eastwest;strokeColor=inherit;" parent="fGTgemcWlB7s1MbV4bM3-1" vertex="1">
          <mxGeometry y="120" width="280" height="8" as="geometry" />
        </mxCell>
        <mxCell id="fGTgemcWlB7s1MbV4bM3-4" value="+ Создать клиента()&lt;div&gt;+ Изменить адрес доставки()&lt;/div&gt;&lt;div&gt;+ Изменить номер телефона клиента()&lt;/div&gt;&lt;div&gt;&lt;br&gt;&lt;/div&gt;" style="text;strokeColor=none;fillColor=none;align=left;verticalAlign=top;spacingLeft=4;spacingRight=4;overflow=hidden;rotatable=0;points=[[0,0.5],[1,0.5]];portConstraint=eastwest;whiteSpace=wrap;html=1;" parent="fGTgemcWlB7s1MbV4bM3-1" vertex="1">
          <mxGeometry y="128" width="280" height="52" as="geometry" />
        </mxCell>
        <mxCell id="fGTgemcWlB7s1MbV4bM3-5" value="&lt;span style=&quot;font-weight: 400;&quot;&gt;Товар&lt;/span&gt;" style="swimlane;fontStyle=1;align=center;verticalAlign=top;childLayout=stackLayout;horizontal=1;startSize=26;horizontalStack=0;resizeParent=1;resizeParentMax=0;resizeLast=0;collapsible=1;marginBottom=0;whiteSpace=wrap;html=1;" parent="1" vertex="1">
          <mxGeometry x="380" y="200" width="280" height="170" as="geometry" />
        </mxCell>
        <mxCell id="fGTgemcWlB7s1MbV4bM3-6" value="&lt;div&gt;&lt;span style=&quot;background-color: initial;&quot;&gt;+ Код_товара:&amp;nbsp;&lt;/span&gt;&lt;span style=&quot;background-color: initial;&quot;&gt;integer&lt;/span&gt;&lt;span style=&quot;background-color: initial;&quot;&gt;&lt;br&gt;&lt;/span&gt;&lt;/div&gt;&lt;div&gt;&lt;span style=&quot;background-color: initial;&quot;&gt;+ Название_товара:&amp;nbsp;&lt;/span&gt;&lt;span style=&quot;background-color: initial;&quot;&gt;string [1...3]&lt;/span&gt;&lt;span style=&quot;background-color: initial;&quot;&gt;&lt;br&gt;&lt;/span&gt;&lt;/div&gt;&lt;div&gt;&lt;span style=&quot;background-color: initial;&quot;&gt;+ Статус:&amp;nbsp;&lt;/span&gt;&lt;span style=&quot;background-color: initial;&quot;&gt;boolean&lt;/span&gt;&lt;br&gt;&lt;/div&gt;&lt;div&gt;+ Цена_продажи: float&lt;/div&gt;&lt;div&gt;&lt;span style=&quot;background-color: initial;&quot;&gt;+ Количество: integer&amp;nbsp;&lt;/span&gt;&lt;br&gt;&lt;/div&gt;&lt;div&gt;&lt;span style=&quot;background-color: initial;&quot;&gt;&amp;nbsp;&lt;/span&gt;&lt;br&gt;&lt;/div&gt;" style="text;strokeColor=none;fillColor=none;align=left;verticalAlign=top;spacingLeft=4;spacingRight=4;overflow=hidden;rotatable=0;points=[[0,0.5],[1,0.5]];portConstraint=eastwest;whiteSpace=wrap;html=1;" parent="fGTgemcWlB7s1MbV4bM3-5" vertex="1">
          <mxGeometry y="26" width="280" height="84" as="geometry" />
        </mxCell>
        <mxCell id="fGTgemcWlB7s1MbV4bM3-7" value="" style="line;strokeWidth=1;fillColor=none;align=left;verticalAlign=middle;spacingTop=-1;spacingLeft=3;spacingRight=3;rotatable=0;labelPosition=right;points=[];portConstraint=eastwest;strokeColor=inherit;" parent="fGTgemcWlB7s1MbV4bM3-5" vertex="1">
          <mxGeometry y="110" width="280" height="8" as="geometry" />
        </mxCell>
        <mxCell id="fGTgemcWlB7s1MbV4bM3-8" value="+ Добавить товар()&lt;div&gt;+ Удалить товар()&lt;/div&gt;&lt;div&gt;+ Изменить цену()&lt;/div&gt;" style="text;strokeColor=none;fillColor=none;align=left;verticalAlign=top;spacingLeft=4;spacingRight=4;overflow=hidden;rotatable=0;points=[[0,0.5],[1,0.5]];portConstraint=eastwest;whiteSpace=wrap;html=1;" parent="fGTgemcWlB7s1MbV4bM3-5" vertex="1">
          <mxGeometry y="118" width="280" height="52" as="geometry" />
        </mxCell>
        <mxCell id="fGTgemcWlB7s1MbV4bM3-9" value="&lt;span style=&quot;font-weight: 400;&quot;&gt;Заказ&lt;/span&gt;" style="swimlane;fontStyle=1;align=center;verticalAlign=top;childLayout=stackLayout;horizontal=1;startSize=26;horizontalStack=0;resizeParent=1;resizeParentMax=0;resizeLast=0;collapsible=1;marginBottom=0;whiteSpace=wrap;html=1;" parent="1" vertex="1">
          <mxGeometry x="380" y="-110" width="280" height="200" as="geometry" />
        </mxCell>
        <mxCell id="fGTgemcWlB7s1MbV4bM3-10" value="&lt;div&gt;&lt;span style=&quot;background-color: initial;&quot;&gt;+ Номер_&lt;/span&gt;заказа&lt;span style=&quot;background-color: initial;&quot;&gt;: integer&lt;/span&gt;&lt;br&gt;&lt;/div&gt;&lt;div&gt;+ Дата_создания_заказа: date&lt;/div&gt;&lt;div&gt;+ Список_позиций_и_количества_единиц: list&lt;br&gt;&lt;/div&gt;&lt;div&gt;+ Статус_заказа:&amp;nbsp;&lt;span style=&quot;background-color: initial;&quot;&gt;string [1&lt;/span&gt;&lt;span style=&quot;background-color: initial;&quot;&gt;...3&lt;/span&gt;&lt;span style=&quot;background-color: initial;&quot;&gt;]&lt;/span&gt;&lt;/div&gt;&lt;div&gt;+ Сумма: float&lt;/div&gt;&lt;div&gt;&lt;span style=&quot;background-color: initial;&quot;&gt;&amp;nbsp;&lt;/span&gt;&lt;span style=&quot;background-color: initial;&quot;&gt;+ ФИО_клиента: string [1...3]&amp;nbsp;&lt;/span&gt;&lt;/div&gt;&lt;div&gt;&lt;span style=&quot;background-color: initial;&quot;&gt;+ Адрес_доставки:&amp;nbsp;&lt;/span&gt;&lt;span style=&quot;background-color: initial;&quot;&gt;string [1...3]&amp;nbsp;&lt;/span&gt;&lt;/div&gt;" style="text;strokeColor=none;fillColor=none;align=left;verticalAlign=top;spacingLeft=4;spacingRight=4;overflow=hidden;rotatable=0;points=[[0,0.5],[1,0.5]];portConstraint=eastwest;whiteSpace=wrap;html=1;" parent="fGTgemcWlB7s1MbV4bM3-9" vertex="1">
          <mxGeometry y="26" width="280" height="114" as="geometry" />
        </mxCell>
        <mxCell id="fGTgemcWlB7s1MbV4bM3-11" value="" style="line;strokeWidth=1;fillColor=none;align=left;verticalAlign=middle;spacingTop=-1;spacingLeft=3;spacingRight=3;rotatable=0;labelPosition=right;points=[];portConstraint=eastwest;strokeColor=inherit;" parent="fGTgemcWlB7s1MbV4bM3-9" vertex="1">
          <mxGeometry y="140" width="280" height="8" as="geometry" />
        </mxCell>
        <mxCell id="fGTgemcWlB7s1MbV4bM3-12" value="+ Создать заказ()&lt;div&gt;+ Изменить статус заказа()&lt;/div&gt;&lt;div&gt;+ Удалить заказ()&lt;/div&gt;" style="text;strokeColor=none;fillColor=none;align=left;verticalAlign=top;spacingLeft=4;spacingRight=4;overflow=hidden;rotatable=0;points=[[0,0.5],[1,0.5]];portConstraint=eastwest;whiteSpace=wrap;html=1;" parent="fGTgemcWlB7s1MbV4bM3-9" vertex="1">
          <mxGeometry y="148" width="280" height="52" as="geometry" />
        </mxCell>
        <mxCell id="J_sKV896VPvEpDBNSCIJ-1" value="" style="html=1;verticalAlign=bottom;endArrow=none;curved=0;rounded=0;exitX=0.999;exitY=0.61;exitDx=0;exitDy=0;exitPerimeter=0;entryX=1.013;entryY=0.86;entryDx=0;entryDy=0;endFill=0;entryPerimeter=0;" parent="1" source="fGTgemcWlB7s1MbV4bM3-10" target="J_sKV896VPvEpDBNSCIJ-2" edge="1">
          <mxGeometry width="80" relative="1" as="geometry">
            <mxPoint x="659.9999999999999" y="8.526512829121202e-14" as="sourcePoint" />
            <mxPoint x="788.58" y="0.5900000000000034" as="targetPoint" />
          </mxGeometry>
        </mxCell>
        <mxCell id="J_sKV896VPvEpDBNSCIJ-2" value="&lt;font style=&quot;font-size: 10px;&quot;&gt;1&lt;/font&gt;" style="text;html=1;align=center;verticalAlign=middle;resizable=0;points=[];autosize=1;strokeColor=none;fillColor=none;" parent="1" vertex="1">
          <mxGeometry x="805" y="-40" width="30" height="30" as="geometry" />
        </mxCell>
        <mxCell id="J_sKV896VPvEpDBNSCIJ-3" value="&lt;font style=&quot;font-size: 10px;&quot;&gt;1...*&lt;/font&gt;" style="text;html=1;align=center;verticalAlign=middle;resizable=0;points=[];autosize=1;strokeColor=none;fillColor=none;" parent="1" vertex="1">
          <mxGeometry x="520" y="170" width="40" height="30" as="geometry" />
        </mxCell>
        <mxCell id="J_sKV896VPvEpDBNSCIJ-4" value="" style="html=1;verticalAlign=bottom;endArrow=none;curved=0;rounded=0;exitX=0.498;exitY=1.003;exitDx=0;exitDy=0;exitPerimeter=0;entryX=0.5;entryY=0;entryDx=0;entryDy=0;endFill=0;startArrow=diamondThin;startFill=1;" parent="1" source="fGTgemcWlB7s1MbV4bM3-12" target="fGTgemcWlB7s1MbV4bM3-5" edge="1">
          <mxGeometry width="80" relative="1" as="geometry">
            <mxPoint x="593" y="110" as="sourcePoint" />
            <mxPoint x="767" y="110" as="targetPoint" />
          </mxGeometry>
        </mxCell>
        <mxCell id="J_sKV896VPvEpDBNSCIJ-5" value="&lt;font style=&quot;font-size: 10px;&quot;&gt;1&lt;/font&gt;" style="text;html=1;align=center;verticalAlign=middle;resizable=0;points=[];autosize=1;strokeColor=none;fillColor=none;" parent="1" vertex="1">
          <mxGeometry x="520" y="90" width="30" height="30" as="geometry" />
        </mxCell>
        <mxCell id="J_sKV896VPvEpDBNSCIJ-6" value="&lt;font style=&quot;font-size: 10px;&quot;&gt;0...*&lt;/font&gt;" style="text;html=1;align=center;verticalAlign=middle;resizable=0;points=[];autosize=1;strokeColor=none;fillColor=none;" parent="1" vertex="1">
          <mxGeometry x="655" y="-40" width="40" height="30" as="geometry" />
        </mxCell>
        <mxCell id="J_sKV896VPvEpDBNSCIJ-8" value="&lt;span style=&quot;font-weight: 400;&quot;&gt;Категория&lt;/span&gt;" style="swimlane;fontStyle=1;align=center;verticalAlign=top;childLayout=stackLayout;horizontal=1;startSize=26;horizontalStack=0;resizeParent=1;resizeParentMax=0;resizeLast=0;collapsible=1;marginBottom=0;whiteSpace=wrap;html=1;" parent="1" vertex="1">
          <mxGeometry x="-20" y="200" width="280" height="160" as="geometry" />
        </mxCell>
        <mxCell id="J_sKV896VPvEpDBNSCIJ-9" value="&lt;div&gt;&lt;span style=&quot;background-color: initial;&quot;&gt;+ Код_категории:&amp;nbsp;&lt;/span&gt;&lt;span style=&quot;background-color: initial;&quot;&gt;integer&lt;/span&gt;&lt;/div&gt;&lt;div&gt;&lt;span style=&quot;background-color: initial;&quot;&gt;+ Наименование_категории:&amp;nbsp;&lt;/span&gt;&lt;span style=&quot;background-color: initial;&quot;&gt;string [1...3]&lt;/span&gt;&lt;/div&gt;&lt;div&gt;+ Список_товаров: list&lt;br&gt;&lt;/div&gt;&lt;div&gt;&lt;br&gt;&lt;/div&gt;&lt;div&gt;&lt;br&gt;&lt;/div&gt;" style="text;strokeColor=none;fillColor=none;align=left;verticalAlign=top;spacingLeft=4;spacingRight=4;overflow=hidden;rotatable=0;points=[[0,0.5],[1,0.5]];portConstraint=eastwest;whiteSpace=wrap;html=1;" parent="J_sKV896VPvEpDBNSCIJ-8" vertex="1">
          <mxGeometry y="26" width="280" height="54" as="geometry" />
        </mxCell>
        <mxCell id="J_sKV896VPvEpDBNSCIJ-10" value="" style="line;strokeWidth=1;fillColor=none;align=left;verticalAlign=middle;spacingTop=-1;spacingLeft=3;spacingRight=3;rotatable=0;labelPosition=right;points=[];portConstraint=eastwest;strokeColor=inherit;" parent="J_sKV896VPvEpDBNSCIJ-8" vertex="1">
          <mxGeometry y="80" width="280" height="8" as="geometry" />
        </mxCell>
        <mxCell id="J_sKV896VPvEpDBNSCIJ-11" value="+ Добавить товар в категорию()&lt;div&gt;+ Удалить товар из категории()&lt;/div&gt;&lt;div&gt;+ Создать категорию()&lt;/div&gt;&lt;div&gt;+ Удалить категорию&lt;span style=&quot;background-color: initial;&quot;&gt;()&lt;/span&gt;&lt;/div&gt;" style="text;strokeColor=none;fillColor=none;align=left;verticalAlign=top;spacingLeft=4;spacingRight=4;overflow=hidden;rotatable=0;points=[[0,0.5],[1,0.5]];portConstraint=eastwest;whiteSpace=wrap;html=1;" parent="J_sKV896VPvEpDBNSCIJ-8" vertex="1">
          <mxGeometry y="88" width="280" height="72" as="geometry" />
        </mxCell>
        <mxCell id="J_sKV896VPvEpDBNSCIJ-12" value="" style="html=1;verticalAlign=bottom;endArrow=none;curved=0;rounded=0;exitX=1.002;exitY=0.092;exitDx=0;exitDy=0;entryX=-0.001;entryY=0.817;entryDx=0;entryDy=0;endFill=0;startArrow=diamondThin;startFill=1;exitPerimeter=0;entryPerimeter=0;" parent="1" source="J_sKV896VPvEpDBNSCIJ-11" target="fGTgemcWlB7s1MbV4bM3-6" edge="1">
          <mxGeometry width="80" relative="1" as="geometry">
            <mxPoint x="529" y="100" as="sourcePoint" />
            <mxPoint x="530" y="210" as="targetPoint" />
          </mxGeometry>
        </mxCell>
        <mxCell id="J_sKV896VPvEpDBNSCIJ-13" value="&lt;font style=&quot;font-size: 10px;&quot;&gt;1&lt;/font&gt;" style="text;html=1;align=center;verticalAlign=middle;resizable=0;points=[];autosize=1;strokeColor=none;fillColor=none;" parent="1" vertex="1">
          <mxGeometry x="260" y="265" width="30" height="30" as="geometry" />
        </mxCell>
        <mxCell id="J_sKV896VPvEpDBNSCIJ-14" value="&lt;font style=&quot;font-size: 10px;&quot;&gt;1...*&lt;/font&gt;" style="text;html=1;align=center;verticalAlign=middle;resizable=0;points=[];autosize=1;strokeColor=none;fillColor=none;" parent="1" vertex="1">
          <mxGeometry x="340" y="265" width="40" height="30" as="geometry" />
        </mxCell>
        <mxCell id="ADGBQPhT2NX7w4TyDh4K-1" value="&lt;span style=&quot;font-weight: 400;&quot;&gt;Промокод&lt;/span&gt;" style="swimlane;fontStyle=1;align=center;verticalAlign=top;childLayout=stackLayout;horizontal=1;startSize=26;horizontalStack=0;resizeParent=1;resizeParentMax=0;resizeLast=0;collapsible=1;marginBottom=0;whiteSpace=wrap;html=1;" vertex="1" parent="1">
          <mxGeometry x="-20" y="-110" width="280" height="200" as="geometry" />
        </mxCell>
        <mxCell id="ADGBQPhT2NX7w4TyDh4K-2" value="&lt;div&gt;+ Процент_скидки: float&lt;br&gt;&lt;/div&gt;&lt;div&gt;+ Дата_добавления_промокода: date&lt;/div&gt;&lt;div&gt;&lt;span style=&quot;background-color: initial;&quot;&gt;+ Статус_промокода: boolean&lt;/span&gt;&lt;br&gt;&lt;/div&gt;&lt;div&gt;+ Процент_скидки: float&lt;/div&gt;&lt;div&gt;&lt;span style=&quot;background-color: initial;&quot;&gt;&amp;nbsp;&lt;/span&gt;&lt;br&gt;&lt;/div&gt;" style="text;strokeColor=none;fillColor=none;align=left;verticalAlign=top;spacingLeft=4;spacingRight=4;overflow=hidden;rotatable=0;points=[[0,0.5],[1,0.5]];portConstraint=eastwest;whiteSpace=wrap;html=1;" vertex="1" parent="ADGBQPhT2NX7w4TyDh4K-1">
          <mxGeometry y="26" width="280" height="114" as="geometry" />
        </mxCell>
        <mxCell id="ADGBQPhT2NX7w4TyDh4K-3" value="" style="line;strokeWidth=1;fillColor=none;align=left;verticalAlign=middle;spacingTop=-1;spacingLeft=3;spacingRight=3;rotatable=0;labelPosition=right;points=[];portConstraint=eastwest;strokeColor=inherit;" vertex="1" parent="ADGBQPhT2NX7w4TyDh4K-1">
          <mxGeometry y="140" width="280" height="8" as="geometry" />
        </mxCell>
        <mxCell id="ADGBQPhT2NX7w4TyDh4K-4" value="+ Добавить промокод()&lt;div&gt;&lt;span style=&quot;background-color: initial;&quot;&gt;+ Удалить промокод()&lt;/span&gt;&lt;br&gt;&lt;/div&gt;" style="text;strokeColor=none;fillColor=none;align=left;verticalAlign=top;spacingLeft=4;spacingRight=4;overflow=hidden;rotatable=0;points=[[0,0.5],[1,0.5]];portConstraint=eastwest;whiteSpace=wrap;html=1;" vertex="1" parent="ADGBQPhT2NX7w4TyDh4K-1">
          <mxGeometry y="148" width="280" height="52" as="geometry" />
        </mxCell>
        <mxCell id="ADGBQPhT2NX7w4TyDh4K-5" value="" style="html=1;verticalAlign=bottom;endArrow=none;curved=0;rounded=0;exitX=1;exitY=0.735;exitDx=0;exitDy=0;exitPerimeter=0;entryX=-0.001;entryY=0.737;entryDx=0;entryDy=0;endFill=0;entryPerimeter=0;" edge="1" parent="1" source="ADGBQPhT2NX7w4TyDh4K-2" target="fGTgemcWlB7s1MbV4bM3-10">
          <mxGeometry width="80" relative="1" as="geometry">
            <mxPoint x="200" y="-20.29" as="sourcePoint" />
            <mxPoint x="375" y="-20.29" as="targetPoint" />
          </mxGeometry>
        </mxCell>
        <mxCell id="ADGBQPhT2NX7w4TyDh4K-6" value="&lt;font style=&quot;font-size: 10px;&quot;&gt;1&lt;/font&gt;" style="text;html=1;align=center;verticalAlign=middle;resizable=0;points=[];autosize=1;strokeColor=none;fillColor=none;" vertex="1" parent="1">
          <mxGeometry x="350" y="-25" width="30" height="30" as="geometry" />
        </mxCell>
        <mxCell id="ADGBQPhT2NX7w4TyDh4K-7" value="&lt;font style=&quot;font-size: 10px;&quot;&gt;1&lt;/font&gt;" style="text;html=1;align=center;verticalAlign=middle;resizable=0;points=[];autosize=1;strokeColor=none;fillColor=none;" vertex="1" parent="1">
          <mxGeometry x="260" y="-25" width="30" height="30" as="geometry" />
        </mxCell>
      </root>
    </mxGraphModel>
  </diagram>
  <diagram id="ve-XrBkjv2GC5DcwCVAu" name="Диаграмма объектов">
    <mxGraphModel dx="2261" dy="2013" grid="1" gridSize="10" guides="1" tooltips="1" connect="1" arrows="1" fold="1" page="1" pageScale="1" pageWidth="827" pageHeight="1169" math="0" shadow="0">
      <root>
        <mxCell id="0" />
        <mxCell id="1" parent="0" />
        <mxCell id="cRJVjRuvNmqWqOxQhg8c-1" value="&lt;span style=&quot;font-weight: 400;&quot;&gt;Петров Петр Петрович:&amp;nbsp;&lt;i&gt;Клиент&lt;/i&gt;&lt;/span&gt;" style="swimlane;fontStyle=1;align=center;verticalAlign=top;childLayout=stackLayout;horizontal=1;startSize=26;horizontalStack=0;resizeParent=1;resizeParentMax=0;resizeLast=0;collapsible=1;marginBottom=0;whiteSpace=wrap;html=1;" parent="1" vertex="1">
          <mxGeometry x="835" y="-110" width="280" height="188" as="geometry" />
        </mxCell>
        <mxCell id="cRJVjRuvNmqWqOxQhg8c-2" value="&lt;div&gt;&lt;span style=&quot;background-color: initial;&quot;&gt;+ Код_клиента:&amp;nbsp;&lt;/span&gt;&lt;span style=&quot;background-color: initial;&quot;&gt;12&lt;/span&gt;&lt;span style=&quot;background-color: initial;&quot;&gt;&lt;br&gt;&lt;/span&gt;&lt;/div&gt;&lt;div&gt;&lt;span style=&quot;background-color: initial;&quot;&gt;+ ФИО_клиента:&amp;nbsp;&lt;/span&gt;&lt;span style=&quot;text-align: center;&quot;&gt;Петров Петр Петрович&lt;/span&gt;&lt;/div&gt;&lt;div&gt;&lt;span style=&quot;background-color: initial;&quot;&gt;+ Номер_телефона_клиента:&amp;nbsp;&lt;/span&gt;&lt;span style=&quot;background-color: initial;&quot;&gt;+79998885566&lt;/span&gt;&lt;span style=&quot;background-color: initial;&quot;&gt;&amp;nbsp;&lt;/span&gt;&lt;br&gt;&lt;/div&gt;&lt;div&gt;&lt;span style=&quot;background-color: initial;&quot;&gt;+ Адрес_доставки: Новосибирск, Преминина 10, 56&lt;/span&gt;&lt;br&gt;&lt;/div&gt;&lt;div&gt;&lt;span style=&quot;background-color: initial;&quot;&gt;+ История_заказов: заказ №5 от 05.05.2020,&amp;nbsp;&lt;/span&gt;&lt;span style=&quot;background-color: initial;&quot;&gt;заказ №78 от 04.11.2020,&amp;nbsp;&lt;/span&gt;&lt;span style=&quot;background-color: initial;&quot;&gt;заказ №86 от 12.12.2020&lt;/span&gt;&lt;/div&gt;&lt;div&gt;&lt;span style=&quot;background-color: initial;&quot;&gt;+ Список_избранного: стул белый (№132), стол серый (№45)&lt;/span&gt;&lt;/div&gt;" style="text;strokeColor=none;fillColor=none;align=left;verticalAlign=top;spacingLeft=4;spacingRight=4;overflow=hidden;rotatable=0;points=[[0,0.5],[1,0.5]];portConstraint=eastwest;whiteSpace=wrap;html=1;" parent="cRJVjRuvNmqWqOxQhg8c-1" vertex="1">
          <mxGeometry y="26" width="280" height="154" as="geometry" />
        </mxCell>
        <mxCell id="cRJVjRuvNmqWqOxQhg8c-3" value="" style="line;strokeWidth=1;fillColor=none;align=left;verticalAlign=middle;spacingTop=-1;spacingLeft=3;spacingRight=3;rotatable=0;labelPosition=right;points=[];portConstraint=eastwest;strokeColor=inherit;" parent="cRJVjRuvNmqWqOxQhg8c-1" vertex="1">
          <mxGeometry y="180" width="280" height="8" as="geometry" />
        </mxCell>
        <mxCell id="cRJVjRuvNmqWqOxQhg8c-5" value="&lt;span style=&quot;font-weight: 400;&quot;&gt;Стол белый:&lt;i&gt; Товар&lt;/i&gt;&lt;/span&gt;" style="swimlane;fontStyle=1;align=center;verticalAlign=top;childLayout=stackLayout;horizontal=1;startSize=26;horizontalStack=0;resizeParent=1;resizeParentMax=0;resizeLast=0;collapsible=1;marginBottom=0;whiteSpace=wrap;html=1;" parent="1" vertex="1">
          <mxGeometry x="380" y="200" width="280" height="118" as="geometry" />
        </mxCell>
        <mxCell id="cRJVjRuvNmqWqOxQhg8c-6" value="&lt;div&gt;&lt;span style=&quot;background-color: initial;&quot;&gt;+ Код_товара: 456&lt;/span&gt;&lt;span style=&quot;background-color: initial;&quot;&gt;&lt;br&gt;&lt;/span&gt;&lt;/div&gt;&lt;div&gt;&lt;span style=&quot;background-color: initial;&quot;&gt;+ Название_товара:&amp;nbsp;&lt;/span&gt;&lt;span style=&quot;background-color: initial;&quot;&gt;Стол белый&lt;/span&gt;&lt;span style=&quot;background-color: initial;&quot;&gt;&lt;br&gt;&lt;/span&gt;&lt;/div&gt;&lt;div&gt;&lt;span style=&quot;background-color: initial;&quot;&gt;+ Статус:&amp;nbsp;&lt;/span&gt;&lt;span style=&quot;background-color: initial;&quot;&gt;в наличие&lt;/span&gt;&lt;br&gt;&lt;/div&gt;&lt;div&gt;+ Цена_продажи: 13 000&lt;/div&gt;&lt;div&gt;&lt;span style=&quot;background-color: initial;&quot;&gt;+ Количество: 1&lt;/span&gt;&lt;br&gt;&lt;/div&gt;&lt;div&gt;&lt;span style=&quot;background-color: initial;&quot;&gt;&amp;nbsp;&lt;/span&gt;&lt;br&gt;&lt;/div&gt;" style="text;strokeColor=none;fillColor=none;align=left;verticalAlign=top;spacingLeft=4;spacingRight=4;overflow=hidden;rotatable=0;points=[[0,0.5],[1,0.5]];portConstraint=eastwest;whiteSpace=wrap;html=1;" parent="cRJVjRuvNmqWqOxQhg8c-5" vertex="1">
          <mxGeometry y="26" width="280" height="84" as="geometry" />
        </mxCell>
        <mxCell id="cRJVjRuvNmqWqOxQhg8c-7" value="" style="line;strokeWidth=1;fillColor=none;align=left;verticalAlign=middle;spacingTop=-1;spacingLeft=3;spacingRight=3;rotatable=0;labelPosition=right;points=[];portConstraint=eastwest;strokeColor=inherit;" parent="cRJVjRuvNmqWqOxQhg8c-5" vertex="1">
          <mxGeometry y="110" width="280" height="8" as="geometry" />
        </mxCell>
        <mxCell id="cRJVjRuvNmqWqOxQhg8c-9" value="&lt;span style=&quot;font-weight: 400;&quot;&gt;86&lt;i&gt;: Заказ&lt;/i&gt;&lt;/span&gt;" style="swimlane;fontStyle=1;align=center;verticalAlign=top;childLayout=stackLayout;horizontal=1;startSize=26;horizontalStack=0;resizeParent=1;resizeParentMax=0;resizeLast=0;collapsible=1;marginBottom=0;whiteSpace=wrap;html=1;" parent="1" vertex="1">
          <mxGeometry x="380" y="-110" width="280" height="168" as="geometry" />
        </mxCell>
        <mxCell id="cRJVjRuvNmqWqOxQhg8c-10" value="&lt;div&gt;&lt;span style=&quot;background-color: initial;&quot;&gt;+ Номер_&lt;/span&gt;заказа&lt;span style=&quot;background-color: initial;&quot;&gt;: 86&lt;/span&gt;&lt;br&gt;&lt;/div&gt;&lt;div&gt;+ Дата_создания_заказа:&amp;nbsp;&lt;span style=&quot;background-color: initial;&quot;&gt;12.12.2020&lt;/span&gt;&lt;/div&gt;&lt;div&gt;+ Список_позиций_и_количества_единиц: стол белый 1 ед.&lt;br&gt;&lt;/div&gt;&lt;div&gt;+ Статус_заказа: доставляется&lt;/div&gt;&lt;div&gt;+ Сумма: 13 000&lt;/div&gt;&lt;div&gt;&lt;span style=&quot;background-color: initial;&quot;&gt;&amp;nbsp;&lt;/span&gt;&lt;span style=&quot;background-color: initial;&quot;&gt;+ ФИО_клиента:&amp;nbsp;&lt;/span&gt;&lt;span style=&quot;text-align: center; background-color: initial;&quot;&gt;Петров Петр Петрович&lt;/span&gt;&lt;span style=&quot;background-color: initial;&quot;&gt;&amp;nbsp;&lt;/span&gt;&lt;/div&gt;&lt;div&gt;&lt;span style=&quot;background-color: initial;&quot;&gt;+ Адрес_доставки:&amp;nbsp;&lt;/span&gt;&lt;span style=&quot;background-color: initial;&quot;&gt;Новосибирск, Преминина 10, 56&lt;/span&gt;&lt;/div&gt;&lt;div&gt;&lt;br&gt;&lt;/div&gt;" style="text;strokeColor=none;fillColor=none;align=left;verticalAlign=top;spacingLeft=4;spacingRight=4;overflow=hidden;rotatable=0;points=[[0,0.5],[1,0.5]];portConstraint=eastwest;whiteSpace=wrap;html=1;" parent="cRJVjRuvNmqWqOxQhg8c-9" vertex="1">
          <mxGeometry y="26" width="280" height="134" as="geometry" />
        </mxCell>
        <mxCell id="cRJVjRuvNmqWqOxQhg8c-11" value="" style="line;strokeWidth=1;fillColor=none;align=left;verticalAlign=middle;spacingTop=-1;spacingLeft=3;spacingRight=3;rotatable=0;labelPosition=right;points=[];portConstraint=eastwest;strokeColor=inherit;" parent="cRJVjRuvNmqWqOxQhg8c-9" vertex="1">
          <mxGeometry y="160" width="280" height="8" as="geometry" />
        </mxCell>
        <mxCell id="cRJVjRuvNmqWqOxQhg8c-13" value="" style="html=1;verticalAlign=bottom;endArrow=none;curved=0;rounded=0;exitX=-0.002;exitY=0.847;exitDx=0;exitDy=0;exitPerimeter=0;entryX=1.013;entryY=0.86;entryDx=0;entryDy=0;endFill=0;entryPerimeter=0;" parent="1" source="cRJVjRuvNmqWqOxQhg8c-18" target="cRJVjRuvNmqWqOxQhg8c-14" edge="1">
          <mxGeometry width="80" relative="1" as="geometry">
            <mxPoint x="659.9999999999999" y="8.526512829121202e-14" as="sourcePoint" />
            <mxPoint x="788.58" y="0.5900000000000034" as="targetPoint" />
          </mxGeometry>
        </mxCell>
        <mxCell id="cRJVjRuvNmqWqOxQhg8c-14" value="&lt;font style=&quot;font-size: 10px;&quot;&gt;1&lt;/font&gt;" style="text;html=1;align=center;verticalAlign=middle;resizable=0;points=[];autosize=1;strokeColor=none;fillColor=none;" parent="1" vertex="1">
          <mxGeometry x="805" y="-40" width="30" height="30" as="geometry" />
        </mxCell>
        <mxCell id="cRJVjRuvNmqWqOxQhg8c-15" value="&lt;font style=&quot;font-size: 10px;&quot;&gt;1&lt;/font&gt;" style="text;html=1;align=center;verticalAlign=middle;resizable=0;points=[];autosize=1;strokeColor=none;fillColor=none;" parent="1" vertex="1">
          <mxGeometry x="525" y="170" width="30" height="30" as="geometry" />
        </mxCell>
        <mxCell id="cRJVjRuvNmqWqOxQhg8c-16" value="" style="html=1;verticalAlign=bottom;endArrow=none;curved=0;rounded=0;exitX=0.5;exitY=1;exitDx=0;exitDy=0;entryX=0.5;entryY=0;entryDx=0;entryDy=0;endFill=0;startArrow=diamondThin;startFill=1;" parent="1" source="cRJVjRuvNmqWqOxQhg8c-9" target="cRJVjRuvNmqWqOxQhg8c-5" edge="1">
          <mxGeometry width="80" relative="1" as="geometry">
            <mxPoint x="519.44" y="90.15599999999995" as="sourcePoint" />
            <mxPoint x="767" y="110" as="targetPoint" />
          </mxGeometry>
        </mxCell>
        <mxCell id="cRJVjRuvNmqWqOxQhg8c-17" value="&lt;font style=&quot;font-size: 10px;&quot;&gt;1&lt;/font&gt;" style="text;html=1;align=center;verticalAlign=middle;resizable=0;points=[];autosize=1;strokeColor=none;fillColor=none;" parent="1" vertex="1">
          <mxGeometry x="520" y="58" width="30" height="30" as="geometry" />
        </mxCell>
        <mxCell id="cRJVjRuvNmqWqOxQhg8c-18" value="&lt;font style=&quot;font-size: 10px;&quot;&gt;1&lt;/font&gt;" style="text;html=1;align=center;verticalAlign=middle;resizable=0;points=[];autosize=1;strokeColor=none;fillColor=none;" parent="1" vertex="1">
          <mxGeometry x="660" y="-40" width="30" height="30" as="geometry" />
        </mxCell>
        <mxCell id="cRJVjRuvNmqWqOxQhg8c-19" value="&lt;span style=&quot;font-weight: 400;&quot;&gt;Мебель:&lt;i&gt; Категория&lt;/i&gt;&lt;/span&gt;" style="swimlane;fontStyle=1;align=center;verticalAlign=top;childLayout=stackLayout;horizontal=1;startSize=26;horizontalStack=0;resizeParent=1;resizeParentMax=0;resizeLast=0;collapsible=1;marginBottom=0;whiteSpace=wrap;html=1;" parent="1" vertex="1">
          <mxGeometry x="-20" y="200" width="280" height="108" as="geometry" />
        </mxCell>
        <mxCell id="cRJVjRuvNmqWqOxQhg8c-20" value="&lt;div&gt;&lt;span style=&quot;background-color: initial;&quot;&gt;+ Код_категории: 02&lt;/span&gt;&lt;/div&gt;&lt;div&gt;&lt;span style=&quot;background-color: initial;&quot;&gt;+ Наименование_категории: Мебель&lt;/span&gt;&lt;/div&gt;&lt;div&gt;+ Список_товаров: стол белый, стол черный, стол коричневый...&lt;br&gt;&lt;/div&gt;&lt;div&gt;&lt;br&gt;&lt;/div&gt;&lt;div&gt;&lt;br&gt;&lt;/div&gt;" style="text;strokeColor=none;fillColor=none;align=left;verticalAlign=top;spacingLeft=4;spacingRight=4;overflow=hidden;rotatable=0;points=[[0,0.5],[1,0.5]];portConstraint=eastwest;whiteSpace=wrap;html=1;" parent="cRJVjRuvNmqWqOxQhg8c-19" vertex="1">
          <mxGeometry y="26" width="280" height="74" as="geometry" />
        </mxCell>
        <mxCell id="cRJVjRuvNmqWqOxQhg8c-21" value="" style="line;strokeWidth=1;fillColor=none;align=left;verticalAlign=middle;spacingTop=-1;spacingLeft=3;spacingRight=3;rotatable=0;labelPosition=right;points=[];portConstraint=eastwest;strokeColor=inherit;" parent="cRJVjRuvNmqWqOxQhg8c-19" vertex="1">
          <mxGeometry y="100" width="280" height="8" as="geometry" />
        </mxCell>
        <mxCell id="cRJVjRuvNmqWqOxQhg8c-23" value="" style="html=1;verticalAlign=bottom;endArrow=none;curved=0;rounded=0;exitX=1.002;exitY=0.092;exitDx=0;exitDy=0;entryX=-0.001;entryY=0.817;entryDx=0;entryDy=0;endFill=0;startArrow=diamondThin;startFill=1;exitPerimeter=0;entryPerimeter=0;" parent="1" target="cRJVjRuvNmqWqOxQhg8c-6" edge="1">
          <mxGeometry width="80" relative="1" as="geometry">
            <mxPoint x="260.55999999999995" y="294.624" as="sourcePoint" />
            <mxPoint x="530" y="210" as="targetPoint" />
          </mxGeometry>
        </mxCell>
        <mxCell id="cRJVjRuvNmqWqOxQhg8c-24" value="&lt;font style=&quot;font-size: 10px;&quot;&gt;1&lt;/font&gt;" style="text;html=1;align=center;verticalAlign=middle;resizable=0;points=[];autosize=1;strokeColor=none;fillColor=none;" parent="1" vertex="1">
          <mxGeometry x="260" y="265" width="30" height="30" as="geometry" />
        </mxCell>
        <mxCell id="cRJVjRuvNmqWqOxQhg8c-25" value="&lt;font style=&quot;font-size: 10px;&quot;&gt;1&lt;/font&gt;" style="text;html=1;align=center;verticalAlign=middle;resizable=0;points=[];autosize=1;strokeColor=none;fillColor=none;" parent="1" vertex="1">
          <mxGeometry x="345" y="265" width="30" height="30" as="geometry" />
        </mxCell>
      </root>
    </mxGraphModel>
  </diagram>
</mxfile>
